 <svg width="36mm" height="37.2mm" viewBox="0 0 36 37.2" xmlns="http://www.w3.org/2000/svg" >
<path style="fill:#f00;stroke-width:0.3;" d="m 10.1,0.1 24.75,0 c 0.72,0 0.97,0.79 0.97,1.37 L 35.9,7.1 H 10.1 Z" />
<rect width="35.8" height="37" x="0.07" y="0.1" style="fill:none;stroke:#000;stroke-width:0.2;stroke-miterlimit:4;stroke-dasharray:none" ry="1.143" rx="1.143" />
<path d="m 21.67,0.95 h 2.65 l -0.93,1.86 h 0.93 L 22.47,6.25 V 4.13 h -0.8 V 0.95 M 22.2,1.48 V 3.6 H 23 v 0.7 l 0.52,-0.96 h -0.99 l 0.93,-1.86 z" style="fill:#fff;stroke-width:0.264591" />
<text style="font-size:6.35px;font-family:sans-serif;text-align:end;text-anchor:end;fill:#008000;stroke:none;stroke-width:0.264591" x="9.32" y="6.07" >
<tspan style="font-size:6.35px;text-align:end;text-anchor:end;fill:#008000;stroke-width:0.264591" x="9.32" y="6.07">1</tspan>
</text>
<text style="font-size:6.63119px;font-family:sans-serif;fill:#f00;stroke:none;stroke-width:0.132646" x="3.83" y="21.69" >
<tspan style="font-size:3.97872px;fill:#f00;stroke-width:0.132646" x="3.83" y="21.69">Wyłącznik</tspan>
<tspan style="fill:#f00;stroke-width:0.132646" x="3.83" y="29.99" >GŁÓWNY</tspan>
</text>
<path style="stroke-width:0.3" d="M 0.1,7.2 H 35.9 V 7 H 0.1 Z" />
<path style="stroke-width:0.3" d="m 10,7.1 h 0.2 v -7 H 10 Z" />
</svg> 