<svg width="54mm" height="37.2mm" viewBox="0 0 54 37.2" xmlns="http://www.w3.org/2000/svg" >
<path style="fill:#f00;stroke-width:0.3;" d="m 10.1,0.1 42.85,0.029 c 0.72,0 0.97,0.79 0.97,1.3696 l -0,5.601 H 10.1 Z" />
<rect width="53.82" height="37" x="0.1" y="0.1" style="fill:none;stroke:#000;stroke-width:0.2;stroke-miterlimit:4;" ry="1.143" rx="1.143" />
<path d="m 30.69,0.9498 h 2.65 L 32.41,2.81 h 0.93 L 31.49,6.25 V 4.13 h -0.8 V 0.9498 M 31.22,1.48 V 3.6 h 0.81 v 0.7 l 0.51,-0.96 h -0.99 l 0.93,-1.86 z" style="fill:#fff;stroke-width:0.264591" />
<text style="font-size:6.35px;font-family:sans-serif;text-align:end;text-anchor:end;fill:#070;stroke:none" x="9.32" y="6.07" >
<tspan style="font-size:6.35px;text-align:end;text-anchor:end;fill:#070;stroke-width:0.264591" x="9.32" y="6.07">1</tspan>
</text>
<text style="font-size:10.0197px;font-family:sans-serif;fill:#f00;stroke:none" x="5.627" y="17.42" >
<tspan style="font-size:6.01185px;fill:#f00;stroke-width:0.13267" x="5.627" y="17.42">Wyłącznik</tspan>
<tspan style="fill:#f00;stroke-width:0.13267" x="5.627" y="29.96" >GŁÓWNY</tspan>
</text>
<rect width="53.8" height=".2" x=".1" y="7"/>
<rect width=".2" height="7" x="10" y=".1"/>
</svg>