<svg width="18mm" height="37.2mm" viewBox="0 0 18 37.2" xmlns="http://www.w3.org/2000/svg" >
<path style="fill:#ff0;stroke-width:0.3;" d="m 10.2,0.1 6.46,6e-4 c 0.86,0.015 1.23,0.5158 1.24,1.3764 l -0.1,5.623 -7.63,0 z" />
<rect width="17.8" height="37" x="0.1" y="0.1" style="fill:none;stroke:#000;stroke-width:0.2;stroke-miterlimit:4;" ry="1.143" rx="1.143" />
<text style="font-size:6.34987px;font-family:sans-serif;text-align:end;text-anchor:end;fill:#070;stroke:none" x="9.348" y="6.074" >
<tspan style="font-size:6.34987px;text-align:end;text-anchor:end;fill:#070;stroke-width:0.264583" x="9.348" y="6.074" >9</tspan>
</text>
<text style="font-size:5.30556px;font-family:sans-serif;stroke:none" x="-35.24" y="6.998" transform="rotate(-90)" >
<tspan style="font-size:3.18335px;stroke-width:0.132642" x="-35.24" y="6.998" >Oświetlenie</tspan>
<tspan style="stroke-width:0.132642" x="-35.24" y="13.63" >ŻYRANDOL</tspan>
</text>
<rect width="17.8" height=".2" x=".1" y="7" />
<rect width=".2" height="7" x="10" y=".1" />
<path d="m 14.92,3.911 c 0,0.496 -0.4,0.896 -0.89,0.896 -0.5,0 -0.9,-0.4 -0.9,-0.896 0,-0.495 0.4,-0.895 0.9,-0.895 0.49,0 0.89,0.4 0.89,0.895 M 13.13,0.5985 v 0.299 c 0,0.3305 0.27,0.5965 0.59,0.5965 v 1.224 c 0.12,-0.02 0.21,-0.03 0.31,-0.03 0.11,0 0.2,0.01 0.29,0.03 V 1.494 c 0.34,0 0.6,-0.266 0.6,-0.5965 V 0.5985 H 13.13 M 11.65,3.315 c -0.5,0 -0.9,0.399 -0.9,0.895 0,0.495 0.4,0.895 0.9,0.895 0.48,0 0.89,-0.4 0.89,-0.895 0,-0.496 -0.4,-0.894 -0.89,-0.894 m 4.76,0 c -0.5,0 -0.89,0.399 -0.89,0.894 0,0.495 0.39,0.895 0.89,0.895 0.49,0 0.9,-0.4 0.9,-0.895 0,-0.496 -0.41,-0.894 -0.9,-0.894 m 0,2.089 c -0.2,0 -0.4,-0.05 -0.57,-0.116 -0.14,0.07 -0.3,0.116 -0.46,0.116 -0.34,0 -0.63,-0.159 -0.81,-0.397 -0.17,0.07 -0.35,0.1 -0.53,0.1 -0.2,0 -0.38,-0.03 -0.54,-0.1 -0.19,0.238 -0.48,0.397 -0.8,0.397 -0.18,0 -0.33,-0.05 -0.48,-0.116 -0.18,0.08 -0.38,0.116 -0.57,0.116 -0.13,0 -0.16,-0.01 -0.24,-0.03 0.3,0.386 0.77,0.626 1.29,0.626 0.39,0 0.75,-0.139 1.03,-0.376 v 0.678 c 0,0.164 0.14,0.298 0.31,0.298 0.16,0 0.29,-0.134 0.29,-0.298 V 5.625 C 14.61,5.861 14.99,6 15.38,6 c 0.52,0 0.97,-0.241 1.28,-0.627 -0.12,0.02 -0.16,0.03 -0.25,0.03 z" style="stroke-width:0.264526" />
</svg>