<svg width="18mm" height="37.2mm" viewBox="0 0 18 37.2" xmlns="http://www.w3.org/2000/svg" >

<path style="fill:#ff0;stroke-width:0.3;" d="m 10.2,0.1 6.46,6e-4 c 0.86,0.015 1.23,0.5158 1.24,1.3764 l -0.1,5.623 -7.63,0 z" />
<rect width="17.8" height="37" x="0.1" y="0.1" style="fill:none;stroke:#000;stroke-width:0.2;stroke-miterlimit:4;" ry="1.143" rx="1.143" />
<text style="font-size:6.34987px;font-family:sans-serif;text-align:center;text-anchor:middle;fill:#070;stroke:none" x="3.784" y="5.867" >
<tspan style="font-size:6.34987px;text-align:center;text-anchor:middle;fill:#070;stroke-width:0.264583" x="5.276" y="5.867" >6</tspan>
</text>
<text style="font-size:5.30556px;font-family:sans-serif;stroke:none" x="-34.82" y="6.877" transform="rotate(-90)" >
<tspan style="font-size:3.18335px;stroke-width:0.132642" x="-34.82" y="6.877" >Oświetlenie</tspan>
<tspan style="stroke-width:0.132642" x="-34.82" y="13.51" >STRYCH</tspan>
</text>
<rect width="17.8" height=".2" x=".1" y="7" />
<rect width=".2" height="7" x="10" y=".1" />
<path style="stroke-width:0.264533" d="m 11.64,1.283 v 1.35 L 12.53,1.825 V 1.283 Z m 2.39,0 -3,2.7 h 0.9 l 2.1,-1.894 2.11,1.894 h 0.89 z m -0.15,1.378 a 0.148,0.148 0 0 0 -0.14,0.146 v 0.151 h 0.59 V 2.807 A 0.148,0.148 0 0 0 14.17,2.661 Z m -0.14,0.442 a 0.148,0.148 0 0 0 -0.16,0.151 v 0.259 c -0.25,0.152 -0.44,0.443 -0.44,0.773 a 0.8878,0.8878 0 0 0 0.89,0.883 v 0.01 A 0.8878,0.8878 0 0 0 14.92,4.29 c 0,-0.331 -0.18,-0.615 -0.45,-0.773 V 3.254 A 0.148,0.148 0 0 0 14.33,3.103 Z M 13.88,3.4 h 0.29 v 0.314 c 0.26,0.07 0.45,0.302 0.45,0.576 A 0.5918,0.5918 0 0 1 14.03,4.883 0.5918,0.5918 0 0 1 13.44,4.29 c 0,-0.274 0.19,-0.506 0.44,-0.576 z M 12.4,4.139 v 0.296 h 0.44 V 4.139 Z m 2.81,0 v 0.296 h 0.45 V 4.139 Z m -2.13,0.884 -0.31,0.312 0.22,0.214 0.31,-0.32 z m 1.89,0 -0.21,0.206 0.32,0.32 0.21,-0.214 z m -1.09,0.452 v 0.443 h 0.29 V 5.475 Z" />
</svg>