<svg width="18mm" height="37.2mm" viewBox="0 0 18 37.2" xmlns="http://www.w3.org/2000/svg" >

<path style="fill:#ff0;stroke-width:0.3;" d="m 10.2,0.1 6.46,6e-4 c 0.86,0.015 1.23,0.5158 1.24,1.3764 l -0.1,5.623 -7.63,0 z" />
<rect width="17.8" height="37" x="0.1" y="0.1" style="fill:none;stroke:#000;stroke-width:0.2;stroke-miterlimit:4;" ry="1.143" rx="1.143" />
<text style="font-size:6.34987px;font-family:sans-serif;text-align:center;text-anchor:middle;fill:#070;stroke:none" x="3.924" y="5.867" >
<tspan style="font-size:6.34987px;text-align:center;text-anchor:middle;fill:#070;stroke-width:0.264583" x="5.416" y="5.867" >6</tspan>
</text>
<text style="font-size:5.30556px;font-family:sans-serif;stroke:none" x="-34.84" y="6.873" transform="rotate(-90)" >
<tspan style="font-size:3.18335px;stroke-width:0.132642" x="-34.84" y="6.873" >Oświetlenie</tspan>
<tspan style="font-size:5.6444px;font-family:sans-serif;-inkscape-font-specification:'sans-serif, Normal';stroke-width:0.132642" x="-34.84" y="13.51" >GARAŻ</tspan>
</text>
<rect width="17.8" height=".2" x=".1" y="7" />
<rect width=".2" height="7" x="10" y=".1" />
<path d="m 17.03,2.551 v 3.3 h -0.6 V 3.152 h -4.8 v 2.699 h -0.6 v -3.3 l 3,-1.202 3,1.202 m -0.9,0.907 h -4.21 v 0.59 h 4.21 z" style="stroke-width:0.26455" />
</svg>