<svg width="18mm" height="37.2mm" viewBox="0 0 18 37.2" xmlns="http://www.w3.org/2000/svg" >
<path style="fill:#ff0;stroke-width:0.3;" d="m 10.2,0.1 6.46,6e-4 c 0.86,0.015 1.23,0.5158 1.24,1.3764 l -0.1,5.623 -7.63,0 z" />
<rect width="17.8" height="37" x="0.1" y="0.1" style="fill:none;stroke:#000;stroke-width:0.2;stroke-miterlimit:4;" ry="1.143" rx="1.143" />
<text style="font-size:6.34987px;font-family:sans-serif;text-align:center;text-anchor:middle;fill:#070;stroke:none" x="3.924" y="5.867" >
<tspan style="font-size:6.34987px;text-align:center;text-anchor:middle;fill:#070;stroke-width:0.264583" x="5.416" y="5.867" >6</tspan>
</text>
<text style="font-size:5.30556px;font-family:sans-serif;stroke:none" x="-34.71" y="6.903" transform="rotate(-90)" >
<tspan style="font-size:3.18335px;stroke-width:0.132642" x="-34.71" y="6.903" >Ogród</tspan>
<tspan style="font-size:5.6444px;font-family:sans-serif;-inkscape-font-specification:'sans-serif, Normal';stroke-width:0.132642" x="-34.71" y="13.54" >LAMPA1</tspan>
</text>
<rect width="17.8" height=".2" x=".1" y="7" />
<rect width=".2" height="7" x="10" y=".1" />
<path d="m 14.94,6.6 h -0.6 c -0.33,0 -0.6,-0.269 -0.6,-0.599 v -1.5 h 1.8 v 1.5 c 0,0.33 -0.27,0.599 -0.6,0.599 m -2.4,-2.4 h 4.19 L 14.94,2.913 V 1.799 c 0,-0.482 -0.32,-1.1995 -1.2,-1.1995 -0.88,0 -1.2,0.7175 -1.2,1.1995 0,0.136 -0.12,0.301 -0.31,0.301 H 11.94 V 0.8995 h -0.6 V 3.6 h 0.6 V 2.7 h 0.29 c 0.67,0 0.91,-0.537 0.91,-0.901 0,-0.102 0,-0.6 0.6,-0.6 0.54,0 0.6,0.463 0.6,0.6 v 1.114 z" style="stroke-width:0.264633" />
</svg>