<svg width="54" height="54" xmlns="http://www.w3.org/2000/svg"><path d="M 2,2 V 16 H 16 V 2 Z m 16,0 v 8 h 2 v 2 h -2 v 4 h 2 v -2 h 2 v 6 h 2 v -2 h 2 V 16 H 24 V 8 H 22 V 6 H 20 V 2 Z m 8,14 h 2 V 14 H 26 Z M 30,2 v 2 h 4 v 2 h 2 V 4 H 34 V 2 Z m 8,0 V 4 16 H 52 V 2 Z M 4,4 H 14 V 14 H 4 Z m 20,0 v 2 h 2 v 6 h 2 v -2 h 2 v 2 h -2 v 2 h 2 v 4 h 2 v -6 h 2 v 4 h 2 V 8 h -2 v 2 H 32 V 8 h 2 V 6 H 30 V 8 H 28 V 4 Z M 40,4 H 50 V 14 H 40 Z M 6,6 v 6 h 6 V 6 Z m 36,0 v 6 h 6 V 6 Z M 2,18 v 4 h 8 v 4 h 2 v -6 h 4 v -2 h -6 v 2 H 6 v -2 z m 24,0 v 2 h 2 v -2 z m 6,0 v 4 h -2 v -2 h -2 v 4 h 2 v 2 h 2 v -2 h 2 v -2 h 2 v -2 h -2 v -2 z m 2,6 v 2 h 2 v -2 z m 6,-6 v 2 h 2 v -2 z m 4,0 v 2 h -2 v 2 0 h -4 v 6 h 4 v -2 h -2 v -2 h 2 v 2 h 2 v -2 h 2 v 2 h -2 v 2 h 4 v 2 h 2 v -2 h 2 v -2 h -2 v 0 -2 h -2 v -2 h 2 v -2 h 2 v -2 z m 4,12 h -4 v -2 h -2 v 2 h -4 v 2 h 2 v 2 h -8 v -2 h 4 v -4 h -6 v 2 h -2 v -2 h -2 v 2 h -2 v -2 h -4 v -2 h -2 v -2 h 2 v 2 h 2 v -2 h 2 v -2 h -4 v -2 h -2 v 2 h -4 v 2 h 2 v 2 h -2 v 2 h 4 v 2 h 6 v 2 h -2 v 2 h 4 v 2 h 2 v -2 h -2 V 32 H 30 v 2 h 2 v 2 h 2 v 4 h -2 v 2 h 2 v 2 h 2 v 4 h 4 v 2 h 6 v 2 h 6 v -2 h -2 v -4 h 2 v -2 h -4 v -2 h 2 v -2 h -6 v -4 h 4 v -2 h 2 V 32 H 48 Z M 34,44 h -4 v 2 H 32 v 2 h -2 v 2 h 2 v 2 h 2 z m -4,4 v -2 h -2 v -6 h -2 v 2 h -2 v 2 h 2 v 2 h -2 V 44 H 22 V 40 h 2 v -2 h -4 v 2 h -2 v 4 h 4 v 4 H 18 v 4 h 4 v -2 h 2 V 48 Z M 20,38 v -6 h -2 v 6 z M 46,20 h 2 v 2 H 46 Z M 4,24 v 2 H 2 V 30 h 4 v 4 H 2 v 2 h 8 V 34 H 8 v -4 h 2 v 4 h 4 v 2 h 2 V 34 H 14 v -2 h 4 V 30 H 14 V 28 H 8 V 26 H 6 v -2 z m 22,0 v 2 h 2 v -2 z m 0,2 h -2 v 2 h 2 z M 12,30 h 2 v 2 h -2 z m 32,2 h 2 v 2 h -2 z m -16,4 v 4 h 2 v -4 z m 8,0 h 6 v 6 H 36 Z M 2,38 V 52 H 16 V 38 Z m 36,0 v 2 h 2 V 38 Z M 4,40 h 10 V 50 H 4 Z m 2,2 v 6 h 6 v -6 z m 36,2 h 4 v 2 h 2 v 2 h -2 v 0 -2 h -2 v 2 h -4 v -2 h 2 z" /></svg>
