<svg width="18mm" height="37.2mm" viewBox="0 0 18 37.2" xmlns="http://www.w3.org/2000/svg" >
<path style="fill:#def;stroke-width:0.3;" d="m 10.1,0.1 6.56,0 c 0.86,0 1.23,0.51 1.24,1.37 V 7.1 h -7.8 z" />
<rect width="17.8" height="37" x="0.1" y="0.1" style="fill:none;stroke:#000;stroke-width:0.2;stroke-miterlimit:4;" ry="1.143" rx="1.143" />
<text style="font-size:6.35px;font-family:sans-serif;text-align:end;text-anchor:end;fill:#070;stroke:none" x="9.35" y="6.07" >
<tspan style="font-size:6.35px;text-align:end;text-anchor:end;fill:#070;stroke-width:0.264592" x="9.35" y="6.07" >26</tspan>
</text>
<rect width="17.8" height=".2" x="0.1" y="7" />
<rect width="0.2" height="7" x="10" y=".1" />
<text style="font-weight:bold;font-size:4.20185px;font-family:sans-serif;-inkscape-font-specification:'sans-serif, Bold';fill:#880000;stroke-width:0.26461" x="10.16" y="19.82" >
<tspan style="font-weight:bold;font-size:4.20185px;font-family:sans-serif;-inkscape-font-specification:'sans-serif, Bold';fill:#880000;stroke-width:0.26461" x="10.16" y="19.82" >L1</tspan>
</text>
<text style="font-weight:bold;font-size:4.20185px;font-family:sans-serif;-inkscape-font-specification:'sans-serif, Bold';stroke-width:0.26461" x="9.894" y="27.05" >
<tspan style="font-weight:bold;font-size:4.20185px;font-family:sans-serif;-inkscape-font-specification:'sans-serif, Bold';stroke-width:0.26461" x="9.894" y="27.05" >L2</tspan>
</text>
<text style="font-weight:bold;font-size:4.20185px;font-family:sans-serif;-inkscape-font-specification:'sans-serif, Bold';fill:#777777;stroke-width:0.26461" x="9.909" y="34.25" >
<tspan style="font-weight:bold;font-size:4.20185px;font-family:sans-serif;-inkscape-font-specification:'sans-serif, Bold';fill:#777777;stroke-width:0.26461" x="9.909" y="34.25" >L3</tspan>
</text>
<circle style="fill:#f00;stroke-width:0.3" cx="5.468" cy="18.32" r="2" />
<circle style="fill:#ff0;stroke-width:0.3" cx="5.468" cy="25.53" r="2" />
<circle style="fill:#008000;stroke-width:0.3" cx="5.468" cy="32.75" r="2" />
<text style="font-size:3.175px;font-family:sans-serif;-inkscape-font-specification:'sans-serif, Normal';text-align:center;text-anchor:middle;stroke-width:0.2646" x="15.09" y="11.01" >
<tspan x="8.994" y="11.01" >
<tspan style="font-size:3.175px;font-family:sans-serif;-inkscape-font-specification:'sans-serif, Normal';text-align:center;text-anchor:middle;stroke-width:0.2646" x="8.994" y="11.01" >kontrola</tspan>
</tspan>
<tspan x="8.994" y="14.98" >faz</tspan>
</text>
<path d="M 11.69,5.535 12.08,5.919 12.57,5.431 12.18,5.043 M 14,1.963 c -0.91,0 -1.64,0.734 -1.64,1.638 0,0.903 0.73,1.636 1.64,1.636 0.9,0 1.64,-0.733 1.64,-1.636 C 15.64,2.695 14.9,1.963 14,1.963 m 2.18,1.911 H 17 V 3.327 H 16.18 M 15.42,5.431 15.92,5.919 16.3,5.535 15.81,5.044 M 16.3,1.691 15.92,1.309 15.42,1.797 15.81,2.185 M 14.27,0.5995 H 13.72 V 1.418 h 0.55 m -1.7,0.378 -0.49,-0.487 -0.39,0.382 0.49,0.494 0.39,-0.389 M 11,3.874 h 0.81 V 3.327 H 11 m 3.27,2.456 H 13.72 V 6.6 h 0.55" style="stroke-width:0.264602" />
</svg>
