<svg width="54mm" height="37.2mm" viewBox="0 0 54 37.2" xmlns="http://www.w3.org/2000/svg" >
<path style="fill:#def;stroke-width:0.3" d="m 18,0.1 34.95,0.029 c 0.72,6e-4 0.97,0.79 0.97,1.37 V 7.1 H 18 Z" />
<rect width="53.82" height="37" x="0.1" y="0.1" style="fill:none;stroke:#000;stroke-width:0.2;stroke-miterlimit:4;" ry="1.143" rx="1.143" />
<text style="font-size:6.35px;font-family:sans-serif;text-align:end;text-anchor:end;fill:#070;stroke:none" x="5.812" y="5.867" >
<tspan style="font-size:6.35px;text-align:center;text-anchor:middle;fill:#070;stroke-width:0.264591" x="9.006" y="5.867" >9</tspan>
</text>
<text style="font-size:10.0197px;font-family:sans-serif;stroke:none" x="11.73" y="17.42" >
<tspan style="font-size:6.01185px" x="11.73" y="17.42" >Licznik</tspan>
<tspan x="11.73" y="29.96" style="font-size:7.7611px;font-family:sans-serif;-inkscape-font-specification:'sans-serif, Normal'" >ENERGII</tspan>
</text>
<rect width="53.8" height=".2" x="0.1" y="7" />
<rect width="0.2" height="7" x="17.9" y="0.1" />
<path d="m 38.66,3.3 c 0,-1.492 -1.2,-2.7011 -2.7,-2.7011 -1.49,0 -2.7,1.2091 -2.7,2.7011 0,1.177 0.75,2.172 1.8,2.55 v 0.751 h 0.6 V 5.983 c 0.12,0.02 0.2,0.02 0.3,0.02 0.11,0 0.2,0 0.31,-0.02 v 0.618 h 0.6 V 5.85 C 37.91,5.472 38.66,4.477 38.66,3.3 m -2.7,2.1 c -1.16,0 -2.1,-0.942 -2.1,-2.1 0,-1.158 0.94,-2.101 2.1,-2.101 1.16,0 2.1,0.943 2.1,2.101 0,1.158 -0.94,2.1 -2.1,2.1 m -1.2,-3.3 h 2.4 v 0.6 h -2.4 V 2.1 M 36.19,3 35.29,3.901 35.66,4.275 35.29,4.65 35.73,5.1 36.64,4.2 36.27,3.825 36.64,3.45 Z" style="stroke-width:0.264633" />
</svg>