<svg width="54mm" height="37.2mm" viewBox="0 0 54 37.2" xmlns="http://www.w3.org/2000/svg" >
<path style="fill:#def;stroke-width:0.3;" d="m 10.1,0.1 42.85,0.029 c 0.72,0 0.97,0.79 0.97,1.3696 l -0,5.601 H 10.1 Z" />
<rect width="53.82" height="37" x="0.1" y="0.1" style="fill:none;stroke:#000;stroke-width:0.2;stroke-miterlimit:4;" ry="1.143" rx="1.143" />
<text style="font-size:6.35px;font-family:sans-serif;text-align:end;text-anchor:end;fill:#007700;stroke:none" x="9.32" y="6.07" >
<tspan style="font-size:6.35px;text-align:end;text-anchor:end;fill:#007700;stroke-width:0.264591" x="9.32" y="6.07" >17</tspan>
</text>
<text style="font-size:10.0197px;font-family:sans-serif;stroke:none" x="11.73" y="17.42" >
<tspan style="font-size:6.01185px" x="11.73" y="17.42" >Licznik</tspan>
<tspan x="11.73" y="29.96" style="font-size:7.7611px;font-family:sans-serif;-inkscape-font-specification:'sans-serif, Normal'" >ENERGII</tspan>
</text>
<rect width="53.8" height=".2" x="0.1" y="7" />
<rect width="0.2" height="7" x="10" y=".1" />
<path d="m 34.71,3.3 c 0,-1.492 -1.2,-2.7012 -2.7,-2.7012 -1.49,0 -2.7,1.2092 -2.7,2.7012 0,1.177 0.75,2.172 1.8,2.55 v 0.751 h 0.6 V 5.983 c 0.12,0.02 0.2,0.02 0.3,0.02 0.11,0 0.2,0 0.31,-0.02 v 0.618 h 0.6 V 5.85 C 33.96,5.472 34.71,4.477 34.71,3.3 m -2.7,2.1 c -1.16,0 -2.1,-0.942 -2.1,-2.1 0,-1.158 0.94,-2.101 2.1,-2.101 1.16,0 2.1,0.943 2.1,2.101 0,1.158 -0.94,2.1 -2.1,2.1 m -1.2,-3.3 h 2.4 v 0.6 h -2.4 V 2.1 M 32.24,3 31.34,3.901 31.71,4.275 31.34,4.65 31.78,5.1 32.69,4.2 32.32,3.825 32.69,3.45 Z" style="stroke-width:0.264633" />
</svg>
