<svg width="18mm" height="37.2mm" viewBox="0 0 18 37.2" xmlns="http://www.w3.org/2000/svg" >
<path style="fill:#def;stroke-width:0.3;" d="m 10.1,0.1 6.56,0 c 0.86,0 1.23,0.51 1.24,1.37 V 7.1 h -7.8 z" />
<rect width="17.8" height="37" x="0.1" y="0.1" style="fill:none;stroke:#000;stroke-width:0.2;stroke-miterlimit:4;" ry="1.143" rx="1.143" />
<text style="font-size:6.35px;font-family:sans-serif;text-align:end;text-anchor:end;fill:#007700;stroke:none" x="9.35" y="6.07" >
<tspan style="font-size:6.35px;text-align:end;text-anchor:end;fill:#007700;stroke-width:0.264592" x="9.35" y="6.07" >18</tspan>
</text>
<text style="font-size:5.30567px;font-family:sans-serif;stroke:none" x="-34.88" y="6.873" transform="rotate(-90)" >
<tspan style="font-size:3.18341px;stroke-width:0.132647" x="-34.88" y="6.873" >Licznik</tspan>
<tspan style="font-size:4.9389px;font-family:sans-serif;-inkscape-font-specification:'sans-serif, Normal';stroke-width:0.132647" x="-34.88" y="13.5" >ENERGII</tspan>
</text>
<rect width="17.8" height=".2" x="0.1" y="7" />
<rect width="0.2" height="7" x="10" y=".1" />
<path d="m 16.7,3.302 c 0,-1.49 -1.2,-2.7035 -2.7,-2.7035 -1.49,0 -2.7,1.2135 -2.7,2.7035 0,1.18 0.75,2.17 1.8,2.549 v 0.75 h 0.6 V 5.982 c 0.12,0 0.2,0 0.3,0 0.11,0 0.2,0 0.31,0 v 0.619 h 0.6 V 5.852 c 1.04,-0.38 1.79,-1.37 1.79,-2.55 m -2.7,2.1 c -1.16,0 -2.1,-0.94 -2.1,-2.1 0,-1.16 0.94,-2.1 2.1,-2.1 1.16,0 2.1,0.94 2.1,2.1 0,1.16 -0.94,2.1 -2.1,2.1 M 12.8,2.101 h 2.4 v 0.601 h -2.4 v -0.6 m 1.43,0.9 -0.9,0.9 0.37,0.37 -0.37,0.38 0.44,0.45 0.91,-0.9 -0.37,-0.38 0.37,-0.37 z" style="stroke-width:0.264633" />
</svg>
