<svg width="45mm" height="37.2mm" viewBox="0 0 45 37.2" xmlns="http://www.w3.org/2000/svg" >
<rect width="44.8" height="37" x="0.07" y="0.1" style="fill:none;stroke:#000;stroke-width:0.2;stroke-miterlimit:4;" ry="1.143" rx="1.143" />
<path d="M 11.65,4.631 A 3.103,3.103 0 0 0 8.53,7.747 V 29.46 c 0,1.79 1.373,3.11 3.12,3.11 h 21.7 a 3.103,3.103 0 0 0 3.12,-3.11 V 7.747 c 0,-1.69 -1.32,-3.116 -3.12,-3.116 H 11.65 M 22.53,7.43 A 11.18,11.18 0 0 1 33.67,18.68 11.18,11.18 0 0 1 22.53,29.83 11.18,11.18 0 0 1 11.33,18.68 11.18,11.18 0 0 1 22.53,7.43 m 0,2.8 a 2.096,2.096 0 0 0 -2.12,2.11 2.096,2.096 0 0 0 2.12,2.12 2.096,2.096 0 0 0 2.06,-2.12 2.096,2.096 0 0 0 -2.06,-2.11 m -6.34,6.34 a 2.096,2.096 0 0 0 -2.06,2.11 c 0,1.11 0.9,2.06 2.06,2.06 a 2.096,2.096 0 0 0 2.11,-2.06 2.096,2.096 0 0 0 -2.11,-2.11 m 12.62,0 a 2.096,2.096 0 0 0 -2.11,2.11 2.096,2.096 0 0 0 2.11,2.06 2.096,2.096 0 0 0 2.06,-2.06 2.096,2.096 0 0 0 -2.06,-2.11 z" style="stroke-width:0.264605;fill:#b3b3b3" />
</svg>