<svg width="36mm" height="37.2mm" viewBox="0 0 36 37.2" xmlns="http://www.w3.org/2000/svg" >
<rect width="35.8" height="37" x="0.07" y="0.1" style="fill:none;stroke:#000;stroke-width:0.2;stroke-miterlimit:4;" ry="1.143" rx="1.143" />
<path d="M 7.145,4.641 A 3.103,3.103 0 0 0 4.029,7.757 V 29.47 c 0,1.79 1.373,3.11 3.116,3.11 H 28.85 a 3.103,3.103 0 0 0 3.12,-3.11 V 7.757 c 0,-1.69 -1.32,-3.116 -3.12,-3.116 H 7.145 M 18.03,7.44 A 11.18,11.18 0 0 1 29.17,18.69 11.18,11.18 0 0 1 18.03,29.84 11.18,11.18 0 0 1 6.828,18.69 11.18,11.18 0 0 1 18.03,7.44 m 0,2.8 a 2.096,2.096 0 0 0 -2.12,2.11 2.096,2.096 0 0 0 2.12,2.12 2.096,2.096 0 0 0 2.06,-2.12 2.096,2.096 0 0 0 -2.06,-2.11 m -6.34,6.34 a 2.096,2.096 0 0 0 -2.062,2.11 c 0,1.11 0.902,2.06 2.062,2.06 a 2.096,2.096 0 0 0 2.11,-2.06 2.096,2.096 0 0 0 -2.11,-2.11 m 12.62,0 a 2.096,2.096 0 0 0 -2.11,2.11 2.096,2.096 0 0 0 2.11,2.06 2.096,2.096 0 0 0 2.06,-2.06 2.096,2.096 0 0 0 -2.06,-2.11 z" style="stroke-width:0.264605" />
</svg>