<svg width="54mm" height="37.2mm" viewBox="0 0 54 37.2" xmlns="http://www.w3.org/2000/svg" >
<path style="fill:#f00;stroke-width:0.3" d="m 18,0.1 34.95,0.029 c 0.72,6e-4 0.97,0.79 0.97,1.37 V 7.1 L 18,7.1 Z" />
<rect width="53.82" height="37" x="0.1" y="0.1" style="fill:none;stroke:#000;stroke-width:0.2;stroke-miterlimit:4;" ry="1.143" rx="1.143" />
<text style="font-size:6.35px;font-family:sans-serif;text-align:end;text-anchor:end;fill:#070;stroke:none" x="5.819" y="5.899" >
<tspan style="font-size:6.35px;text-align:center;text-anchor:middle;fill:#070;stroke-width:0.264591" x="9.013" y="5.899" >22</tspan>
</text>
<text style="font-size:10.0197px;font-family:sans-serif;stroke:none" x="2.886" y="17.42" >
<tspan style="font-size:6.01185px" x="2.886" y="17.42" >Rozdzielnica</tspan>
<tspan x="2.886" y="29.96" style="font-size:6.35px;font-family:sans-serif;-inkscape-font-specification:'sans-serif, Normal';" >FOTOWOLTAIKA</tspan>
</text>
<rect width="53.8" height=".2" x="0.1" y="7" />
<rect width="0.2" height="7" x="17.9" y="0.1" />
<path style="fill:#fff;stroke-width:0.264589" d="M 28.73,0.6002 V 6.6 h 6 V 0.6002 Z M 29.4,1.267 h 4.66 V 5.934 H 29.4 Z M 30.71,1.6 V 4 h 0.59 v 1.599 l 1.41,-2.596 h -0.7 L 32.71,1.6 Z m 0.4,0.4 h 0.96 l -0.71,1.4 h 0.75 L 31.73,4.127 V 3.598 h -0.61 z" />
<path d="m 37.6,4.81 h 2.29 V 3.9 h -2.1 l -0.2,0.91 m 2.9,0 h 2.3 L 42.6,3.9 H 40.5 V 4.81 M 42.92,5.4 H 40.5 v 1.2 h 2.7 L 42.92,5.4 M 37.2,6.6 h 2.7 V 5.4 H 37.47 L 37.2,6.6 m 2.7,-4.19 h 0.6 V 3.3 H 39.9 V 2.41 M 41.32,2.17 41.75,1.74 42.39,2.38 41.96,2.8 41.32,2.17 M 38,2.38 38.64,1.74 39.07,2.17 38.43,2.8 38,2.38 M 37.5,0.6 h 0.89 V 1.2 H 37.5 V 0.6 m 4.5,0 h 0.89 V 1.2 H 42 V 0.6 m -1.8,1.5 c 0.83,0 1.5,-0.67 1.5,-1.5 h -3 c 0,0.83 0.66,1.5 1.5,1.5 z" style="fill:#fff;stroke-width:0.264533" />
</svg>