<svg width="54mm" height="37.2mm" viewBox="0 0 54 37.2" xmlns="http://www.w3.org/2000/svg" >
<path style="fill:#f00;stroke-width:0.3" d="m 18,0.1 34.95,0.029 c 0.72,6e-4 0.97,0.79 0.97,1.37 V 7.1 L 18,7.1 Z" />
<rect width="53.82" height="37" x="0.1" y="0.1" style="fill:none;stroke:#000;stroke-width:0.2;stroke-miterlimit:4;" ry="1.143" rx="1.143" />
<text style="font-size:6.35px;font-family:sans-serif;text-align:end;text-anchor:end;fill:#070;stroke:none" x="5.679" y="5.867" >
<tspan style="font-size:6.35px;text-align:center;text-anchor:middle;fill:#070;stroke-width:0.264591" x="8.873" y="5.867" >17</tspan>
</text>
<text style="font-size:10.0197px;font-family:sans-serif;stroke:none" x="9.704" y="17.42" >
<tspan style="font-size:6.01185px" x="9.704" y="17.42" >Rozdzielnica</tspan>
<tspan x="9.704" y="29.96" style="font-size:7.7611px;font-family:sans-serif;-inkscape-font-specification:'sans-serif, Normal'" >SERWER</tspan>
</text>
<rect width="53.8" height=".2" x="0.1" y="7" />
<rect width="0.2" height="7" x="17.9" y="0.1" />
<path d="M 28.99,0.6 H 35 v 6 h -6 v -6 m 0.67,0.667 v 4.667 h 4.67 V 1.267 Z" style="fill:#fff;stroke-width:0.264589" />
<path d="M 30.99,1.6 H 33 L 32.28,3.003 H 33 L 31.58,5.599 V 4 H 30.99 V 1.6 m 0.4,0.4 v 1.598 h 0.63 V 4.127 L 32.4,3.4 H 31.64 L 32.36,2 Z" style="fill:#fff;stroke-width:0.264368" />
<path d="m 38.28,0.6028 h 4.37 a 0.2725,0.2725 0 0 1 0.27,0.2699 V 1.963 a 0.2725,0.2725 0 0 1 -0.27,0.27 H 38.28 A 0.2725,0.2725 0 0 1 38.03,1.963 V 0.8727 a 0.2725,0.2725 0 0 1 0.25,-0.2699 m 0,2.1802 h 4.37 a 0.2725,0.2725 0 0 1 0.27,0.27 v 1.09 a 0.2725,0.2725 0 0 1 -0.27,0.28 h -4.37 a 0.2725,0.2725 0 0 1 -0.25,-0.28 v -1.09 a 0.2725,0.2725 0 0 1 0.25,-0.27 m 0,2.18 h 4.37 a 0.2725,0.2725 0 0 1 0.27,0.27 V 6.326 A 0.2725,0.2725 0 0 1 42.66,6.597 H 38.28 A 0.2725,0.2725 0 0 1 38.03,6.326 V 5.233 a 0.2725,0.2725 0 0 1 0.25,-0.27 m 1.37,-3.27 h 0.27 v -0.55 h -0.27 v 0.55 m 0,2.18 h 0.27 v -0.54 h -0.27 v 0.54 m 0,2.17 h 0.27 v -0.54 h -0.27 v 0.54 m -1.09,-4.9 v 0.55 h 0.55 v -0.55 h -0.55 m 0,2.19 v 0.54 h 0.55 v -0.54 h -0.55 m 0,2.17 v 0.54 h 0.55 v -0.54 z" style="fill:#fff;stroke-width:0.264481" />
</svg>