<?xml version="1.0" encoding="UTF-8" standalone="no"?>
<svg
   width="54mm"
   height="37.2mm"
   viewBox="0 0 54 37.2"
   version="1.1"
   id="svg2327"
   xml:space="preserve"
   xmlns="http://www.w3.org/2000/svg"
   xmlns:svg="http://www.w3.org/2000/svg"><defs
     id="defs2331" /><path
     style="fill:#f00;stroke-width:0.3;"
     d="m 10.1,0.1 42.85,0.029 c 0.72,0 0.97,0.79 0.97,1.3696 l -0,5.601 H 10.1 Z"
     id="path2303" /><rect
     width="53.82"
     height="37"
     x="0.1"
     y="0.1"
     style="fill:none;stroke:#000;stroke-width:0.2;stroke-miterlimit:4;"
     ry="1.143"
     rx="1.143"
     id="rect2305" /><text
     style="font-size:6.35px;font-family:sans-serif;text-align:end;text-anchor:end;fill:#070;stroke:none"
     x="9.32"
     y="6.07"
     id="text2309"><tspan
       style="font-size:6.35px;text-align:end;text-anchor:end;fill:#070;stroke-width:0.264591"
       x="9.32"
       y="6.07"
       id="tspan2307">17</tspan></text><text
     style="font-size:10.0197px;font-family:sans-serif;stroke:none"
     x="9.704"
     y="17.42"
     id="text2315"><tspan
       style="font-size:6.01185px"
       x="9.704"
       y="17.42"
       id="tspan2311">Rozdzielnica</tspan><tspan
       x="9.704"
       y="29.96"
       style="font-size:7.7611px;font-family:sans-serif;-inkscape-font-specification:'sans-serif, Normal'"
       id="tspan2313">SERWER</tspan></text><rect
     width="53.8"
     height=".2"
     x="0.1"
     y="7"
     id="rect2317" /><rect
     width="0.2"
     height="7"
     x="10"
     y=".1"
     id="rect2319" /><path
     d="m 24.58,0.5999 h 6.01 V 6.6 h -6 V 0.5999 m 0.67,0.6671 v 4.667 h 4.66 V 1.267 Z"
     style="fill:#fff;stroke-width:0.264589"
     id="path2321" /><path
     d="m 26.58,1.6 h 2 l -0.71,1.403 h 0.71 L 27.17,5.599 V 4 H 26.58 V 1.6 M 26.98,2 V 3.598 H 27.6 V 4.127 L 27.98,3.4 H 27.23 L 27.94,2 Z"
     style="fill:#fff;stroke-width:0.264368"
     id="path2323" /><path
     d="m 33.87,0.6026 h 4.37 a 0.2725,0.2725 0 0 1 0.27,0.27 V 1.963 a 0.2725,0.2725 0 0 1 -0.27,0.27 H 33.87 A 0.2725,0.2725 0 0 1 33.61,1.963 V 0.8726 a 0.2725,0.2725 0 0 1 0.26,-0.27 m 0,2.1804 h 4.37 a 0.2725,0.2725 0 0 1 0.27,0.27 v 1.09 a 0.2725,0.2725 0 0 1 -0.27,0.28 h -4.37 a 0.2725,0.2725 0 0 1 -0.26,-0.28 v -1.09 a 0.2725,0.2725 0 0 1 0.26,-0.27 m 0,2.18 h 4.37 a 0.2725,0.2725 0 0 1 0.27,0.27 V 6.326 A 0.2725,0.2725 0 0 1 38.24,6.597 H 33.87 A 0.2725,0.2725 0 0 1 33.61,6.326 V 5.233 a 0.2725,0.2725 0 0 1 0.26,-0.27 m 1.37,-3.27 h 0.27 v -0.55 h -0.27 v 0.55 m 0,2.18 h 0.27 v -0.54 h -0.27 v 0.54 m 0,2.17 h 0.27 v -0.54 h -0.27 v 0.54 m -1.09,-4.9 v 0.55 h 0.55 v -0.55 h -0.55 m 0,2.19 v 0.54 h 0.55 v -0.54 h -0.55 m 0,2.17 v 0.54 h 0.55 v -0.54 z"
     id="path2373"
     style="fill:#ffffff;stroke-width:0.264481" /></svg>
