<svg width="54mm" height="37.2mm" viewBox="0 0 54 37.2" xmlns="http://www.w3.org/2000/svg" >
<path style="fill:#f00;stroke-width:0.3" d="m 18,0.1 34.95,0.029 c 0.72,6e-4 0.97,0.79 0.97,1.37 V 7.1 L 18,7.1 Z" />
<rect width="53.82" height="37" x="0.1" y="0.1" style="fill:none;stroke:#000;stroke-width:0.2;stroke-miterlimit:4;" ry="1.143" rx="1.143" />
<text style="font-size:6.35px;font-family:sans-serif;text-align:center;text-anchor:middle;fill:#070;stroke:none" x="5.666" y="5.867" >
<tspan style="font-size:6.35px;text-align:center;text-anchor:middle;fill:#070;stroke-width:0.264591" x="8.997" y="5.867" >26</tspan>
</text>
<text style="font-size:10.0197px;font-family:sans-serif;stroke:none" x="6.476" y="17.42" >
<tspan style="font-size:6.01185px" x="6.476" y="17.42" >Rozdzielnica</tspan>
<tspan x="6.476" y="29.96" style="font-size:7.7611px;font-family:sans-serif;-inkscape-font-specification:'sans-serif, Normal'" >AKWARIUM</tspan>
</text>
<rect width="53.8" height=".2" x="0.1" y="7" />
<rect width="0.2" height="7" x="17.9" y="0.1" />
<g transform="translate(3.63,5e-4)">
<path style="fill:#fff;stroke-width:0.264589" d="m 24.59,0.6 v 6 h 6 v -6 z m 0.67,0.667 h 4.66 V 5.934 H 25.26 Z M 26.58,1.6 V 4 h 0.59 V 5.599 L 28.58,3.003 H 27.87 L 28.58,1.6 Z m 0.4,0.4 h 0.96 l -0.71,1.4 h 0.75 L 27.6,4.127 V 3.598 h -0.62 z" />
<path d="m 36.06,6.6 0.3,-1.19 c -1.3,-0.1 -2.47,-0.64 -2.8,-1.37 0,0.19 -0.1,0.36 -0.17,0.5 C 33.12,5 32.59,5 32.05,5 c 0.44,0 0.6,-0.62 0.6,-1.397 0,-0.773 -0.16,-1.402 -0.6,-1.402 0.54,0 1.07,0 1.34,0.469 0.1,0.136 0.13,0.309 0.17,0.501 0.26,-0.569 1.02,-1.029 1.96,-1.243 L 34.86,0.5992 c 0.8,0 1.6,0 2.13,0.268 0.45,0.2238 0.71,0.6418 0.95,1.0848 1.17,0.28 2.13,0.913 2.13,1.651 C 40.07,4.36 39.06,5 37.86,5.27 37.53,5.71 37.21,6.12 36.93,6.34 36.59,6.6 36.33,6.6 36.06,6.6 m 2,-3.599 a 0.4006,0.4006 0 0 0 -0.4,0.402 0.4006,0.4006 0 0 0 0.4,0.401 0.4006,0.4006 0 0 0 0.4,-0.401 0.4006,0.4006 0 0 0 -0.4,-0.402 z" style="fill:#fff;stroke-width:0.264649" />
</g>
</svg>