<svg width="54mm" height="37.2mm" viewBox="0 0 54 37.2" xmlns="http://www.w3.org/2000/svg" >
<path style="fill:#f00;stroke-width:0.3;" d="m 10.1,0.1 42.85,0.029 c 0.72,0 0.97,0.79 0.97,1.3696 l -0,5.601 H 10.1 Z" />
<rect width="53.82" height="37" x="0.1" y="0.1" style="fill:none;stroke:#000;stroke-width:0.2;stroke-miterlimit:4;" ry="1.143" rx="1.143" />
<text style="font-size:6.35px;font-family:sans-serif;text-align:end;text-anchor:end;fill:#070;stroke:none" x="9.32" y="6.07" >
<tspan style="font-size:6.35px;text-align:end;text-anchor:end;fill:#070;stroke-width:0.264591" x="9.32" y="6.07" >17</tspan>
</text>
<text style="font-size:10.0197px;font-family:sans-serif;stroke:none" x="1.883" y="17.42" >
<tspan style="font-size:6.01185px" x="1.883" y="17.42" >Rozdzielnica</tspan>
<tspan x="1.883" y="29.96" style="font-size:7.0556px;font-family:sans-serif;-inkscape-font-specification:'sans-serif, Normal';" >FOTOWOLAIKA</tspan>
</text>
<rect width="53.8" height=".2" x="0.1" y="7" />
<rect width="0.2" height="7" x="10" y=".1" />
<path d="m 24.58,0.5999 h 6.01 V 6.6 h -6 V 0.5999 m 0.67,0.6671 v 4.667 h 4.66 V 1.267 Z" style="fill:#fff;stroke-width:0.264589" />
<path d="m 26.58,1.6 h 2 l -0.71,1.403 h 0.71 L 27.17,5.599 V 4 H 26.58 V 1.6 M 26.98,2 V 3.598 H 27.6 V 4.127 L 27.98,3.4 H 27.23 L 27.94,2 Z" style="fill:#fff;stroke-width:0.264368" />
<path d="m 33.46,4.81 h 2.3 V 3.9 h -2.1 l -0.2,0.91 m 2.9,0 h 2.3 L 38.46,3.9 h -2.1 v 0.91 m 2.43,0.59 h -2.43 v 1.2 h 2.7 L 38.79,5.4 m -5.73,1.2 h 2.7 V 5.4 h -2.43 l -0.27,1.2 m 2.7,-4.19 h 0.6 V 3.3 h -0.6 V 2.41 M 37.19,2.17 37.62,1.74 38.25,2.38 37.83,2.8 37.19,2.17 M 33.87,2.38 34.51,1.74 34.93,2.17 34.3,2.8 33.87,2.38 M 33.36,0.5998 h 0.9 V 1.2 h -0.9 V 0.5998 m 4.5,0 h 0.9 V 1.2 h -0.9 V 0.5998 M 36.06,2.1 c 0.83,0 1.5,-0.67 1.5,-1.5002 h -3 C 34.56,1.43 35.23,2.1 36.06,2.1 Z" style="fill:#fff;stroke-width:0.264533" />
</svg>