<svg width="54mm" height="37.2mm" viewBox="0 0 54 37.2" xmlns="http://www.w3.org/2000/svg" >
<path style="fill:#f00;stroke-width:0.3;" d="m 10.1,0.1 42.85,0.029 c 0.72,0 0.97,0.79 0.97,1.3696 l -0,5.601 H 10.1 Z" />
<rect width="53.82" height="37" x="0.1" y="0.1" style="fill:none;stroke:#000;stroke-width:0.2;stroke-miterlimit:4;" ry="1.143" rx="1.143" />
<text style="font-size:6.35px;font-family:sans-serif;text-align:end;text-anchor:end;fill:#070;stroke:none" x="9.32" y="6.07" >
<tspan style="font-size:6.35px;text-align:end;text-anchor:end;fill:#070;stroke-width:0.264591" x="9.32" y="6.07" >17</tspan>
</text>
<text style="font-size:10.0197px;font-family:sans-serif;stroke:none" x="9.666" y="17.42" >
<tspan style="font-size:6.01185px" x="9.666" y="17.42" >Rozdzielnica</tspan>
<tspan x="9.666" y="29.96" style="font-size:7.7611px;font-family:sans-serif;-inkscape-font-specification:'sans-serif, Normal'" >GARAŻ</tspan>
</text>
<rect width="53.8" height=".2" x="0.1" y="7" />
<rect width="0.2" height="7" x="10" y=".1" />
<path d="m 24.58,0.5999 h 6.01 V 6.6 h -6 V 0.5999 m 0.67,0.6671 v 4.667 h 4.66 V 1.267 Z" style="fill:#fff;stroke-width:0.264589" />
<path d="M 38.67,0.9748 C 38.52,0.7562 38.38,0.5995 38.13,0.5995 H 34 c -0.25,0 -0.47,0.1567 -0.54,0.3753 L 32.68,3.225 v 3.001 c 0,0.205 0.17,0.374 0.37,0.374 h 0.37 c 0.21,0 0.38,-0.169 0.38,-0.374 V 5.85 h 4.51 v 0.376 c 0,0.205 0.17,0.374 0.37,0.374 h 0.37 c 0.21,0 0.39,-0.169 0.39,-0.374 V 3.225 L 38.67,0.9748 M 34.14,1.348 h 3.83 l 0.42,1.169 h -4.68 l 0.4,-1.169 M 38.68,5.1 H 33.42 V 3.225 h 5.26 V 5.1 M 34.36,3.599 c 0.31,0 0.56,0.253 0.56,0.564 0,0.311 -0.25,0.562 -0.56,0.562 -0.29,0 -0.56,-0.251 -0.56,-0.562 0,-0.311 0.26,-0.564 0.56,-0.564 m 3.39,0 c 0.32,0 0.57,0.253 0.57,0.564 0,0.311 -0.25,0.562 -0.57,0.562 -0.32,0 -0.57,-0.251 -0.57,-0.562 0,-0.311 0.25,-0.564 0.57,-0.564" style="fill:#fff;stroke-width:0.264796" />
<path d="m 26.58,1.6 h 2 l -0.71,1.403 h 0.71 L 27.17,5.599 V 4 H 26.58 V 1.6 M 26.98,2 V 3.598 H 27.6 V 4.127 L 27.98,3.4 H 27.23 L 27.94,2 Z" style="fill:#fff;stroke-width:0.264368" />
</svg>