<svg width="18mm" height="37.2mm" viewBox="0 0 18 37.2" xmlns="http://www.w3.org/2000/svg" >
<path style="fill:#fed;stroke-width:0.3;" d="m 10.1,0.1 6.56,0 c 0.86,0 1.23,0.51 1.24,1.37 V 7.1 h -7.8 z" />
<rect width="17.8" height="37" x="0.1" y="0.1" style="fill:none;stroke:#000;stroke-width:0.2;stroke-miterlimit:4;" ry="1.143" rx="1.143" />
<text style="font-size:6.35px;font-family:sans-serif;text-align:end;text-anchor:end;fill:#007700;stroke:none" x="9.35" y="6.07" >
<tspan style="font-size:6.35px;text-align:end;text-anchor:end;fill:#007700;stroke-width:0.264592" x="9.35" y="6.07" >14</tspan>
</text>
<text style="font-size:5.30567px;font-family:sans-serif;stroke:none" x="-35.94" y="6.795" transform="rotate(-90)" >
<tspan style="font-size:3.18341px;stroke-width:0.132647" x="-35.94" y="6.795" >Gniazdko</tspan>
<tspan style="stroke-width:0.132647" x="-35.94" y="13.42" >KUCHENKA</tspan>
</text>
<rect width="17.8" height=".2" x="0.1" y="7" />
<rect width="0.2" height="7" x="10" y=".1" />
<path d="m 12.41,4.129 h 0.53 l 0.79,0.794 H 13.21 L 12.41,4.129 M 11.88,1.483 h 0.27 V 1.219 a 0.2646,0.2646 0 0 1 0.26,-0.2647 h 1.06 a 0.2646,0.2646 0 0 1 0.26,0.2647 v 0.264 h 0.53 V 1.219 a 0.2646,0.2646 0 0 1 0.27,-0.2647 h 1.06 a 0.2646,0.2646 0 0 1 0.26,0.2647 v 0.264 h 0.27 a 0.5292,0.5292 0 0 1 0.53,0.529 v 3.44 a 0.5292,0.5292 0 0 1 -0.53,0.529 v 0.265 h -0.8 V 5.981 h -2.64 v 0.265 h -0.8 V 5.981 A 0.5292,0.5292 0 0 1 11.35,5.452 v -3.44 a 0.5292,0.5292 0 0 1 0.53,-0.529 m 3.71,0.794 a 0.2646,0.2646 0 0 1 0.26,0.265 0.2646,0.2646 0 0 1 -0.26,0.264 0.2646,0.2646 0 0 1 -0.27,-0.264 0.2646,0.2646 0 0 1 0.27,-0.265 m -1.06,0 a 0.2646,0.2646 0 0 1 0.26,0.265 0.2646,0.2646 0 0 1 -0.26,0.264 0.2646,0.2646 0 0 1 -0.27,-0.264 0.2646,0.2646 0 0 1 0.27,-0.265 m 1.59,-0.265 h -4.24 v 1.059 h 4.24 V 2.012 m -4.24,3.44 h 4.24 V 3.6 h -4.24 v 1.852 m 0.53,-3.175 a 0.2646,0.2646 0 0 1 0.27,0.265 0.2646,0.2646 0 0 1 -0.27,0.264 0.2646,0.2646 0 0 1 -0.26,-0.264 0.2646,0.2646 0 0 1 0.26,-0.265 m 1.85,1.852 h 0.53 l 0.8,0.794 h -0.53 z" style="stroke-width:0.264583" />
</svg>