<svg width="18mm" height="37.2mm" viewBox="0 0 18 37.2" xmlns="http://www.w3.org/2000/svg" >
<path style="fill:#fed;stroke-width:0.3;" d="m 10.1,0.1 6.56,0 c 0.86,0 1.23,0.51 1.24,1.37 V 7.1 h -7.8 z" />
<rect width="17.8" height="37" x="0.1" y="0.1" style="fill:none;stroke:#000;stroke-width:0.2;stroke-miterlimit:4;" ry="1.143" rx="1.143" />
<text style="font-size:6.35px;font-family:sans-serif;text-align:end;text-anchor:end;fill:#070;stroke:none" x="9.35" y="6.07" >
<tspan style="font-size:6.35px;text-align:end;text-anchor:end;fill:#070;stroke-width:0.264592" x="9.35" y="6.07" >30</tspan>
</text>
<text style="font-size:5.30567px;font-family:sans-serif;stroke:none" x="-30.74" y="6.897" transform="rotate(-90)" >
<tspan style="font-size:3.18341px;stroke-width:0.132647" x="-30.74" y="6.897" >Gniazdka</tspan>
<tspan style="stroke-width:0.132647" x="-30.74" y="13.52" >DZIENNY</tspan>
</text>
<rect width="17.8" height=".2" x="0.1" y="7" />
<rect width="0.2" height="7" x="10" y=".1" />
<path d="M 11.94,0.9545 A 0.5874,0.5874 0 0 0 11.35,1.542 v 4.113 c 0,0.33 0.26,0.59 0.59,0.59 h 4.11 a 0.5874,0.5874 0 0 0 0.59,-0.59 V 1.542 c 0,-0.323 -0.26,-0.5875 -0.59,-0.5875 H 11.94 M 14,1.483 A 2.117,2.117 0 0 1 16.11,3.605 2.117,2.117 0 0 1 14,5.715 2.117,2.117 0 0 1 11.88,3.605 2.117,2.117 0 0 1 14,1.483 m 0,0.53 A 0.3969,0.3969 0 0 0 13.6,2.41 0.3969,0.3969 0 0 0 14,2.806 0.3969,0.3969 0 0 0 14.39,2.41 0.3969,0.3969 0 0 0 14,2.013 m -1.2,1.192 a 0.3969,0.3969 0 0 0 -0.39,0.4 c 0,0.21 0.17,0.39 0.39,0.39 a 0.3969,0.3969 0 0 0 0.4,-0.39 0.3969,0.3969 0 0 0 -0.4,-0.4 m 2.39,0 a 0.3969,0.3969 0 0 0 -0.4,0.4 0.3969,0.3969 0 0 0 0.4,0.39 0.3969,0.3969 0 0 0 0.39,-0.39 0.3969,0.3969 0 0 0 -0.39,-0.4 z" style="stroke-width:0.2646" />
<text style="font-weight:bold;font-size:4.20185px;font-family:sans-serif;-inkscape-font-specification:'sans-serif, Bold';fill:#800;stroke-width:0.26461" x="6.756" y="36" >
<tspan style="font-weight:bold;font-size:4.20185px;font-family:sans-serif;-inkscape-font-specification:'sans-serif, Bold';fill:#800;stroke-width:0.26461" x="6.756" y="36" >L1</tspan>
</text>
<rect width="17.8" height="0.2" x="0.09999" y="31.5" style="stroke-width:0.999978" />
</svg>