<svg width="18mm" height="37.2mm" viewBox="0 0 18 37.2" xmlns="http://www.w3.org/2000/svg" >
<path style="fill:#fed;stroke-width:0.3;" d="m 10.1,0.1 6.56,0 c 0.86,0 1.23,0.51 1.24,1.37 V 7.1 h -7.8 z" />
<rect width="17.8" height="37" x="0.1" y="0.1" style="fill:none;stroke:#000;stroke-width:0.2;stroke-miterlimit:4;" ry="1.143" rx="1.143" />
<text style="font-size:6.35px;font-family:sans-serif;text-align:end;text-anchor:end;fill:#007700;stroke:none" x="9.35" y="6.07" >
<tspan style="font-size:6.35px;text-align:end;text-anchor:end;fill:#007700;stroke-width:0.264592" x="9.35" y="6.07" >13</tspan>
</text>
<text style="font-size:5.30567px;font-family:sans-serif;stroke:none" x="-35.94" y="6.795" transform="rotate(-90)" >
<tspan style="font-size:3.18341px;stroke-width:0.132647" x="-35.94" y="6.795" >Gniazdko</tspan>
<tspan style="stroke-width:0.132647" x="-35.94" y="13.42" >PIEKARNIK</tspan>
</text>
<rect width="17.8" height=".2" x="0.1" y="7" />
<rect width="0.2" height="7" x="10" y=".1" />
<path d="m 11.88,1.75 a 0.5292,0.5292 0 0 0 -0.53,0.529 v 2.65 a 0.5292,0.5292 0 0 0 0.53,0.52 h 4.24 a 0.5292,0.5292 0 0 0 0.53,-0.52 V 2.279 A 0.5292,0.5292 0 0 0 16.12,1.75 h -4.24 m 0,0.529 h 3.18 v 2.65 h -3.18 v -2.65 m 3.97,0 a 0.2646,0.2646 0 0 1 0.27,0.265 0.2646,0.2646 0 0 1 -0.27,0.264 0.2646,0.2646 0 0 1 -0.26,-0.264 0.2646,0.2646 0 0 1 0.26,-0.265 m -3.44,0.529 v 0.529 h 2.12 V 2.808 h -2.12 m 3.44,0.529 a 0.2646,0.2646 0 0 1 0.27,0.265 0.2646,0.2646 0 0 1 -0.27,0.265 0.2646,0.2646 0 0 1 -0.26,-0.265 0.2646,0.2646 0 0 1 0.26,-0.265 z" style="stroke-width:0.264583" />
</svg>