<svg width="18mm" height="37.2mm" viewBox="0 0 18 37.2" xmlns="http://www.w3.org/2000/svg" >
<path style="fill:#fed;stroke-width:0.3;" d="m 10.1,0.1 6.56,0 c 0.86,0 1.23,0.51 1.24,1.37 V 7.1 h -7.8 z" />
<rect width="17.8" height="37" x="0.1" y="0.1" style="fill:none;stroke:#000;stroke-width:0.2;stroke-miterlimit:4;" ry="1.143" rx="1.143" />
<text style="font-size:6.35px;font-family:sans-serif;text-align:end;text-anchor:end;fill:#070;stroke:none" x="9.35" y="6.07" >
<tspan style="font-size:6.35px;text-align:end;text-anchor:end;fill:#070;stroke-width:0.264592" x="9.35" y="6.07" >14</tspan>
</text>
<text style="font-size:5.30567px;font-family:sans-serif;stroke:none" x="-34.88" y="6.871" transform="rotate(-90)" >
<tspan style="font-size:3.18341px;stroke-width:0.132647" x="-34.88" y="6.871" >Gniazdka</tspan>
<tspan style="stroke-width:0.132647" x="-34.88" y="13.5" >USB C</tspan>
</text>
<rect width="17.8" height=".2" x="0.1" y="7" />
<rect width="0.2" height="7" x="10" y=".1" />
<path d="m 12.37,3.328 h 3.27 c 0.15,0 0.28,0.123 0.28,0.273 0,0.15 -0.13,0.273 -0.28,0.273 h -3.27 c -0.15,0 -0.28,-0.124 -0.28,-0.273 0,-0.15 0.13,-0.273 0.28,-0.273 m 0,-0.545 c -0.45,0 -0.83,0.365 -0.83,0.818 0,0.453 0.38,0.817 0.83,0.817 h 3.27 c 0.45,0 0.81,-0.365 0.81,-0.817 0,-0.453 -0.36,-0.818 -0.81,-0.818 h -3.27 m 0,-0.546 h 3.27 c 0.75,0 1.36,0.611 1.36,1.364 0,0.753 -0.61,1.363 -1.36,1.363 H 12.37 C 11.62,4.964 11,4.354 11,3.601 11,2.848 11.62,2.237 12.37,2.237 Z" style="stroke-width:0.264602" />
</svg>