<?xml version="1.0" encoding="UTF-8" standalone="no"?>
<svg
   width="18mm"
   height="37.2mm"
   viewBox="0 0 18 37.2"
   version="1.1"
   id="svg26057"
   xmlns="http://www.w3.org/2000/svg"
   xmlns:svg="http://www.w3.org/2000/svg">
  <defs
     id="defs26061" />
  <path
     style="fill:#fed;stroke-width:0.3;"
     d="m 10.1,0.1 6.56,0 c 0.86,0 1.23,0.51 1.24,1.37 V 7.1 h -7.8 z"
     id="path26037" />
  <rect
     width="17.8"
     height="37"
     x="0.1"
     y="0.1"
     style="fill:none;stroke:#000;stroke-width:0.2;stroke-miterlimit:4"
     ry="1.143"
     rx="1.143"
     id="rect26039" />
  <text
     style="font-size:6.35px;font-family:sans-serif;text-align:end;text-anchor:end;fill:#007700;stroke:none"
     x="9.35"
     y="6.07"
     id="text26043"><tspan
       style="font-size:6.35px;text-align:end;text-anchor:end;fill:#007700;stroke-width:0.264592"
       x="9.35"
       y="6.07"
       id="tspan26041">14</tspan></text>
  <text
     style="font-size:5.30567px;font-family:sans-serif;stroke:none"
     x="-35.94"
     y="6.873"
     transform="rotate(-90)"
     id="text26049"><tspan
       style="font-size:3.18341px;stroke-width:0.132647"
       x="-35.94"
       y="6.873"
       id="tspan26045">Gniazdko</tspan><tspan
       style="font-style:normal;font-variant:normal;font-weight:normal;font-stretch:normal;font-size:4.9389px;font-family:sans-serif;-inkscape-font-specification:'sans-serif, Normal';font-variant-ligatures:normal;font-variant-caps:normal;font-variant-numeric:normal;font-variant-east-asian:normal;stroke-width:0.132647"
       x="-35.94"
       y="13.5"
       id="tspan26047">KUCHENKA</tspan></text>
  <rect
     width="17.8"
     height=".2"
     x="0.1"
     y="7"
     id="rect26051" />
  <rect
     width="0.2"
     height="7"
     x="10"
     y=".1"
     id="rect26053" />
  <path
     d="m 12.2,4.2 h 0.6 l 0.9,0.9 H 13.11 L 12.2,4.2 M 11.6,1.199 h 0.31 V 0.9003 A 0.3001,0.3001 0 0 1 12.2,0.5998 h 1.21 A 0.3001,0.3001 0 0 1 13.7,0.9003 V 1.199 h 0.6 V 0.9003 a 0.3001,0.3001 0 0 1 0.31,-0.3005 h 1.2 a 0.3001,0.3001 0 0 1 0.28,0.3005 V 1.199 h 0.31 a 0.6001,0.6001 0 0 1 0.6,0.6 V 5.7 A 0.6001,0.6001 0 0 1 16.4,6.3 V 6.6 H 15.49 V 6.3 H 12.5 V 6.6 H 11.59 V 6.3 A 0.6001,0.6001 0 0 1 10.99,5.7 V 1.799 a 0.6001,0.6001 0 0 1 0.6,-0.6 m 4.21,0.9 A 0.3001,0.3001 0 0 1 16.09,2.4 0.3001,0.3001 0 0 1 15.8,2.699 0.3001,0.3001 0 0 1 15.49,2.4 0.3001,0.3001 0 0 1 15.8,2.099 m -1.2,0 A 0.3001,0.3001 0 0 1 14.89,2.4 0.3001,0.3001 0 0 1 14.6,2.699 0.3001,0.3001 0 0 1 14.29,2.4 0.3001,0.3001 0 0 1 14.6,2.099 m 1.8,-0.3 H 11.59 V 3 H 16.4 V 1.799 M 11.59,5.7 H 16.4 V 3.6 h -4.81 v 2.1 m 0.6,-3.601 A 0.3001,0.3001 0 0 1 12.5,2.4 0.3001,0.3001 0 0 1 12.19,2.699 0.3001,0.3001 0 0 1 11.91,2.4 0.3001,0.3001 0 0 1 12.19,2.099 m 2.1,2.101 h 0.6 l 0.91,0.9 h -0.6 z"
     style="stroke-width:0.26462"
     id="path26055" />
</svg>
