<?xml version="1.0" encoding="UTF-8" standalone="no"?>
<svg
   width="18mm"
   height="37.2mm"
   viewBox="0 0 18 37.2"
   version="1.1"
   id="svg15511"
   xml:space="preserve"
   xmlns="http://www.w3.org/2000/svg"
   xmlns:svg="http://www.w3.org/2000/svg"><defs
     id="defs15515" /><path
     style="fill:#dea;stroke-width:0.3;"
     d="m 10.1,0.1 6.56,0 c 0.86,0 1.23,0.51 1.24,1.37 V 7.1 h -7.8 z"
     id="path15491" /><rect
     width="17.8"
     height="37"
     x="0.1"
     y="0.1"
     style="fill:none;stroke:#000;stroke-width:0.2;stroke-miterlimit:4;"
     ry="1.143"
     rx="1.143"
     id="rect15493" /><text
     style="font-size:6.35px;font-family:sans-serif;text-align:end;text-anchor:end;fill:#007700;stroke:none"
     x="9.35"
     y="6.07"
     id="text15497"><tspan
       style="font-size:6.35px;text-align:end;text-anchor:end;fill:#007700;stroke-width:0.264592"
       x="9.35"
       y="6.07"
       id="tspan15495">24</tspan></text><text
     style="font-size:5.30567px;font-family:sans-serif;stroke:none"
     x="-34.88"
     y="6.897"
     transform="rotate(-90)"
     id="text15503"><tspan
       style="font-size:3.18341px;stroke-width:0.132647"
       x="-34.88"
       y="6.897"
       id="tspan15499">Gniazdko</tspan><tspan
       style="font-style:normal;font-variant:normal;font-weight:normal;font-stretch:normal;font-size:3.8806px;font-family:sans-serif;-inkscape-font-specification:'sans-serif, Normal';font-variant-ligatures:normal;font-variant-caps:normal;font-variant-numeric:normal;font-variant-east-asian:normal;stroke-width:0.132647"
       x="-34.88"
       y="13.52"
       id="tspan15501">KLIMATYZACJA</tspan></text><rect
     width="17.8"
     height=".2"
     x="0.1"
     y="7"
     id="rect15505" /><rect
     width="0.2"
     height="7"
     x="10"
     y=".1"
     id="rect15507" /><path
     d="m 12.63,0.7589 c 0.59,-0.453 1.22,0.102 1.36,0.9601 0.11,0 0.22,0.03 0.31,0.09 0.13,-0.15 0.25,-0.355 0.2,-0.586 C 14.4,0.6879 15,0.2529 15.57,0.9949 16.02,1.58 15.47,2.214 14.61,2.357 c 0,0.114 0,0.216 -0.1,0.31 0.15,0.127 0.35,0.243 0.58,0.198 0.54,-0.103 0.97,0.494 0.23,1.07 -0.58,0.458 -1.22,-0.102 -1.36,-0.96 -0.1,0 -0.21,-0.03 -0.31,-0.08 -0.13,0.151 -0.25,0.358 -0.2,0.588 0.12,0.535 -0.5,0.97 -1.08,0.229 -0.45,-0.586 0.11,-1.222 0.96,-1.362 0,-0.113 0,-0.212 0.12,-0.306 C 13.3,1.916 13.11,1.798 12.87,1.843 12.33,1.945 11.89,1.348 12.64,0.7729 M 12.25,4.603 h 0.49 a 0.5,0.5 0 0 1 0.5,0.5 v 1.5 h -0.5 v -0.5 h -0.49 v 0.5 h -0.5 v -1.51 a 0.5,0.5 0 0 1 0.5,-0.5 m 0,0.5 v 0.5 h 0.49 v -0.5 h -0.49 m 1.98,-0.5 h 0.52 l -0.73,2 h -0.51 l 0.72,-2 m 1.27,0 h 0.75 v 0.5 H 15.5 v 1 h 0.75 v 0.5 H 15.5 A 0.5,0.5 0 0 1 15,6.093 v -1 a 0.5,0.5 0 0 1 0.5,-0.5 z"
     id="path15557"
     style="stroke-width:0.26469" /></svg>
