<svg width="54mm" height="37.2mm" viewBox="0 0 54 37.2" xmlns="http://www.w3.org/2000/svg" >
<path style="fill:#ddeeaa;stroke-width:0.3;" d="m 10.1,0.1 42.85,0.029 c 0.72,0 0.97,0.79 0.97,1.3696 l -0,5.601 H 10.1 Z" />
<rect width="53.82" height="37" x="0.1" y="0.1" style="fill:none;stroke:#000;stroke-width:0.2;stroke-miterlimit:4;" ry="1.143" rx="1.143" />
<text style="font-size:6.35px;font-family:sans-serif;text-align:end;text-anchor:end;fill:#070;stroke:none" x="9.32" y="6.07" >
<tspan style="font-size:6.35px;text-align:end;text-anchor:end;fill:#070;stroke-width:0.264591" x="9.32" y="6.07" >17</tspan>
</text>
<text style="font-size:10.0197px;font-family:sans-serif;stroke:none" x="6.476" y="17.42" >
<tspan style="font-size:6.01185px" x="6.476" y="17.42" >Zasilanie</tspan>
<tspan x="6.476" y="29.96" style="font-size:7.7611px;font-family:sans-serif;-inkscape-font-specification:'sans-serif, Normal'" >AKWARIUM</tspan>
</text>
<rect width="53.8" height=".2" x="0.1" y="7" />
<rect width="0.2" height="7" x="10" y=".1" />
<path d="m 32.01,6.6 0.3,-1.2 c -1.3,-0.08 -2.46,-0.64 -2.8,-1.369 0,0.192 -0.1,0.368 -0.17,0.501 -0.26,0.467 -0.8,0.467 -1.33,0.467 0.44,0 0.6,-0.627 0.6,-1.4 0,-0.771 -0.16,-1.4 -0.6,-1.4 0.53,0 1.07,0 1.33,0.469 0.1,0.136 0.14,0.308 0.17,0.5 0.26,-0.569 1.03,-1.028 1.96,-1.241 L 30.81,0.5993 c 0.8,0 1.6,0 2.13,0.268 0.45,0.2237 0.71,0.6407 0.95,1.0837 1.16,0.28 2.12,0.912 2.12,1.648 0,0.753 -1,1.4 -2.2,1.665 -0.33,0.44 -0.66,0.848 -0.93,1.067 C 32.54,6.6 32.28,6.6 32.01,6.6 m 2,-3.601 a 0.4001,0.4001 0 0 0 -0.4,0.4 0.4001,0.4001 0 0 0 0.4,0.401 0.4001,0.4001 0 0 0 0.4,-0.401 0.4001,0.4001 0 0 0 -0.4,-0.4 z" style="stroke-width:0.264633" />
</svg>