<svg width="216mm" height="37.2mm" viewBox="0 0 216 37.2" xmlns="http://www.w3.org/2000/svg" >


<path style="fill:#005b88;stroke-width:0.3" d="M 18,0.1 53.9,0 V 7.1 H 18 Z" />
<rect width="215.8" height="37" x="0.09998" y="0.1" style="fill:none;stroke:#000;stroke-width:0.199987;stroke-miterlimit:4" ry="1.143" rx="1.143" />
<text style="font-size:6.35px;font-family:sans-serif;text-align:center;text-anchor:middle;fill:#070;stroke:none" x="5.698" y="5.867" >
<tspan style="font-size:6.35px;text-align:center;text-anchor:middle;fill:#070;stroke-width:0.264591" x="9.022" y="5.867" >27</tspan>
</text>
<text style="font-size:10.0197px;font-family:sans-serif;stroke:none" x="5.627" y="17.42" >
<tspan style="font-size:6.01185px" x="5.627" y="17.42" >Obwody</tspan>
<tspan x="5.627" y="29.96" style="font-size:7.7611px;font-family:sans-serif;-inkscape-font-specification:'sans-serif, Normal'" >SALON</tspan>
</text>
<rect width="53.8" height="0.2" x="0.1" y="7" />
<rect width="0.2" height="7" x="17.9" y="0.1" />
<rect width="0.2" height="37.2" x="53.8" y="0" style="stroke-width:1" />
<path d="m 78.78,10.05 v 0.72 h 5.43 c 2.58,0 4.69,0.88 6.53,2.65 1.84,1.78 2.76,3.96 2.76,6.49 0,2.54 -0.92,4.69 -2.76,6.49 -1.84,1.8 -4.04,2.7 -6.53,2.7 -2.57,0 -4.69,-0.9 -6.53,-2.7 -1.84,-1.8 -2.76,-3.95 -2.76,-6.49 V 6.198 c 1.01,0 1.93,0.38 2.67,1.138 0.83,0.759 1.19,1.657 1.19,2.714 z m 10.86,9.86 c 0,-1.51 -0.55,-2.82 -1.66,-3.89 -1.01,-1.08 -2.3,-1.61 -3.77,-1.61 h -5.43 v 5.5 c 0,1.5 0.46,2.81 1.57,3.9 1.01,1.09 2.3,1.64 3.86,1.64 1.47,0 2.76,-0.55 3.77,-1.64 1.11,-1.09 1.66,-2.4 1.66,-3.9 z m 14.56,-9.14 c 2.5,0 4.8,0.9 6.6,2.67 1.7,1.8 2.7,3.98 2.7,6.51 0,2.53 -1,4.7 -2.7,6.47 -1.8,1.78 -4.1,2.68 -6.6,2.68 -2.5,0 -4.72,-0.9 -6.56,-2.68 -1.75,-1.77 -2.67,-3.94 -2.67,-6.47 0,-2.53 0.92,-4.71 2.67,-6.51 1.84,-1.77 4.06,-2.67 6.56,-2.67 z m 0,3.64 c -1.5,0 -2.8,0.53 -3.8,1.63 -1.1,1.1 -1.56,2.4 -1.56,3.91 0,1.52 0.46,2.8 1.56,3.88 1,1.07 2.3,1.62 3.8,1.62 1.5,0 2.8,-0.55 3.8,-1.62 1.1,-1.08 1.6,-2.36 1.6,-3.88 0,-1.51 -0.5,-2.81 -1.6,-3.91 -1,-1.1 -2.3,-1.63 -3.8,-1.63 z m 25.5,5.54 c 0,-1.5 -0.6,-2.79 -1.6,-3.89 -1.1,-1.1 -2.3,-1.65 -3.9,-1.65 -1.4,0 -2.7,0.53 -3.8,1.63 -1,1.1 -1.6,2.4 -1.6,3.91 v 5.29 c 0,1.06 -0.4,1.95 -1.1,2.72 -0.7,0.75 -1.7,1.14 -2.8,1.14 v -9.15 c 0,-2.53 1,-4.71 2.8,-6.51 1.8,-1.77 4,-2.67 6.5,-2.67 2.6,0 4.8,0.9 6.6,2.67 1.8,1.8 2.7,3.98 2.7,6.51 v 9.15 c -1,0 -1.9,-0.39 -2.6,-1.14 -0.9,-0.77 -1.2,-1.66 -1.2,-2.72 z m 14.9,9.15 c -2.6,0 -4.7,-0.9 -6.6,-2.68 -1.8,-1.77 -2.7,-3.94 -2.7,-6.47 0,-2.53 0.9,-4.71 2.7,-6.51 1.9,-1.77 4,-2.67 6.6,-2.67 h 5.4 c 0,1 -0.4,1.85 -1.1,2.57 -0.7,0.7 -1.6,1.07 -2.6,1.07 h -1.7 c -1.5,0 -2.8,0.55 -3.9,1.65 -1,1.1 -1.6,2.39 -1.6,3.89 0,1.5 0.6,2.77 1.6,3.88 1.1,1.07 2.4,1.62 3.9,1.62 h 1.7 c 1,0 1.9,0.35 2.6,1.07 0.7,0.7 1.1,1.56 1.1,2.58 z m -1.3,-11 h 6.7 c 0,1.02 -0.4,1.87 -1.1,2.57 -0.7,0.72 -1.6,1.06 -2.6,1.06 h -3 c -0.5,0 -1,-0.16 -1.3,-0.52 -0.4,-0.34 -0.6,-0.76 -0.6,-1.27 0,-0.53 0.2,-0.97 0.6,-1.33 0.3,-0.34 0.7,-0.51 1.3,-0.51 z" style="fill:#000200;fill-rule:evenodd;stroke-width:0.352645" />
<path d="m 174.1,6.578 c 1.8,0.519 3.4,1.497 4.9,2.894 2.3,2.258 3.4,4.968 3.4,8.148 0,3.19 -1.1,5.89 -3.4,8.12 -2.3,2.24 -5.1,3.36 -8.2,3.36 -3.2,0 -6,-1.12 -8.2,-3.36 -2.3,-2.23 -3.5,-4.93 -3.5,-8.12 0,-3.18 1.2,-5.89 3.5,-8.148 1.4,-1.417 3,-2.375 4.8,-2.914 v 3.932 c -2.7,1.26 -4.5,3.97 -4.5,7.11 0,4.33 3.6,7.86 7.9,7.86 4.3,0 7.8,-3.53 7.8,-7.86 0,-3.14 -1.8,-5.85 -4.5,-7.11 z M 156.6,6.099 v 4.631 h -3.5 c 0,0 3.5,0.78 3.5,2.01 v 1.86 5.97 8.53 c -1.1,0 -2,-0.39 -2.8,-1.14 -0.7,-0.77 -1.1,-1.66 -1.1,-2.72 V 24.43 13.59 9.955 c 0,-1.061 0.4,-1.96 1.1,-2.718 0.8,-0.759 1.7,-1.138 2.8,-1.138 z m 14.2,0 c 0.5,0 1,0.179 1.3,0.539 0.4,0.379 0.6,0.818 0.6,1.317 v 0.04 2.915 0 1.08 0 2.91 0 c 0,0.53 -0.2,0.97 -0.6,1.33 -0.3,0.36 -0.8,0.53 -1.3,0.53 -0.5,0 -0.9,-0.17 -1.3,-0.53 -0.4,-0.36 -0.6,-0.8 -0.6,-1.33 v 0 -2.91 0 -1.08 0 -2.915 -0.04 c 0,-0.499 0.2,-0.938 0.6,-1.317 0.4,-0.36 0.8,-0.539 1.3,-0.539 z" style="fill:#005b88;fill-rule:evenodd;stroke-width:0.352645" />
<path style="fill:#fff;fill-rule:evenodd;stroke-width:0.352661" d="m 42.03,1.05 c -0.25,0 -0.45,0.09 -0.6,0.25 -0.16,0.164 -0.25,0.364 -0.25,0.593 v 0.786 2.357 0.178 c 0,0.229 0.1,0.422 0.25,0.593 0.15,0.165 0.35,0.243 0.6,0.243 V 4.2 2.9 2.5 c 0,-0.271 -0.76,-0.443 -0.76,-0.443 h 0.76 z m 3.08,0 c -0.1,0 -0.2,0.07 -0.28,0.121 -0.1,0.08 -0.12,0.179 -0.12,0.286 v 0.636 0.236 0.628 c 0,0.114 0.1,0.214 0.12,0.293 0.1,0.08 0.18,0.114 0.28,0.114 0.12,0 0.22,0 0.27,-0.114 0.1,-0.08 0.15,-0.179 0.15,-0.293 V 2.329 2.093 1.457 C 45.53,1.35 45.46,1.25 45.38,1.171 45.31,1.093 45.23,1.05 45.11,1.05 Z m -20.84,0 v 2.979 c 0,0.55 0.2,1.021 0.6,1.407 0.4,0.393 0.86,0.586 1.41,0.586 0.55,0 1.03,-0.193 1.43,-0.586 0.4,-0.386 0.6,-0.857 0.6,-1.407 C 28.31,3.479 28.11,3 27.71,2.614 27.31,2.229 26.85,2.043 26.28,2.043 H 25.11 V 1.886 C 25.11,1.65 25.03,1.457 24.85,1.293 24.68,1.129 24.48,1.05 24.27,1.05 Z m 20.1,0.07 c -0.39,0.122 -0.74,0.329 -1.04,0.636 -0.5,0.493 -0.76,1.079 -0.76,1.772 0,0.693 0.26,1.278 0.76,1.764 0.48,0.486 1.08,0.729 1.78,0.729 0.67,0 1.28,-0.243 1.78,-0.729 0.5,-0.486 0.74,-1.071 0.74,-1.764 0,-0.693 -0.24,-1.279 -0.74,-1.772 -0.32,-0.3 -0.66,-0.514 -1.06,-0.628 v 0.85 c 0.58,0.271 0.98,0.864 0.98,1.542 0,0.943 -0.76,1.715 -1.7,1.715 -0.94,0 -1.73,-0.772 -1.73,-1.715 0,-0.678 0.4,-1.271 0.99,-1.542 z M 30.63,2.043 c -0.55,0 -1.02,0.193 -1.42,0.578 -0.38,0.393 -0.58,0.865 -0.58,1.415 0,0.55 0.2,1.021 0.58,1.407 0.4,0.386 0.87,0.579 1.42,0.579 0.55,0 1.04,-0.193 1.44,-0.579 0.38,-0.386 0.58,-0.857 0.58,-1.407 0,-0.55 -0.2,-1.022 -0.58,-1.415 -0.4,-0.385 -0.89,-0.578 -1.44,-0.578 z m 4.35,0 c -0.53,0 -1.01,0.193 -1.41,0.578 -0.4,0.393 -0.6,0.865 -0.6,1.415 v 1.986 c 0.24,0 0.44,-0.08 0.6,-0.243 0.16,-0.172 0.24,-0.365 0.24,-0.593 v -1.15 c 0,-0.329 0.12,-0.615 0.34,-0.85 0.23,-0.236 0.52,-0.357 0.83,-0.357 0.35,0 0.6,0.121 0.85,0.364 0.22,0.236 0.34,0.514 0.34,0.843 v 1.15 c 0,0.228 0.1,0.421 0.26,0.593 0.15,0.164 0.35,0.243 0.58,0.243 V 4.036 c 0,-0.55 -0.2,-1.022 -0.6,-1.415 C 36.03,2.236 35.55,2.043 34.98,2.043 Z m 4.43,0 c -0.56,0 -1.03,0.193 -1.43,0.578 -0.4,0.393 -0.6,0.865 -0.6,1.415 0,0.55 0.2,1.021 0.6,1.407 0.4,0.386 0.87,0.579 1.43,0.579 h 1.17 C 40.58,5.8 40.51,5.614 40.35,5.464 40.21,5.307 40.01,5.229 39.78,5.229 h -0.37 c -0.33,0 -0.6,-0.115 -0.84,-0.35 -0.22,-0.243 -0.34,-0.515 -0.34,-0.843 0,-0.329 0.12,-0.607 0.34,-0.843 0.24,-0.243 0.51,-0.364 0.84,-0.364 h 0.37 c 0.23,0 0.43,-0.08 0.57,-0.229 0.16,-0.157 0.23,-0.343 0.23,-0.557 z m -14.3,0.786 h 1.17 c 0.33,0 0.6,0.121 0.83,0.35 0.24,0.235 0.36,0.521 0.36,0.85 0,0.321 -0.12,0.607 -0.36,0.843 -0.23,0.242 -0.5,0.357 -0.83,0.357 -0.33,0 -0.61,-0.115 -0.83,-0.357 C 25.21,4.636 25.11,4.35 25.11,4.029 Z m 5.52,0 c 0.34,0 0.62,0.121 0.84,0.357 0.24,0.235 0.34,0.521 0.34,0.85 0,0.328 -0.1,0.607 -0.34,0.843 -0.22,0.235 -0.5,0.35 -0.84,0.35 -0.32,0 -0.6,-0.115 -0.82,-0.35 -0.24,-0.236 -0.34,-0.515 -0.34,-0.843 0,-0.329 0.1,-0.615 0.34,-0.85 0.22,-0.236 0.5,-0.357 0.82,-0.357 z m 8.5,0.807 c -0.12,0 -0.2,0 -0.28,0.107 -0.1,0.08 -0.12,0.179 -0.12,0.293 0,0.107 0.1,0.2 0.12,0.271 0.1,0.08 0.18,0.115 0.28,0.115 h 0.65 c 0.23,0 0.43,-0.07 0.57,-0.229 0.16,-0.15 0.23,-0.336 0.23,-0.557 z" />
<path style="fill:#e8362d;stroke-width:0.264619" class="st0" d="m 203.9,16.91 c -0.2,0 -0.5,0 -0.7,0.1 l -0.1,0.45 c 3.3,1.17 6,3.85 7.2,7.21 l 0.4,-0.15 c 0,-0.23 0,-0.46 0,-0.7 0,-3.78 -3.1,-6.85 -6.8,-6.85 z m -3.2,0.79 c -0.6,0.3 -1.1,0.67 -1.5,1.11 v 1.02 c 4.8,0 8.6,3.89 8.6,8.66 h 1 c 0.5,-0.45 0.9,-0.97 1.2,-1.53 -0.7,-4.78 -4.5,-8.58 -9.3,-9.26 z m -2.5,0.3 c -1.5,1.54 -2.4,3.58 -2.4,5.76 0,2.17 0.9,4.21 2.4,5.76 1.6,1.54 3.6,2.39 5.8,2.39 2.1,0 4.2,-0.86 5.7,-2.4 l -0.4,-0.43 c -1.4,1.42 -3.3,2.21 -5.3,2.21 -2.1,0 -3.9,-0.79 -5.4,-2.21 -1.4,-1.42 -2.1,-3.31 -2.1,-5.33 0,-2.01 0.7,-3.9 2.1,-5.32 z m 1.5,2.71 c -0.2,0 -0.5,0 -0.6,0.1 -0.5,0.13 -1.1,0.43 -1.4,0.83 -0.3,0.46 -0.6,1.08 -0.6,1.76 0,1.19 0.7,2.2 1.8,2.54 0.2,0.1 0.6,0.1 0.7,0.12 v 0 c 1.2,0.21 2.1,1.24 2.1,2.48 0,0.49 -0.2,0.96 -0.4,1.34 l 0.9,0.55 c 0.3,0.11 0.8,0.18 1.2,0.22 0.3,-0.52 0.4,-1.07 0.5,-1.66 0.1,-1.69 -0.6,-3.28 -1.9,-4.25 -0.7,-0.51 -1.5,-0.84 -2.4,-0.93 -0.2,0 -0.4,-0.23 -0.4,-0.46 0,-0.26 0.3,-0.41 0.6,-0.38 0.9,0.1 1.8,0.44 2.5,0.96 1.7,1.12 2.6,3.05 2.4,5.15 0,0.33 -0.1,0.65 -0.1,0.96 l 1.2,0.35 c 0.3,-0.1 0.7,-0.23 1,-0.39 0.2,-0.47 0.2,-0.96 0.2,-1.46 0,-3.93 -2.9,-7.18 -6.7,-7.74 -0.2,0 -0.5,-0.1 -0.6,-0.1 z m 0,6.29 c -0.6,0 -1.1,0.48 -1.1,1.06 0,0.58 0.5,1.05 1.1,1.05 0.6,0 1,-0.47 1,-1.05 0,-0.58 -0.4,-1.06 -1,-1.06 z" />
</svg>