<svg width="288mm" height="37.2mm" viewBox="0 0 288 37.2" xmlns="http://www.w3.org/2000/svg" >

<path style="fill:#005b88;stroke-width:0.3" d="M 18,0.1 53.9,0 V 7.1 H 18 Z" />
<rect width="287.8" height="37" x="0.1" y="0.1" style="fill:none;stroke:#000;stroke-width:0.199991;stroke-miterlimit:4" ry="1.143" rx="1.143" />
<text style="font-size:6.35px;font-family:sans-serif;text-align:center;text-anchor:middle;fill:#070;stroke:none" x="5.698" y="5.867" >
<tspan style="font-size:6.35px;text-align:center;text-anchor:middle;fill:#070;stroke-width:0.264591" x="9.022" y="5.867" >27</tspan>
</text>
<text style="font-size:10.0197px;font-family:sans-serif;stroke:none" x="5.627" y="17.42" >
<tspan style="font-size:6.01185px" x="5.627" y="17.42" >Obwody</tspan>
<tspan x="5.627" y="29.96" style="font-size:7.7611px;font-family:sans-serif;-inkscape-font-specification:'sans-serif, Normal'" >SALON</tspan>
</text>
<rect width="53.8" height="0.2" x="0.1" y="7" />
<rect width="0.2" height="7" x="17.9" y="0.1" />
<rect width="0.2" height="37.2" x="53.8" y="0" style="stroke-width:1" />
<path d="m 116.8,10.39 v 0.79 h 5.9 c 2.8,0 5.1,0.95 7.1,2.88 2,1.93 3,4.3 3,7.05 0,2.76 -1,5.1 -3,7.06 -2,1.95 -4.4,2.93 -7.1,2.93 -2.8,0 -5.1,-0.98 -7.1,-2.93 -2,-1.96 -3,-4.3 -3,-7.06 V 6.206 c 1.1,0 2.1,0.413 2.9,1.237 0.9,0.825 1.3,1.801 1.3,2.947 z m 11.8,10.72 c 0,-1.64 -0.6,-3.06 -1.8,-4.23 -1.1,-1.17 -2.5,-1.75 -4.1,-1.75 h -5.9 v 5.98 c 0,1.63 0.5,3.06 1.7,4.24 1.1,1.19 2.5,1.78 4.2,1.78 1.6,0 3,-0.59 4.1,-1.78 1.2,-1.18 1.8,-2.61 1.8,-4.24 z m 15.8,-9.93 c 2.8,0 5.2,0.97 7.2,2.9 1.9,1.96 2.9,4.32 2.9,7.08 0,2.75 -1,5.1 -2.9,7.03 -2,1.93 -4.4,2.91 -7.2,2.91 -2.7,0 -5.1,-0.98 -7.1,-2.91 -1.9,-1.93 -2.9,-4.28 -2.9,-7.03 0,-2.76 1,-5.12 2.9,-7.08 2,-1.93 4.4,-2.9 7.1,-2.9 z m 0,3.95 c -1.6,0 -3,0.58 -4.1,1.77 -1.2,1.2 -1.7,2.61 -1.7,4.26 0,1.65 0.5,3.04 1.7,4.21 1.1,1.17 2.5,1.76 4.1,1.76 1.7,0 3.1,-0.59 4.2,-1.76 1.2,-1.17 1.7,-2.56 1.7,-4.21 0,-1.65 -0.5,-3.06 -1.7,-4.26 -1.1,-1.19 -2.5,-1.77 -4.2,-1.77 z m 27.7,6.03 c 0,-1.63 -0.6,-3.04 -1.7,-4.23 -1.2,-1.2 -2.5,-1.8 -4.2,-1.8 -1.6,0 -3,0.58 -4.2,1.77 -1.1,1.2 -1.7,2.61 -1.7,4.26 v 5.75 c 0,1.15 -0.4,2.12 -1.2,2.95 -0.8,0.82 -1.8,1.24 -3,1.24 v -9.94 c 0,-2.76 1,-5.12 3,-7.08 2,-1.93 4.4,-2.9 7.1,-2.9 2.8,0 5.2,0.97 7.1,2.9 2,1.96 3,4.32 3,7.08 v 9.94 c -1.1,0 -2.1,-0.42 -2.9,-1.24 -0.9,-0.83 -1.3,-1.8 -1.3,-2.95 z m 16.2,9.94 c -2.8,0 -5.1,-0.98 -7.1,-2.91 -2,-1.93 -3,-4.28 -3,-7.03 0,-2.76 1,-5.12 3,-7.08 2,-1.93 4.3,-2.9 7.1,-2.9 h 5.9 c 0,1.08 -0.4,2.01 -1.2,2.79 -0.7,0.76 -1.7,1.16 -2.8,1.16 h -1.9 c -1.6,0 -3,0.6 -4.2,1.8 -1.1,1.19 -1.7,2.6 -1.7,4.23 0,1.63 0.6,3.01 1.7,4.21 1.2,1.17 2.6,1.76 4.2,1.76 h 1.9 c 1.1,0 2.1,0.39 2.8,1.17 0.8,0.76 1.2,1.69 1.2,2.8 z m -1.4,-11.96 h 7.3 c 0,1.11 -0.4,2.04 -1.2,2.8 -0.7,0.78 -1.7,1.15 -2.8,1.15 h -3.3 c -0.5,0 -1,-0.17 -1.4,-0.57 -0.4,-0.36 -0.6,-0.82 -0.6,-1.38 0,-0.57 0.2,-1.05 0.6,-1.44 0.4,-0.37 0.8,-0.56 1.4,-0.56 z" style="fill:#000200;fill-rule:evenodd;stroke-width:0.352655" />
<path d="m 220.4,6.619 c 2,0.564 3.7,1.627 5.3,3.146 2.5,2.455 3.7,5.405 3.7,8.855 0,3.47 -1.2,6.4 -3.7,8.83 -2.5,2.43 -5.5,3.65 -8.9,3.65 -3.5,0 -6.5,-1.22 -8.9,-3.65 -2.5,-2.43 -3.8,-5.36 -3.8,-8.83 0,-3.45 1.3,-6.4 3.8,-8.855 1.5,-1.541 3.3,-2.582 5.2,-3.168 v 4.273 c -2.9,1.37 -4.9,4.32 -4.9,7.73 0,4.71 3.9,8.55 8.6,8.55 4.7,0 8.5,-3.84 8.5,-8.55 0,-3.41 -2,-6.36 -4.9,-7.73 z m -19,-0.521 v 5.032 h -3.8 c 0,0 3.8,0.85 3.8,2.19 v 2.02 6.49 9.27 c -1.2,0 -2.2,-0.42 -3,-1.24 -0.8,-0.83 -1.2,-1.8 -1.2,-2.95 V 26.02 14.24 10.29 c 0,-1.154 0.4,-2.131 1.2,-2.955 0.8,-0.825 1.8,-1.237 3,-1.237 z m 15.4,0 c 0.6,0 1.1,0.195 1.4,0.586 0.5,0.412 0.7,0.889 0.7,1.432 v 0.04 3.174 0 1.17 0 3.17 0 c 0,0.57 -0.2,1.05 -0.7,1.44 -0.3,0.39 -0.8,0.58 -1.4,0.58 -0.5,0 -1,-0.19 -1.4,-0.58 -0.4,-0.39 -0.6,-0.87 -0.6,-1.44 v 0 -3.17 0 -1.17 0 -3.174 -0.04 c 0,-0.543 0.2,-1.02 0.6,-1.432 0.4,-0.391 0.9,-0.586 1.4,-0.586 z" style="fill:#005b88;fill-rule:evenodd;stroke-width:0.352655" />
<path style="fill:#fff;fill-rule:evenodd;stroke-width:0.352661" d="m 42.03,1.05 c -0.25,0 -0.45,0.09 -0.6,0.25 -0.16,0.164 -0.25,0.364 -0.25,0.593 v 0.786 2.357 0.178 c 0,0.229 0.1,0.422 0.25,0.593 0.15,0.165 0.35,0.243 0.6,0.243 V 4.2 2.9 2.5 c 0,-0.271 -0.76,-0.443 -0.76,-0.443 h 0.76 z m 3.08,0 c -0.1,0 -0.2,0.07 -0.28,0.121 -0.1,0.08 -0.12,0.179 -0.12,0.286 v 0.636 0.236 0.628 c 0,0.114 0.1,0.214 0.12,0.293 0.1,0.08 0.18,0.114 0.28,0.114 0.12,0 0.22,0 0.27,-0.114 0.1,-0.08 0.15,-0.179 0.15,-0.293 V 2.329 2.093 1.457 C 45.53,1.35 45.46,1.25 45.38,1.171 45.31,1.093 45.23,1.05 45.11,1.05 Z m -20.84,0 v 2.979 c 0,0.55 0.2,1.021 0.6,1.407 0.4,0.393 0.86,0.586 1.41,0.586 0.55,0 1.03,-0.193 1.43,-0.586 0.4,-0.386 0.6,-0.857 0.6,-1.407 C 28.31,3.479 28.11,3 27.71,2.614 27.31,2.229 26.85,2.043 26.28,2.043 H 25.11 V 1.886 C 25.11,1.65 25.03,1.457 24.85,1.293 24.68,1.129 24.48,1.05 24.27,1.05 Z m 20.1,0.07 c -0.39,0.122 -0.74,0.329 -1.04,0.636 -0.5,0.493 -0.76,1.079 -0.76,1.772 0,0.693 0.26,1.278 0.76,1.764 0.48,0.486 1.08,0.729 1.78,0.729 0.67,0 1.28,-0.243 1.78,-0.729 0.5,-0.486 0.74,-1.071 0.74,-1.764 0,-0.693 -0.24,-1.279 -0.74,-1.772 -0.32,-0.3 -0.66,-0.514 -1.06,-0.628 v 0.85 c 0.58,0.271 0.98,0.864 0.98,1.542 0,0.943 -0.76,1.715 -1.7,1.715 -0.94,0 -1.73,-0.772 -1.73,-1.715 0,-0.678 0.4,-1.271 0.99,-1.542 z M 30.63,2.043 c -0.55,0 -1.02,0.193 -1.42,0.578 -0.38,0.393 -0.58,0.865 -0.58,1.415 0,0.55 0.2,1.021 0.58,1.407 0.4,0.386 0.87,0.579 1.42,0.579 0.55,0 1.04,-0.193 1.44,-0.579 0.38,-0.386 0.58,-0.857 0.58,-1.407 0,-0.55 -0.2,-1.022 -0.58,-1.415 -0.4,-0.385 -0.89,-0.578 -1.44,-0.578 z m 4.35,0 c -0.53,0 -1.01,0.193 -1.41,0.578 -0.4,0.393 -0.6,0.865 -0.6,1.415 v 1.986 c 0.24,0 0.44,-0.08 0.6,-0.243 0.16,-0.172 0.24,-0.365 0.24,-0.593 v -1.15 c 0,-0.329 0.12,-0.615 0.34,-0.85 0.23,-0.236 0.52,-0.357 0.83,-0.357 0.35,0 0.6,0.121 0.85,0.364 0.22,0.236 0.34,0.514 0.34,0.843 v 1.15 c 0,0.228 0.1,0.421 0.26,0.593 0.15,0.164 0.35,0.243 0.58,0.243 V 4.036 c 0,-0.55 -0.2,-1.022 -0.6,-1.415 C 36.03,2.236 35.55,2.043 34.98,2.043 Z m 4.43,0 c -0.56,0 -1.03,0.193 -1.43,0.578 -0.4,0.393 -0.6,0.865 -0.6,1.415 0,0.55 0.2,1.021 0.6,1.407 0.4,0.386 0.87,0.579 1.43,0.579 h 1.17 C 40.58,5.8 40.51,5.614 40.35,5.464 40.21,5.307 40.01,5.229 39.78,5.229 h -0.37 c -0.33,0 -0.6,-0.115 -0.84,-0.35 -0.22,-0.243 -0.34,-0.515 -0.34,-0.843 0,-0.329 0.12,-0.607 0.34,-0.843 0.24,-0.243 0.51,-0.364 0.84,-0.364 h 0.37 c 0.23,0 0.43,-0.08 0.57,-0.229 0.16,-0.157 0.23,-0.343 0.23,-0.557 z m -14.3,0.786 h 1.17 c 0.33,0 0.6,0.121 0.83,0.35 0.24,0.235 0.36,0.521 0.36,0.85 0,0.321 -0.12,0.607 -0.36,0.843 -0.23,0.242 -0.5,0.357 -0.83,0.357 -0.33,0 -0.61,-0.115 -0.83,-0.357 C 25.21,4.636 25.11,4.35 25.11,4.029 Z m 5.52,0 c 0.34,0 0.62,0.121 0.84,0.357 0.24,0.235 0.34,0.521 0.34,0.85 0,0.328 -0.1,0.607 -0.34,0.843 -0.22,0.235 -0.5,0.35 -0.84,0.35 -0.32,0 -0.6,-0.115 -0.82,-0.35 -0.24,-0.236 -0.34,-0.515 -0.34,-0.843 0,-0.329 0.1,-0.615 0.34,-0.85 0.22,-0.236 0.5,-0.357 0.82,-0.357 z m 8.5,0.807 c -0.12,0 -0.2,0 -0.28,0.107 -0.1,0.08 -0.12,0.179 -0.12,0.293 0,0.107 0.1,0.2 0.12,0.271 0.1,0.08 0.18,0.115 0.28,0.115 h 0.65 c 0.23,0 0.43,-0.07 0.57,-0.229 0.16,-0.15 0.23,-0.336 0.23,-0.557 z" />
<g transform="matrix(0.0552,0,0,0.0562,269.4,13.45)" style="stroke-width:4.75065">
<path d="M 235.6,129.7 C 241,100 215.6,76.37 177,63.13 166.6,26.36 143.1,4.5 108.7,4.5 88.67,4.5 70.93,12.34 59.53,24.5 33.93,26.1 33.75,56.23 11.4,99.31 -6.09,133.1 7.67,168 49.88,173.4 43.29,188.7 39.88,206.3 39.54,224.2 18.13,199.7 24,174.3 12,175 c -15,0.8 4.19,54 30.81,83.6 a 133,133 0 0 0 3.98,14.4 c -9.29,3.2 -19,12.8 -19,24 0,12.7 8.7,13.9 20,14 a 20.85,20.85 0 0 0 -0.59,4.5 10.38,10.38 0 0 0 4,8.5 c 2.84,2.2 6.87,3.3 12.5,3.5 0.82,0 1.63,0 2.42,0 v 0 c 11.9,0 20.08,-3.3 25.25,-8 a 21.22,21.22 0 0 0 7.25,-15.5 15.26,15.26 0 0 0 -0.42,-3.6 17.81,17.81 0 0 1 -0.35,-2 168.7,168.7 0 0 1 28.85,-0.2 c -0.1,1 -0.2,1.8 -0.3,2.2 a 14,14 0 0 0 -0.4,3.4 c 0,4.9 2.2,10.8 7.6,15.6 5.3,4.7 13.7,8.1 25.8,8.1 v 0 c 0.8,0 1.6,0 2.4,0 5.5,-0.2 9.4,-1.2 12.2,-3.3 a 10,10 0 0 0 4,-8.3 19.62,19.62 0 0 0 -0.7,-4.9 c 11.5,0 20.5,-1.1 20.5,-14 0,-11.1 -9.8,-20.8 -19,-24 9.8,-30.6 9,-66.2 -1.7,-94.4 l -0.7,-0.5 a 99.8,99.8 0 0 0 29.9,-10.8 c 3.8,6 7.5,12 16.2,10.7 13,-1.8 18.5,-21.4 7.3,-32.9 a 47.18,47.18 0 0 0 5.8,-15.4 z" fill="#fff" stroke="#231f20" stroke-width="38.0052" style="stroke-width:0;" />
<path d="M 237.6,127.7 C 243,98 217.6,74.37 179,61.13 168.6,24.36 145.1,2.5 110.7,2.5 90.67,2.5 72.93,10.34 61.53,22.5 35.93,24.1 35.75,54.23 13.4,97.31 -4.09,131.1 9.67,166 51.88,171.4 45.29,186.7 41.88,204.3 41.54,222.2 20.13,197.7 26,172.3 14,173 c -15,0.8 4.19,54 30.81,83.6 a 133,133 0 0 0 3.98,14.4 c -9.29,3.2 -19,12.8 -19,24 0,12.7 8.7,13.9 20,14 a 20.85,20.85 0 0 0 -0.59,4.5 10.38,10.38 0 0 0 4,8.5 c 2.84,2.2 6.87,3.3 12.5,3.5 0.82,0 1.63,0 2.42,0 v 0 c 11.9,0 20.08,-3.3 25.25,-8 a 21.22,21.22 0 0 0 7.23,-15.5 15.26,15.26 0 0 0 -0.4,-3.6 17.81,17.81 0 0 1 -0.35,-2 168.7,168.7 0 0 1 28.85,-0.2 c -0.1,1 -0.2,1.8 -0.3,2.2 a 14,14 0 0 0 -0.4,3.4 c 0,4.9 2.2,10.8 7.6,15.6 5.3,4.7 13.7,8.1 25.8,8.1 v 0 c 0.8,0 1.6,0 2.4,0 5.5,-0.2 9.5,-1.2 12.2,-3.3 a 10,10 0 0 0 4,-8.3 19.62,19.62 0 0 0 -0.7,-4.9 c 11.5,0 20.5,-1.1 20.5,-14 0,-11.1 -9.8,-20.8 -19,-24 9.8,-30.6 9,-66.2 -1.7,-94.4 l -0.7,-0.5 a 99.8,99.8 0 0 0 29.9,-10.8 c 3.8,6 7.5,12 16.2,10.7 13,-1.8 18.5,-21.4 7.3,-32.9 a 47.18,47.18 0 0 0 5.8,-15.4 z" fill="#fff" stroke="#231f20" stroke-width="23.7533" style="stroke-width:5.7992;" />
<path d="m 180.8,271 c 4,-2 20,6 19,24 -1,18 -23,14 -23,14 l -10,-23 c 0,0 -4,-44 -3,-67 1,-23 -15,-39 -15,-39 a 125.8,125.8 0 0 1 16,-1 c 9,0 14.2,-2.5 14.2,-2.5 0,0 7.8,9.5 8.8,41.5 1,32 -11,55 -7,53 z" fill="#a97f2c" style="stroke-width:22.5687" />
<path d="m 158.8,23 c 9,9 21.8,40.45 21.8,40.45 0,0 -22.5,-2.28 -32.1,-11.37 C 142.9,46.84 117,4.12 117,4.12 c 8,0 32.8,9.88 41.8,18.88 z" fill="#a97f2c" style="stroke-width:22.5687" />
<path d="m 110.7,2.5 c 0,0 31,46.83 30.7,63.68 -0.5,24.7 -43.58,18.92 -15.6,86.82 7,17 -9,31 -32.02,27 -10.48,-1.8 -30,3 -30,34 0,31 -2,72 -2,72 l -9,23 c 0,0 -22,3 -22,-10 0,-13 6,-17 15,-24 9,-7 -0.94,-18.4 -0.94,-18.4 0,0 -31.06,-44.6 -32.06,-51.6 -1,-7 11,-16 11,-16 0,0 14.53,30.4 17.76,33.2 3.23,2.8 2.24,-39.2 8.24,-45.2 6,-6 9,-151 9,-151 0,0 4.79,-17 51.92,-23.5 z" fill="#a97f2c" style="stroke-width:22.5687" />
<path d="M 102.8,127 C 62.44,134.2 42.34,177.7 41.54,222.2 20.13,197.7 26,172.3 14,173 c -15,0.8 4.19,54 30.81,83.6 a 133,133 0 0 0 3.98,14.4 c -9.29,3.2 -19,12.8 -19,24 0,13.8 10.29,14 23,14 a 22,22 0 0 0 15.84,-6.9 c 29.16,-8.1 61.17,-9.1 92.27,0 a 22,22 0 0 0 15.9,6.9 c 12.7,0 23,-0.2 23,-14 0,-11.2 -9.7,-20.8 -19,-24 9.8,-30.6 9,-66.2 -1.7,-94.5" fill="none" stroke="#231f20" stroke-width="23.7533" style="stroke-width:5.7992;" />
<path d="m 64.78,210 c 0,0 -1,65 -3,76 -2,11 -24,36 4,37 28,1 34,-16 32,-24 -2,-8 -4,-68 -4,-68" fill="#fff" style="stroke-width:22.5687" />
<path d="m 68.11,325.5 c -0.79,0 -1.6,0 -2.42,0 v 0 c -5.63,-0.2 -9.66,-1.3 -12.5,-3.4 v 0 a 10.38,10.38 0 0 1 -4,-8.6 v 0 c 0,-5.1 2.46,-10.4 4.84,-15.5 v 0 c 2.4,-5 4.86,-9.7 5.31,-12.4 v 0 c 0.45,-2.5 0.9,-8.6 1.27,-16.2 v 0 c 0.37,-7.6 0.69,-16.8 0.94,-25.6 v 0 C 62.04,226.2 62.3,231 62.3,223.6 A 40.44,40.44 0 0 1 64.78,210 c 0,0 2.49,5 2.49,13.7 0,6.3 -0.56,23 -1.69,45.9 v 0 c -0.38,7.7 -0.8,13.8 -1.35,16.9 v 0 c -0.78,4.1 -3.38,8.8 -5.72,13.7 v 0 c -2.36,4.9 -4.38,9.9 -4.34,13.3 v 0 a 5.35,5.35 0 0 0 2.06,4.6 v 0 c 1.54,1.2 4.56,2.3 9.63,2.4 v 0 c 0.77,0 1.51,0 2.25,0 v 0 c 11,0 17.84,-3 21.93,-6.7 v 0 A 16.26,16.26 0 0 0 95.63,302 v 0 a 10.28,10.28 0 0 0 -0.28,-2.4 v 0 c -0.6,-2.5 -1,-7.6 -1.54,-14.5 v 0 c -0.47,-6.7 -0.91,-15 -1.28,-23 v 0 c -0.75,-16 -0.54,-12.3 -0.54,-18.7 A 47.53,47.53 0 0 1 93.78,231 37.86,37.86 0 0 1 97,245 c 0,7.1 -0.44,-5.7 0,5.3 v 0 c 0.46,11 1.09,24.5 1.79,34.5 v 0 a 119.7,119.7 0 0 0 1.41,13.6 v 0 a 15.26,15.26 0 0 1 0.4,3.6 v 0 a 21.22,21.22 0 0 1 -7.2,15.5 v 0 c -5.17,4.7 -13.35,8 -25.25,8 v 0 z" fill="#231f20" style="stroke-width:22.5687" />
<path d="m 163.8,210 c 0,0 1,65 3,76 2,11 25,36 -3,37 -28,1 -35,-16 -33,-24 2,-8 4,-68 4,-68" fill="#fff" style="stroke-width:22.5687" />
<path d="m 135.6,317.4 c -5.4,-4.8 -7.6,-10.8 -7.6,-15.7 v 0 a 14,14 0 0 1 0.4,-3.3 v 0 a 119.7,119.7 0 0 0 1.4,-13.6 v 0 c 0.4,-6.7 0.9,-15 1.2,-22.9 v 0 c 0.8,-16 1.3,-13.5 1.3,-19.4 0,-5.9 3,-11.6 3,-11.6 a 38.48,38.48 0 0 1 2,11.8 c 0,6.5 -1.1,22.1 -2.6,42.4 v 0 c -0.4,6.9 -0.9,12 -1.5,14.5 v 0 a 8.92,8.92 0 0 0 -0.2,2.1 v 0 a 16.46,16.46 0 0 0 5.9,11.9 v 0 c 4.3,3.8 11.4,6.9 22.5,6.9 v 0 c 0.8,0 1.5,0 2.3,0 v 0 c 4.9,-0.1 7.9,-1.2 9.4,-2.3 v 0 a 4.88,4.88 0 0 0 2,-4.3 v 0 c 0,-3.4 -2.1,-8.5 -4.7,-13.4 v 0 c -2.5,-5 -5.2,-9.8 -6.1,-14 v 0 c -0.5,-3.1 -1,-9.2 -1.3,-16.9 v 0 c -0.4,-7.7 -0.7,-16.8 -0.9,-25.7 v 0 c -0.5,-17.6 -0.8,-19.5 -0.8,-25.8 a 96.35,96.35 0 0 1 1,-12.5 c 0,0 4,7.1 4,12.5 0,5.4 0.1,1 0.4,13 v 0 c 0.3,12 0.7,26.9 1.3,38.3 v 0 c 0.4,7.6 0.8,13.7 1.3,16.2 v 0 c 0.4,2.7 3,7.6 5.6,12.6 v 0 c 2.5,5.1 5.1,10.5 5.2,15.7 v 0 a 10,10 0 0 1 -4,8.3 v 0 c -2.8,2.1 -6.7,3.1 -12.2,3.3 v 0 c -0.8,0 -1.7,0 -2.4,0 v 0 c -12.1,0 -20.5,-3.4 -25.9,-8.1 z" fill="#231f20" style="stroke-width:22.5687" />
<path d="m 127,176.1 c 54.3,10 103.8,-11.7 110.5,-48.4 C 243,98 217.6,74.37 179,61.13 168.6,24.36 145.1,2.5 110.7,2.5 76.26,2.5 48.38,25.74 48.38,54.41" fill="none" stroke="#231f20" stroke-width="23.7533" style="stroke-width:5.7992;" />
<path d="m 240.4,99.78 c 1.6,9.72 -6.9,19.42 -19.1,21.42 -12.2,2.1 -23.4,-4.1 -25.1,-13.9 -1.6,-9.74 6.9,-19.3 19.1,-21.43 12.2,-2.13 23.4,4.13 25.1,13.91 z" fill="#231f20" stroke="#231f20" stroke-width="19.0026" style="stroke-width:1.0413;" />
<path d="M 103,96.77 C 124.9,154.7 91.42,172.2 63.66,172.2 12.29,172.2 -5.65,134 13.39,97.31 c 23,-44.26 22.5,-74.86 50.27,-74.86 27.77,0 24.77,35.63 39.34,74.32 z" fill="#a97f2c" style="stroke-width:22.5687" />
<path d="M 103,96.77 C 124.9,154.7 91.42,172.2 63.66,172.2 12.29,172.2 -5.65,134 13.39,97.31 c 23,-44.26 22.5,-74.86 50.27,-74.86 27.77,0 24.77,35.63 39.34,74.32 z" fill="none" stroke="#000" stroke-width="23.7533" style="stroke-width:5.7992;" />
<path d="m 231.3,89.15 c 0.9,2.48 -4.8,6.94 -12.8,10 -8.1,3.05 -15.3,3.45 -16.2,1.05 -1,-2.54 4.8,-6.99 12.8,-10.05 8,-3.06 15.2,-3.47 16.2,-1 z" fill="#fff" style="stroke-width:22.5687" />
<path style="fill:#231f20;stroke:#231f20;stroke-width:1.0413;" d="M 125.7,57.59 A 11.72,7.98 0 0 1 114,65.57 11.72,7.98 0 0 1 102.3,57.59 11.72,7.98 0 0 1 114,49.61 11.72,7.98 0 0 1 125.7,57.59 Z" />
<path d="m 176.6,49.55 c 0,4.69 -2.7,8.48 -9.1,8.48 -6.5,0 -11.6,-3.79 -11.6,-8.48 0,-4.69 5.2,-8.48 11.6,-8.48 6.4,0 9.1,3.8 9.1,8.48 z" fill="#231f20" style="stroke-width:22.5687" />
<path d="m 113.3,54.05 c 0,1.65 -1.7,3 -3.7,3 -2.1,0 -3.7,-1.34 -3.7,-3 0,-1.66 1.6,-3 3.7,-3 2,0 3.7,1.35 3.7,3 z" fill="#fff" style="stroke-width:22.5687" />
<path d="m 165.8,47.42 a 3.18,3.18 0 1 1 -3.1,-2.71 3,3 0 0 1 3.1,2.71 z" fill="#fff" style="stroke-width:22.5687" />
<path d="m 161.5,167 c 33.1,10.2 74.3,-0.1 75.7,-41.7 0,0 0.8,-9 -1.4,-4.7 -10,19.4 -33.4,28.1 -70.5,32.8 -5.2,0.6 -16.4,0.7 -17.1,5.6 -0.3,2.7 3.1,4.9 13.3,8 z" fill="#231f20" style="stroke-width:4.614;" />
<path d="m 226.9,139.1 c 15.2,10.1 11.1,32.7 -2.7,35.4 -15.5,3.2 -16.1,-17.8 -29.2,-20.4 0,0 13.2,-2.7 20.3,-6.4 a 46.92,46.92 0 0 0 11.6,-8.6 z" fill="#f26322" stroke="#231f20" stroke-width="23.7533" style="stroke-width:5.7992;" />
<path d="m 216.9,149.3 c 0,0 10.8,5.9 11.8,20.8 0,0 -2.9,-8.9 -5.3,-12.1 z" fill="#a74624" style="stroke-width:22.5687" />
<path d="m 100.9,117.1 c 0,0 10.5,52.5 -54.02,43.5 0,0 24,-12 33,-19.5 9,-7.5 21.02,-24 21.02,-24 z" fill="#886327" style="stroke-width:22.5687" />
</g>
</svg>