<svg width="54mm" height="37.2mm" viewBox="0 0 54 37.2" xmlns="http://www.w3.org/2000/svg" >
<path style="fill:#dea;stroke-width:0.3" d="m 18,0.1 34.95,0.029 c 0.72,6e-4 0.97,0.79 0.97,1.37 V 7.1 L 18,7.1 Z" />
<rect width="53.82" height="37" x="0.1" y="0.1" style="fill:none;stroke:#000;stroke-width:0.2;stroke-miterlimit:4;" ry="1.143" rx="1.143" />
<text style="font-size:6.35px;font-family:sans-serif;text-align:center;text-anchor:middle;fill:#070;stroke:none" x="5.698" y="5.867" >
<tspan style="font-size:6.35px;text-align:center;text-anchor:middle;fill:#070;stroke-width:0.264591" x="9.022" y="5.867" >27</tspan>
</text>
<text style="font-size:10.0197px;font-family:sans-serif;stroke:none" x="5.627" y="17.42" >
<tspan style="font-size:6.01185px" x="5.627" y="17.42" >Ładowarka</tspan>
<tspan x="5.627" y="29.96" style="font-size:7.7611px;font-family:sans-serif;-inkscape-font-specification:'sans-serif, Normal';" >SAMOCHÓD</tspan>
</text>
<rect width="53.8" height=".2" x="0.1" y="7" />
<rect width="0.2" height="7" x="17.9" y="0.1" />
<path d="m 38.48,2.01 v 0 L 37.24,0.7701 36.89,1.123 37.58,1.827 C 37.28,1.941 37.05,2.243 37.05,2.6 a 0.8335,0.8335 0 0 0 0.83,0.834 c 0.13,0 0.23,-0.03 0.34,-0.08 V 5.767 A 0.3334,0.3334 0 0 1 37.88,6.1 0.3334,0.3334 0 0 1 37.56,5.767 v -1.5 A 0.6668,0.6668 0 0 0 36.89,3.6 H 36.55 V 1.267 A 0.6668,0.6668 0 0 0 35.88,0.6001 H 33.89 A 0.6668,0.6668 0 0 0 33.22,1.267 V 6.6 h 3.33 V 4.1 h 0.5 V 5.767 A 0.8335,0.8335 0 0 0 37.88,6.6 0.8335,0.8335 0 0 0 38.71,5.767 V 2.6 c 0,-0.23 -0.1,-0.44 -0.23,-0.59 m -0.6,0.924 A 0.3334,0.3334 0 0 1 37.56,2.6 0.3334,0.3334 0 0 1 37.88,2.267 0.3334,0.3334 0 0 1 38.22,2.6 0.3334,0.3334 0 0 1 37.88,2.934 M 34.56,5.6 V 4.1 h -0.67 l 1.33,-2.501 v 1.667 h 0.66 z" style="stroke-width:0.264589" />
</svg>