<svg width="18mm" height="37.2mm" viewBox="0 0 18 37.2" xmlns="http://www.w3.org/2000/svg" >

<path style="fill:#dea;stroke-width:0.3;" d="m 10.1,0.1 6.56,0 c 0.86,0 1.23,0.51 1.24,1.37 V 7.1 h -7.8 z" />
<rect width="17.8" height="37" x="0.1" y="0.1" style="fill:none;stroke:#000;stroke-width:0.2;stroke-miterlimit:4;" ry="1.143" rx="1.143" />
<text style="font-size:6.35px;font-family:sans-serif;text-align:center;text-anchor:middle;fill:#070;stroke:none" x="1.652" y="5.88" >
<tspan style="font-size:6.35px;text-align:center;text-anchor:middle;fill:#070;stroke-width:0.264592" x="4.938" y="5.88" >14</tspan>
</text>
<text style="font-size:5.30567px;font-family:sans-serif;stroke:none" x="-35.51" y="6.861" transform="rotate(-90)" >
<tspan style="font-size:3.18341px;stroke-width:0.132647" x="-35.51" y="6.861" >Garaż</tspan>
<tspan style="font-size:5.6444px;font-family:sans-serif;-inkscape-font-specification:'sans-serif, Normal';stroke-width:0.132647" x="-35.51" y="13.49" >BRAMA</tspan>
</text>
<rect width="17.8" height=".2" x="0.1" y="7" />
<rect width="0.2" height="7" x="10" y=".1" />
<path d="m 16.12,2.672 v 2.91 H 15.59 V 3.201 h -4.23 v 2.381 h -0.53 v -2.91 l 2.64,-1.055 2.65,1.055 m -0.8,0.794 h -3.7 v 0.529 h 3.7 V 3.466 m 0,0.794 h -3.7 v 0.529 h 3.7 V 4.26 m 1.33,0 V 2.937 h 0.52 V 4.26 h -0.52 m 0,1.058 V 4.789 h 0.52 v 0.529 z" style="stroke-width:0.264583" />
</svg>