<svg width="18mm" height="37.2mm" viewBox="0 0 18 37.2" xmlns="http://www.w3.org/2000/svg" >
<path style="fill:#dea;stroke-width:0.3;" d="m 10.1,0.1 6.56,0 c 0.86,0 1.23,0.51 1.24,1.37 V 7.1 h -7.8 z" />
<rect width="17.8" height="37" x="0.1" y="0.1" style="fill:none;stroke:#000;stroke-width:0.2;stroke-miterlimit:4;" ry="1.143" rx="1.143" />
<text style="font-size:6.35px;font-family:sans-serif;text-align:end;text-anchor:end;fill:#007700;stroke:none" x="9.35" y="6.07" >
<tspan style="font-size:6.35px;text-align:end;text-anchor:end;fill:#007700;stroke-width:0.264592" x="9.35" y="6.07" >18</tspan>
</text>
<text style="font-size:5.30567px;font-family:sans-serif;stroke:none" x="-34.88" y="6.865" transform="rotate(-90)" >
<tspan style="font-size:3.18341px;stroke-width:0.132647" x="-34.88" y="6.865" >Brama</tspan>
<tspan style="font-size:4.9389px;font-family:sans-serif;-inkscape-font-specification:'sans-serif, Normal';stroke-width:0.132647" x="-34.88" y="13.49" >WJAZDOWA</tspan>
</text>
<rect width="17.8" height=".2" x="0.1" y="7" />
<rect width="0.2" height="7" x="10" y=".1" />
<path d="M 13.22,1.6 V 2.933 H 12.67 V 1.866 H 12.13 V 2.933 H 11.61 V 2.4 h -0.54 v 3.2 h 0.54 V 5.059 h 0.52 V 5.6 h 0.54 V 5.059 h 0.55 V 5.6 h 0.51 V 5.059 h 0.55 V 5.6 h 0.54 V 5.059 h 0.51 V 5.6 h 0.54 V 5.059 h 0.54 V 5.6 h 0.52 V 2.4 H 16.41 V 2.933 H 15.87 V 1.866 H 15.33 V 2.933 H 14.82 V 1.6 H 14.28 V 2.933 H 13.73 V 1.6 h -0.51 m -1.61,1.866 h 0.52 V 4.528 H 11.61 V 3.466 m 1.06,0 h 0.55 V 4.528 H 12.67 V 3.466 m 1.06,0 h 0.55 V 4.528 H 13.73 V 3.466 m 1.09,0 h 0.51 V 4.528 H 14.82 V 3.466 m 1.05,0 h 0.54 v 1.062 h -0.54 z" style="stroke-width:0.264653" />
</svg>