<svg width="54mm" height="37.2mm" viewBox="0 0 54 37.2" xmlns="http://www.w3.org/2000/svg" >
<path style="fill:#ddeeaa;stroke-width:0.3;" d="m 10.1,0.1 42.85,0.029 c 0.72,0 0.97,0.79 0.97,1.3696 l -0,5.601 H 10.1 Z" />
<rect width="53.82" height="37" x="0.1" y="0.1" style="fill:none;stroke:#000;stroke-width:0.2;stroke-miterlimit:4;" ry="1.143" rx="1.143" />
<text style="font-size:6.35px;font-family:sans-serif;text-align:end;text-anchor:end;fill:#007700;stroke:none" x="9.32" y="6.07" >
<tspan style="font-size:6.35px;text-align:end;text-anchor:end;fill:#007700;stroke-width:0.264591" x="9.32" y="6.07" >17</tspan>
</text>
<text style="font-size:10.0197px;font-family:sans-serif;stroke:none" x="5.627" y="17.42" >
<tspan style="font-size:6.01185px" x="5.627" y="17.42" >Pompa</tspan>
<tspan x="5.627" y="29.96" >CIEPŁA</tspan>
</text>
<rect width="53.8" height=".2" x="0.1" y="7" />
<rect width="0.2" height="7" x="10" y=".1" />
<path d="m 33.86,1.22 h -3.7 c -0.29,0 -0.53,0.24 -0.53,0.53 v 3.7 c 0,0.291 0.24,0.529 0.53,0.529 h 3.7 c 0.29,0 0.53,-0.238 0.53,-0.529 v -3.7 c 0,-0.29 -0.24,-0.53 -0.53,-0.53 m 0,4.23 h -3.7 v -3.7 h 3.7 v 3.7 M 32.01,5.185 c 0.88,0 1.59,-0.711 1.59,-1.585 0,-0.88 -0.71,-1.59 -1.59,-1.59 -0.88,0 -1.59,0.71 -1.59,1.59 0,0.874 0.71,1.585 1.59,1.585 m -0.2,-0.55 C 31.67,4.605 31.53,4.545 31.42,4.471 L 31.81,4.07 v 0.565 m 0.4,0 V 4.08 l 0.4,0.394 c -0.12,0.08 -0.26,0.135 -0.4,0.161 M 32.89,4.19 32.49,3.8 h 0.56 c 0,0.14 -0.1,0.27 -0.16,0.39 M 33.05,3.4 H 32.49 L 32.89,3 c 0.1,0.12 0.13,0.25 0.16,0.4 M 32.21,2.56 c 0.14,0 0.28,0.1 0.4,0.17 l -0.4,0.39 V 2.56 m -0.2,0.77 c 0.15,0 0.27,0.12 0.27,0.27 0,0.14 -0.12,0.26 -0.27,0.26 -0.15,0 -0.26,-0.12 -0.26,-0.26 0,-0.15 0.11,-0.27 0.26,-0.27 m -0.2,-0.77 v 0.56 l -0.39,-0.4 c 0.11,-0.1 0.25,-0.13 0.39,-0.16 M 31.13,3 l 0.4,0.4 h -0.56 c 0,-0.15 0.1,-0.28 0.16,-0.4 m 0.4,0.8 -0.4,0.39 C 31.03,4.08 31,3.94 30.97,3.8 Z" style="stroke-width:0.264583" />
</svg>