<svg width="18mm" height="37.2mm" viewBox="0 0 18 37.2" xmlns="http://www.w3.org/2000/svg" >
<path style="fill:#dea;stroke-width:0.3;" d="m 10.1,0.1 6.56,0 c 0.86,0 1.23,0.51 1.24,1.37 V 7.1 h -7.8 z" />
<rect width="17.8" height="37" x="0.1" y="0.1" style="fill:none;stroke:#000;stroke-width:0.2;stroke-miterlimit:4;" ry="1.143" rx="1.143" />
<text style="font-size:6.35px;font-family:sans-serif;text-align:end;text-anchor:end;fill:#070;stroke:none" x="9.35" y="6.07" >
<tspan style="font-size:6.35px;text-align:end;text-anchor:end;fill:#070;stroke-width:0.264592" x="9.35" y="6.07" >11</tspan>
</text>
<text style="font-size:5.30567px;font-family:sans-serif;stroke:none" x="-34.88" y="6.795" transform="rotate(-90)" >
<tspan style="font-size:3.18341px;stroke-width:0.132647" x="-34.88" y="6.795" >Ogrzewanie</tspan>
<tspan style="stroke-width:0.132647" x="-34.88" y="13.42" >PODŁOGA</tspan>
</text>
<rect width="17.8" height=".2" x="0.1" y="7" />
<rect width="0.2" height="7" x="10" y=".1" />
<path d="m 15.85,4.923 c 0.32,0 0.79,-0.212 0.79,-0.794 0,-0.582 -0.47,-0.794 -0.79,-0.794 H 15.32 V 2.806 h 0.53 c 0.58,0 0.79,-0.473 0.79,-0.794 0,-0.582 -0.47,-0.793 -0.79,-0.793 H 15.32 V 0.954 H 15.05 V 1.219 H 12.93 V 0.954 h -0.26 v 0.265 h -1.32 v 0.529 h 1.32 v 0.529 h -0.52 c -0.32,0 -0.8,0.212 -0.8,0.794 0,0.582 0.48,0.794 0.79,0.794 h 0.53 v 0.529 h -0.52 c -0.32,0 -0.8,0.211 -0.8,0.793 0,0.583 0.48,0.794 0.79,0.794 h 0.53 v 0.265 h 0.26 V 5.981 h 2.12 v 0.265 h 0.27 V 5.981 h 1.32 V 5.452 H 15.32 V 4.923 h 0.53 m 0,-1.058 c 0.12,0 0.26,0.05 0.26,0.264 0,0.214 -0.14,0.265 -0.26,0.265 H 15.32 V 3.865 h 0.53 m -0.8,-0.53 H 12.93 V 2.806 h 2.12 v 0.529 m 0.8,-1.587 c 0.11,0 0.26,0.05 0.26,0.264 0,0.12 -0.1,0.265 -0.26,0.265 H 15.32 V 1.748 h 0.53 m -2.92,0 h 2.12 V 2.277 H 12.93 V 1.748 m -0.78,1.587 c -0.13,0 -0.27,-0.05 -0.27,-0.264 0,-0.214 0.14,-0.265 0.27,-0.265 h 0.52 v 0.529 h -0.52 m 0.78,0.53 h 2.13 V 4.394 H 12.93 V 3.865 m -0.78,1.587 c -0.13,0 -0.27,-0.05 -0.27,-0.265 0,-0.214 0.14,-0.264 0.27,-0.264 h 0.52 v 0.529 h -0.52 m 2.91,0 H 12.93 V 4.923 h 2.12 z" style="stroke-width:0.264583" />
</svg>