<svg width="18mm" height="37.2mm" viewBox="0 0 18 37.2" xmlns="http://www.w3.org/2000/svg" >
<path style="fill:#dea;stroke-width:0.3;" d="m 10.1,0.1 6.56,0 c 0.86,0 1.23,0.51 1.24,1.37 V 7.1 h -7.8 z" />
<rect width="17.8" height="37" x="0.1" y="0.1" style="fill:none;stroke:#000;stroke-width:0.2;stroke-miterlimit:4;" ry="1.143" rx="1.143" />
<text style="font-size:6.35px;font-family:sans-serif;text-align:end;text-anchor:end;fill:#070;stroke:none" x="9.35" y="6.07" >
<tspan style="font-size:6.35px;text-align:end;text-anchor:end;fill:#070;stroke-width:0.264592" x="9.35" y="6.07" >28</tspan>
</text>
<text style="font-size:5.30567px;font-family:sans-serif;stroke:none" x="-34.88" y="6.795" transform="rotate(-90)" >
<tspan style="font-size:3.18341px;stroke-width:0.132647" x="-34.88" y="6.795" >Zasilanie</tspan>
<tspan style="font-size:4.9389px;font-family:sans-serif;-inkscape-font-specification:'sans-serif, Normal';stroke-width:0.132647" x="-34.88" y="13.42" >HYDROFOR</tspan>
</text>
<rect width="17.8" height=".2" x="0.1" y="7" />
<rect width="0.2" height="7" x="10" y=".1" />
<path d="m 16.1,4.35 c 0,0 0.6,0.65 0.6,1.05 A 0.6001,0.6001 0 0 1 16.1,6 0.6001,0.6001 0 0 1 15.5,5.4 C 15.5,5 16.1,4.35 16.1,4.35 M 11.91,5.4 V 2.699 a 0.6001,0.6001 0 0 1 -0.6,-0.6 0.6001,0.6001 0 0 1 0.6,-0.6 v -0.3 A 0.6001,0.6001 0 0 1 12.5,0.5995 h 0.6 a 0.6001,0.6001 0 0 1 0.6,0.5995 v 0.3 h 2.4 a 0.6001,0.6001 0 0 1 0.6,0.6 v 0.6 0.6 A 0.3,0.3 0 0 1 17,3.6 0.3,0.3 0 0 1 16.7,3.9 H 15.5 A 0.3,0.3 0 0 1 15.2,3.6 0.3,0.3 0 0 1 15.5,3.299 v -0.6 H 13.7 V 5.4 H 14 A 0.6001,0.6001 0 0 1 14.6,6 V 6.6 H 11 V 6 a 0.6001,0.6001 0 0 1 0.6,-0.6 z" style="stroke-width:0.264583" />
</svg>