<svg width="18mm" height="37.2mm" viewBox="0 0 18 37.2" xmlns="http://www.w3.org/2000/svg" >

<path style="fill:#dea;stroke-width:0.3;" d="m 10.1,0.1 6.56,0 c 0.86,0 1.23,0.51 1.24,1.37 V 7.1 h -7.8 z" />
<rect width="17.8" height="37" x="0.1" y="0.1" style="fill:none;stroke:#000;stroke-width:0.2;stroke-miterlimit:4;" ry="1.143" rx="1.143" />
<text style="font-size:6.35px;font-family:sans-serif;text-align:center;text-anchor:middle;fill:#070;stroke:none" x="1.914" y="6.07" >
<tspan style="font-size:6.35px;text-align:center;text-anchor:middle;fill:#070;stroke-width:0.264592" x="5.105" y="6.07" >16</tspan>
</text>
<text style="font-size:5.30567px;font-family:sans-serif;stroke:none" x="-34.41" y="6.873" transform="rotate(-90)" >
<tspan style="font-size:3.18341px;stroke-width:0.132647" x="-34.41" y="6.873" >Kuchnia</tspan>
<tspan style="font-size:5.6444px;font-family:sans-serif;-inkscape-font-specification:'sans-serif, Normal';stroke-width:0.132647" x="-34.41" y="13.49" >OKAP</tspan>
</text>
<rect width="17.8" height=".2" x="0.1" y="7" />
<rect width="0.2" height="7" x="10" y=".1" />
<path style="stroke-width:0.412739" d="M 13.11 0.8222 L 13.11 2.473 L 11 3.441 L 11 4.649 L 16.99 4.649 L 16.99 3.441 L 14.88 2.473 L 14.88 0.8222 L 13.11 0.8222 z M 13.47 1.178 L 14.52 1.178 L 14.52 2.409 L 13.47 2.409 L 13.47 1.178 z M 13.33 2.766 L 14.66 2.766 L 16 3.377 L 11.99 3.377 L 13.33 2.766 z M 11.36 3.733 L 16.63 3.733 L 16.63 4.294 L 11.36 4.294 L 11.36 3.733 z M 12.52 4.938 L 12.52 5.101 C 12.52 5.171 12.42 5.258 12.42 5.418 C 12.42 5.578 12.42 5.669 12.52 5.735 L 12.52 5.898 L 12.52 6.061 C 12.52 6.131 12.42 6.217 12.42 6.378 L 12.77 6.378 L 12.77 6.215 C 12.77 6.145 12.87 6.058 12.87 5.898 C 12.87 5.738 12.77 5.647 12.77 5.581 L 12.77 5.418 L 12.78 5.418 L 12.78 5.256 C 12.78 5.186 12.88 5.099 12.88 4.938 L 12.52 4.938 z M 13.41 4.938 L 13.41 5.101 C 13.41 5.171 13.31 5.258 13.31 5.418 C 13.31 5.578 13.31 5.669 13.41 5.735 L 13.41 5.898 L 13.41 6.061 C 13.41 6.131 13.31 6.217 13.31 6.378 L 13.66 6.378 L 13.66 6.215 C 13.66 6.145 13.76 6.058 13.76 5.898 C 13.76 5.738 13.76 5.647 13.66 5.581 L 13.66 5.418 L 13.67 5.418 L 13.67 5.256 C 13.67 5.186 13.77 5.099 13.77 4.938 L 13.41 4.938 z M 14.31 4.938 L 14.31 5.101 C 14.31 5.171 14.21 5.258 14.21 5.418 C 14.21 5.578 14.31 5.669 14.31 5.735 L 14.31 5.898 L 14.31 6.061 C 14.31 6.131 14.21 6.217 14.21 6.378 L 14.57 6.378 L 14.57 6.215 C 14.57 6.145 14.67 6.058 14.67 5.898 C 14.67 5.738 14.67 5.647 14.57 5.581 L 14.57 5.418 L 14.56 5.418 L 14.56 5.256 C 14.56 5.186 14.66 5.099 14.66 4.938 L 14.31 4.938 z M 15.2 4.938 L 15.2 5.101 C 15.2 5.171 15.1 5.258 15.1 5.418 C 15.1 5.578 15.2 5.669 15.2 5.735 L 15.2 5.898 L 15.2 6.061 C 15.2 6.131 15.1 6.217 15.1 6.378 L 15.46 6.378 L 15.46 6.215 C 15.46 6.145 15.56 6.058 15.56 5.898 C 15.56 5.738 15.56 5.647 15.46 5.581 L 15.46 5.418 L 15.45 5.418 L 15.45 5.256 C 15.45 5.186 15.55 5.099 15.55 4.938 L 15.2 4.938 z " />
</svg>