<svg width="72mm" height="37.2mm" viewBox="0 0 54 37.2" xmlns="http://www.w3.org/2000/svg" >

<path style="fill:#dea;stroke-width:0.3" d="m 9,0.1 52.93,0.129 c 0.72,0 0.97,0.79 0.97,1.37 V 7.2 L 9,7.1 Z" />
<rect width="71.82" height="37" x="-8.9" y="0.1" style="fill:none;stroke:#000;stroke-width:0.2;stroke-miterlimit:4" ry="1.143" rx="1.143" />
<text style="font-size:6.35px;font-family:sans-serif;text-align:center;text-anchor:middle;fill:#070;stroke:none" x="-2.255" y="5.867" >
<tspan style="font-size:6.35px;text-align:center;text-anchor:middle;fill:#070;stroke-width:0.264591" x="0.406" y="5.867" >27</tspan>
</text>
<text style="font-size:10.0197px;font-family:sans-serif;stroke:none" x="5.766" y="14.6" >
<tspan style="font-size:6px" x="5.766" y="14.6" >Kuchnia</tspan>
<tspan x="5.766" y="27.14" style="font-size:7px;font-family:sans-serif;-inkscape-font-specification:'sans-serif, Normal'" >INDUKCYJNA</tspan>
</text>
<rect width="71.8" height="0.2" x="-8.9" y="7" />
<rect width="0.2" height="7" x="8.9" y="0.1" />
<path d="m 39.25,0.65 c -0.67,0 -1.27,0.18 -1.74,0.39 C 37.09,0.83 36.55,0.65 35.95,0.65 35.35,0.65 34.82,0.83 34.4,1.04 33.93,0.83 33.33,0.65 32.65,0.65 v 0.6 c 0.41,0 0.78,0.11 1.11,0.19 -0.2,0.15 -0.31,0.27 -0.33,0.28 -0.11,0.12 -0.18,0.27 -0.18,0.42 v 3.3 c 0,0.67 0.54,1.21 1.21,1.21 0.65,0 1.2,-0.54 1.2,-1.21 v -3.3 c 0,-0.17 -0.12,-0.33 -0.21,-0.44 0,0 -0.16,-0.13 -0.39,-0.29 0.27,-0.12 0.57,-0.16 0.89,-0.16 0.33,0 0.63,0.11 0.91,0.16 -0.25,0.16 -0.39,0.27 -0.4,0.29 -0.13,0.11 -0.2,0.27 -0.2,0.44 v 3.3 c 0,0.67 0.53,1.21 1.19,1.21 0.67,0 1.2,-0.54 1.2,-1.21 v -3.3 c 0,-0.15 -0.11,-0.3 -0.17,-0.42 0,0 -0.14,-0.13 -0.34,-0.28 0.33,-0.11 0.7,-0.19 1.11,-0.19 v -0.6 m -4.19,1.49 v 3.3 c 0,0.34 -0.28,0.6 -0.6,0.6 -0.34,0 -0.61,-0.26 -0.61,-0.6 v -3.3 c 0,0 0.21,-0.2 0.56,-0.42 0.41,0.22 0.65,0.42 0.65,0.42 m 2.99,0 v 3.3 c 0,0.34 -0.26,0.6 -0.6,0.6 -0.33,0 -0.59,-0.26 -0.59,-0.6 v -3.3 c 0,0 0.24,-0.2 0.63,-0.42 0.36,0.22 0.56,0.42 0.56,0.42 z" style="stroke-width:0.264533" />
<text style="font-weight:bold;font-size:4.20185px;font-family:sans-serif;-inkscape-font-specification:'sans-serif, Bold';fill:#800;stroke-width:0.26461" x="15.76" y="36" >
<tspan style="font-weight:bold;font-size:4.20185px;font-family:sans-serif;-inkscape-font-specification:'sans-serif, Bold';fill:#800;stroke-width:0.26461" x="15.76" y="36" >L1</tspan>
</text>
<text style="font-weight:bold;font-size:4.20185px;font-family:sans-serif;-inkscape-font-specification:'sans-serif, Bold';stroke-width:0.26461" x="33.49" y="36.03" >
<tspan style="font-weight:bold;font-size:4.20185px;font-family:sans-serif;-inkscape-font-specification:'sans-serif, Bold';stroke-width:0.26461" x="33.49" y="36.03" >L2</tspan>
</text>
<text style="font-weight:bold;font-size:4.20185px;font-family:sans-serif;-inkscape-font-specification:'sans-serif, Bold';fill:#777;stroke-width:0.26461" x="51.51" y="36.03" >
<tspan style="font-weight:bold;font-size:4.20185px;font-family:sans-serif;-inkscape-font-specification:'sans-serif, Bold';fill:#777;stroke-width:0.26461" x="51.51" y="36.03" >L3</tspan>
</text>
<rect width="71.8" height="0.2" x="-8.9" y="31.5" />
</svg>