<svg width="18mm" height="37.2mm" viewBox="0 0 18 37.2" xmlns="http://www.w3.org/2000/svg" >
<path style="fill:#dea;stroke-width:0.3;" d="m 10.1,0.1 6.56,0 c 0.86,0 1.23,0.51 1.24,1.37 V 7.1 h -7.8 z" />
<rect width="17.8" height="37" x="0.1" y="0.1" style="fill:none;stroke:#000;stroke-width:0.2;stroke-miterlimit:4;" ry="1.143" rx="1.143" />
<text style="font-size:6.35px;font-family:sans-serif;text-align:end;text-anchor:end;fill:#007700;stroke:none" x="9.35" y="6.07" >
<tspan style="font-size:6.35px;text-align:end;text-anchor:end;fill:#007700;stroke-width:0.264592" x="9.35" y="6.07" >8</tspan>
</text>
<text style="font-size:5.30567px;font-family:sans-serif;stroke:none" x="-34.88" y="6.795" transform="rotate(-90)" >
<tspan style="font-size:3.18341px;stroke-width:0.132647" x="-34.88" y="6.795" >Salon</tspan>
<tspan style="stroke-width:0.132647" x="-34.88" y="13.42" >AUDIO</tspan>
</text>
<rect width="17.8" height=".2" x="0.1" y="7" />
<rect width="0.2" height="7" x="10" y=".1" />
<path d="M 16.12,2.013 H 11.88 A 0.5292,0.5292 0 0 0 11.35,2.542 V 4.13 a 0.5292,0.5292 0 0 0 0.53,0.529 h 0.27 v 0.264 c 0,0.159 0.1,0.265 0.26,0.265 h 0.53 c 0.16,0 0.27,-0.1 0.27,-0.265 V 4.659 h 1.58 v 0.264 c 0,0.159 0.11,0.265 0.27,0.265 h 0.53 c 0.16,0 0.26,-0.1 0.26,-0.265 V 4.659 h 0.27 A 0.5292,0.5292 0 0 0 16.65,4.13 V 2.542 A 0.5292,0.5292 0 0 0 16.12,2.013 M 14.53,3.336 H 11.88 V 2.807 h 2.65 v 0.529 m 1,0.265 a 0.5292,0.5292 0 0 1 -0.53,-0.53 0.5292,0.5292 0 0 1 0.53,-0.529 0.5292,0.5292 0 0 1 0.53,0.529 0.5292,0.5292 0 0 1 -0.53,0.53 M 12.41,4.13 H 11.88 V 3.865 h 0.53 V 4.13 m 1,0 H 12.94 V 3.865 h 0.53 V 4.13 m 1,0 H 14 V 3.865 h 0.53 z" style="stroke-width:0.264583" />
</svg>
