<svg width="54mm" height="37.2mm" viewBox="0 0 54 37.2" xmlns="http://www.w3.org/2000/svg" >
<path style="fill:#ddeeaa;stroke-width:0.3" d="m 18,0.1 34.95,0.029 c 0.72,6e-4 0.97,0.79 0.97,1.37 V 7.1 L 18,7.1 Z" />
<rect width="53.82" height="37" x="0.1" y="0.1" style="fill:none;stroke:#000;stroke-width:0.2;stroke-miterlimit:4;" ry="1.143" rx="1.143" />
<text style="font-size:6.35px;font-family:sans-serif;text-align:center;text-anchor:middle;fill:#070;stroke:none" x="6.745" y="5.867" >
<tspan style="font-size:6.35px;text-align:center;text-anchor:middle;fill:#070;stroke-width:0.264591" x="9.406" y="5.867" >27</tspan>
</text>
<text style="font-size:10.0197px;font-family:sans-serif;stroke:none" x="6.476" y="17.42" >
<tspan style="font-size:6.01185px" x="6.476" y="17.42" >Salon</tspan>
<tspan x="6.476" y="29.96" style="font-size:7.7611px;font-family:sans-serif;-inkscape-font-specification:'sans-serif, Normal'" >AKWARIUM</tspan>
</text>
<rect width="53.8" height=".2" x="0.1" y="7" />
<rect width="0.2" height="7" x="17.9" y="0.1" />
<path d="m 35.96,6.6 0.3,-1.2 c -1.3,-0.08 -2.46,-0.64 -2.8,-1.369 0,0.192 -0.1,0.368 -0.17,0.501 -0.26,0.467 -0.8,0.467 -1.33,0.467 0.44,0 0.6,-0.627 0.6,-1.4 0,-0.771 -0.16,-1.4 -0.6,-1.4 0.53,0 1.07,0 1.33,0.469 0.1,0.136 0.14,0.308 0.17,0.5 0.26,-0.569 1.03,-1.028 1.96,-1.241 L 34.76,0.5998 c 0.8,0 1.6,0 2.13,0.268 0.45,0.2232 0.71,0.6402 0.95,1.0832 1.16,0.28 2.12,0.912 2.12,1.648 0,0.753 -1,1.4 -2.2,1.665 C 37.43,5.704 37.1,6.112 36.83,6.331 36.49,6.6 36.23,6.6 35.96,6.6 m 2,-3.601 a 0.4001,0.4001 0 0 0 -0.4,0.4 0.4001,0.4001 0 0 0 0.4,0.401 0.4001,0.4001 0 0 0 0.4,-0.401 0.4001,0.4001 0 0 0 -0.4,-0.4 z" style="stroke-width:0.264633" />
</svg>
