<svg width="18mm" height="37.2mm" viewBox="0 0 18 37.2" xmlns="http://www.w3.org/2000/svg" >
<path style="fill:#dea;stroke-width:0.3;" d="m 10.1,0.1 6.56,0 c 0.86,0 1.23,0.51 1.24,1.37 V 7.1 h -7.8 z" />
<rect width="17.8" height="37" x="0.1" y="0.1" style="fill:none;stroke:#000;stroke-width:0.2;stroke-miterlimit:4;" ry="1.143" rx="1.143" />
<text style="font-size:6.35px;font-family:sans-serif;text-align:end;text-anchor:end;fill:#070;stroke:none" x="9.35" y="6.07" >
<tspan style="font-size:6.35px;text-align:end;text-anchor:end;fill:#070;stroke-width:0.264592" x="9.35" y="6.07" >26</tspan>
</text>
<text style="font-size:5.30567px;font-family:sans-serif;stroke:none" x="-34.88" y="6.795" transform="rotate(-90)" >
<tspan style="font-size:3.18341px;stroke-width:0.132647" x="-34.88" y="6.795" >Robot</tspan>
<tspan style="stroke-width:0.132647" x="-34.88" y="13.42" >KOSZĄCY</tspan>
</text>
<rect width="17.8" height=".2" x="0.1" y="7" />
<rect width="0.2" height="7" x="10" y=".1" />
<path d="m 11,4.149 c 0,0.751 0.61,1.362 1.37,1.362 0.44,0 0.84,-0.218 1.09,-0.548 h 1.41 c 0.11,0.318 0.42,0.548 0.77,0.548 0.35,0 0.65,-0.23 0.76,-0.548 H 17 V 4.415 C 17,2.916 15.77,1.688 14.28,1.688 H 11 v 2.461 m 5.45,0.266 H 13.7 c 0,-0.101 0.1,-0.178 0.1,-0.266 0,-0.76 -0.6,-1.371 -1.36,-1.371 -0.3,0 -0.59,0.104 -0.81,0.274 V 2.233 h 2.53 c 0.72,0 1.36,0.317 1.79,0.819 H 14.86 V 3.6 h 1.43 c 0.11,0.249 0.18,0.528 0.2,0.815 m -4.1,-1.089 c 0.45,0 0.81,0.363 0.81,0.823 0,0.45 -0.36,0.814 -0.81,0.814 -0.46,0 -0.82,-0.364 -0.82,-0.815 0,-0.46 0.36,-0.822 0.82,-0.822 z" style="stroke-width:0.264678" />
</svg>
