<svg width="18mm" height="37.2mm" viewBox="0 0 18 37.2" xmlns="http://www.w3.org/2000/svg" >
<path style="fill:#dea;stroke-width:0.3;" d="m 10.1,0.1 6.56,0 c 0.86,0 1.23,0.51 1.24,1.37 V 7.1 h -7.8 z" />
<rect width="17.8" height="37" x="0.1" y="0.1" style="fill:none;stroke:#000;stroke-width:0.2;stroke-miterlimit:4;" ry="1.143" rx="1.143" />
<text style="font-size:6.35px;font-family:sans-serif;text-align:end;text-anchor:end;fill:#070;stroke:none" x="9.35" y="6.07" >
<tspan style="font-size:6.35px;text-align:end;text-anchor:end;fill:#070;stroke-width:0.264592" x="9.35" y="6.07" >27</tspan>
</text>
<text style="font-size:5.30567px;font-family:sans-serif;stroke:none" x="-34.88" y="6.882" transform="rotate(-90)" >
<tspan style="font-size:3.18341px;stroke-width:0.132647" x="-34.88" y="6.882" >Ogród</tspan>
<tspan style="font-size:4.9389px;font-family:sans-serif;-inkscape-font-specification:'sans-serif, Normal';stroke-width:0.132647" x="-34.88" y="13.51" >ZRASZACZE</tspan>
</text>
<rect width="17.8" height=".2" x="0.1" y="7" />
<rect width="0.2" height="7" x="10" y=".1" />
<path d="m 13.65,1.305 h 0.71 V 2.01 H 13.65 V 1.305 M 11.53,6.6 h 1.41 V 2.364 H 11.53 V 6.6 m 3.18,-3.884 h 0.7 V 2.01 h -0.7 v 0.706 m 1.06,-0.352 h 0.7 V 1.659 h -0.7 v 0.705 m 0,-1.764 v 0.705 h 0.7 V 0.6 h -0.7 m -1.06,1.059 h 0.7 V 0.952 h -0.7 v 0.707 m 1.06,1.761 h 0.7 V 2.716 h -0.7 V 3.42 M 11.53,1.305 h 0.13 L 11.9,2.01 h 0.71 l 0.23,-0.705 h 0.12 V 0.952 h -1.42 z" style="stroke-width:0.264634" />
</svg>