<svg width="54mm" height="37.2mm" viewBox="0 0 54 37.2" xmlns="http://www.w3.org/2000/svg" >

<path style="fill:#ddeeaa;stroke-width:0.3" d="m 18,0.1 34.95,0.029 c 0.72,6e-4 0.97,0.79 0.97,1.37 V 7.1 L 18,7.1 Z" />
<rect width="53.82" height="37" x="0.1" y="0.1" style="fill:none;stroke:#000;stroke-width:0.2;stroke-miterlimit:4;" ry="1.143" rx="1.143" />
<text style="font-size:6.35px;font-family:sans-serif;text-align:center;text-anchor:middle;fill:#070;stroke:none" x="6.745" y="5.867" >
<tspan style="font-size:6.35px;text-align:center;text-anchor:middle;fill:#070;stroke-width:0.264591" x="9.406" y="5.867" >8</tspan>
</text>
<text style="font-size:10.0197px;font-family:sans-serif;stroke:none" x="6.476" y="17.42" >
<tspan style="font-size:6.01185px" x="6.476" y="17.42" >Zasilanie</tspan>
<tspan x="6.476" y="29.96" style="font-size:9.8778px;font-family:sans-serif;-inkscape-font-specification:'sans-serif, Normal';" >BASEN</tspan>
</text>
<rect width="53.8" height=".2" x="0.1" y="7" />
<rect width="0.2" height="7" x="17.9" y="0.1" />
<path d="m 32.96,4.651 c 0.5,-0.226 1,-0.451 1.5,-0.549 V 1.65 a 0.9001,0.9001 0 0 1 0.9,-0.9 c 0.39,0 0.73,0.249 0.85,0.599 h -0.85 a 0.3,0.3 0 0 0 -0.3,0.301 v 0.299 h 1.5 V 1.65 a 0.9001,0.9001 0 0 1 0.9,-0.9 c 0.39,0 0.73,0.249 0.85,0.599 h -0.85 a 0.3,0.3 0 0 0 -0.3,0.301 v 2.982 c 0.6,-0.1 1.2,-0.581 1.8,-0.581 v 0.6 c -0.67,0 -1.33,0.599 -2,0.599 -0.67,0 -1.33,-0.599 -2,-0.599 -0.67,0 -1.33,0.299 -2,0.599 V 4.651 m 3.6,-2.101 h -1.5 v 0.6 h 1.5 v -0.6 m 0,1.2 h -1.5 v 0.301 c 0.5,0.04 1,0.392 1.5,0.536 V 3.75 m -3.6,2.1 c 0.67,-0.3 1.33,-0.6 2,-0.6 0.67,0 1.33,0.6 2,0.6 0.67,0 1.33,-0.6 2,-0.6 v 0.6 c -0.67,0 -1.33,0.6 -2,0.6 -0.67,0 -1.33,-0.6 -2,-0.6 -0.67,0 -1.33,0.301 -2,0.6 z" style="stroke-width:0.264633" />
</svg>