<svg width="36mm" height="37.2mm" viewBox="0 0 36 37.2" xmlns="http://www.w3.org/2000/svg" >

<path style="fill:#dea;stroke-width:0.3;" d="m 10.1,0.1 24.75,0 c 0.72,0 0.97,0.79 0.97,1.37 L 35.9,7.1 H 10.1 Z" />
<rect width="35.8" height="37" x="0.07" y="0.1" style="fill:none;stroke:#000;stroke-width:0.2;stroke-miterlimit:4;" ry="1.143" rx="1.143" />
<text style="font-size:6.35px;font-family:sans-serif;text-align:end;text-anchor:end;fill:#070;stroke:none" x="9.32" y="6.07" >
<tspan style="font-size:6.35px;text-align:end;text-anchor:end;fill:#070;stroke-width:0.264591" x="9.32" y="6.07" >1</tspan>
</text>
<text style="font-size:6.63119px;font-family:sans-serif;stroke:none" x="3.83" y="21.69" >
<tspan style="font-size:3.97872px;stroke-width:0.132646" x="3.83" y="21.69" >zasilacz</tspan>
<tspan style="stroke-width:0.132646" x="3.83" y="29.99" >24V 36W</tspan>
</text>
<rect width="35.8" height=".2" x="0.1" y="7" />
<rect width="0.2" height="7" x="10" y=".1" />
<path d="m 20.16,1.15 c -0.4,0 -0.66,0.32 -0.66,0.7 v 4.2 h 7 v -4.2 c 0,-0.38 -0.4,-0.7 -0.66,-0.7 m -2.12,1.6 v -0.7 h 2.12 v 0.7 h -2.12 m 0,1.2 v -0.7 h 2.12 v 0.7 h -2.12 m -2.51,-2.1 v 1.4 h 0.66 l -1.05,2.1 V 3.95 H 20.16 Z M 23.72,5.2 V 4.5 h 2.12 v 0.7" style="stroke-width:0.264632" />
</svg>