<svg width="18mm" height="37.2mm" viewBox="0 0 18 37.2" xmlns="http://www.w3.org/2000/svg" >
<path style="fill:#dea;stroke-width:0.3;" d="m 10.1,0.1 6.56,0 c 0.86,0 1.23,0.51 1.24,1.37 V 7.1 h -7.8 z" />
<rect width="17.8" height="37" x="0.1" y="0.1" style="fill:none;stroke:#000;stroke-width:0.2;stroke-miterlimit:4;" ry="1.143" rx="1.143" />
<text style="font-size:6.35px;font-family:sans-serif;text-align:end;text-anchor:end;fill:#007700;stroke:none" x="9.35" y="6.07" >
<tspan style="font-size:6.35px;text-align:end;text-anchor:end;fill:#007700;stroke-width:0.264592" x="9.35" y="6.07" >10</tspan>
</text>
<text style="font-size:5.30567px;font-family:sans-serif;stroke:none" x="-34.88" y="6.795" transform="rotate(-90)" >
<tspan style="font-size:3.18341px;stroke-width:0.132647" x="-34.88" y="6.795" >Gniazdka</tspan>
<tspan style="stroke-width:0.132647" x="-34.88" y="13.42" >GRZEJNIK</tspan>
</text>
<rect width="17.8" height=".2" x="0.1" y="7" />
<rect width="0.2" height="7" x="10" y=".1" />
<path d="m 12.93,1.218 -0.38,0.579 0.38,0.585 v 0 L 12.4,3.202 11.94,2.964 12.32,2.379 11.94,1.797 12.47,0.9775 12.93,1.218 m 1.59,-0.03 -0.38,0.584 0.38,0.582 v 0 L 13.99,3.176 13.53,2.938 13.9,2.355 13.53,1.773 14.06,0.9545 14.52,1.189 m 1.6,0 -0.38,0.584 0.38,0.582 v 0 L 15.59,3.176 15.12,2.938 15.5,2.355 15.12,1.773 15.65,0.9545 16.12,1.189 m -4.77,5.056 v -2.12 a 0.5292,0.5292 0 0 1 0.53,-0.526 h 4.24 a 0.5292,0.5292 0 0 1 0.53,0.526 v 2.12 h -0.53 v -0.53 h -4.24 v 0.53 h -0.53 m 1,-2.12 a 0.2646,0.2646 0 0 0 -0.26,0.27 v 0.53 a 0.2646,0.2646 0 0 0 0.26,0.26 0.2646,0.2646 0 0 0 0.27,-0.26 v -0.53 a 0.2646,0.2646 0 0 0 -0.27,-0.27 m 1,0 a 0.2646,0.2646 0 0 0 -0.27,0.27 v 0.53 a 0.2646,0.2646 0 0 0 0.27,0.26 0.2646,0.2646 0 0 0 0.26,-0.26 v -0.53 a 0.2646,0.2646 0 0 0 -0.26,-0.27 m 1,0 a 0.2646,0.2646 0 0 0 -0.26,0.27 v 0.53 a 0.2646,0.2646 0 0 0 0.26,0.26 0.2646,0.2646 0 0 0 0.27,-0.26 v -0.53 a 0.2646,0.2646 0 0 0 -0.27,-0.27 m 1,0 a 0.2646,0.2646 0 0 0 -0.27,0.27 v 0.53 a 0.2646,0.2646 0 0 0 0.27,0.26 0.2646,0.2646 0 0 0 0.26,-0.26 v -0.53 a 0.2646,0.2646 0 0 0 -0.26,-0.27 z" style="stroke-width:0.264583" />
</svg>