<svg width="18mm" height="37.2mm" viewBox="0 0 18 37.2" xmlns="http://www.w3.org/2000/svg" >
<path style="fill:#dea;stroke-width:0.3;" d="m 10.1,0.1 6.56,0 c 0.86,0 1.23,0.51 1.24,1.37 V 7.1 h -7.8 z" />
<rect width="17.8" height="37" x="0.1" y="0.1" style="fill:none;stroke:#000;stroke-width:0.2;stroke-miterlimit:4;" ry="1.143" rx="1.143" />
<text style="font-size:6.35px;font-family:sans-serif;text-align:end;text-anchor:end;fill:#070;stroke:none" x="9.35" y="6.07" >
<tspan style="font-size:6.35px;text-align:end;text-anchor:end;fill:#070;stroke-width:0.264592" x="9.35" y="6.07" >25</tspan>
</text>
<text style="font-size:5.30567px;font-family:sans-serif;stroke:none" x="-34.88" y="6.865" transform="rotate(-90)" >
<tspan style="font-size:3.18341px;stroke-width:0.132647" x="-34.88" y="6.865" >Centrala</tspan>
<tspan style="font-size:6.35px;font-family:sans-serif;-inkscape-font-specification:'sans-serif, Normal';stroke-width:0.132647" x="-34.88" y="13.49" >ALARM</tspan>
</text>
<rect width="17.8" height=".2" x="0.1" y="7" />
<rect width="0.2" height="7" x="10" y=".1" />
<path d="m 14,3.599 h 1.91 C 15.77,4.72 15.02,5.722 14,6.033 V 3.599 H 12.08 V 2.045 L 14,1.196 M 14,0.5995 11.54,1.69 v 1.636 c 0,1.515 1.05,2.928 2.46,3.275 1.41,-0.347 2.46,-1.76 2.46,-3.275 V 1.69 Z" style="stroke-width:0.26462" />
</svg>