<svg width="18mm" height="37.2mm" viewBox="0 0 18 37.2" xmlns="http://www.w3.org/2000/svg" >
<path style="fill:#dea;stroke-width:0.3;" d="m 10.1,0.1 6.56,0 c 0.86,0 1.23,0.51 1.24,1.37 V 7.1 h -7.8 z" />
<rect width="17.8" height="37" x="0.1" y="0.1" style="fill:none;stroke:#000;stroke-width:0.2;stroke-miterlimit:4;" ry="1.143" rx="1.143" />
<text style="font-size:6.35px;font-family:sans-serif;text-align:end;text-anchor:end;fill:#007700;stroke:none" x="9.35" y="6.07" >
<tspan style="font-size:6.35px;text-align:end;text-anchor:end;fill:#007700;stroke-width:0.264592" x="9.35" y="6.07" >15</tspan>
</text>
<text style="font-size:5.30567px;font-family:sans-serif;stroke:none" x="-34.88" y="6.865" transform="rotate(-90)" >
<tspan style="font-size:3.18341px;stroke-width:0.132647" x="-34.88" y="6.865" >Gniazdko</tspan>
<tspan style="font-size:6.35px;font-family:sans-serif;-inkscape-font-specification:'sans-serif, Normal';stroke-width:0.132647" x="-34.88" y="13.49" >SERWER</tspan>
</text>
<rect width="17.8" height=".2" x="0.1" y="7" />
<rect width="0.2" height="7" x="10" y=".1" />
<path d="m 11.81,0.6 h 4.37 a 0.2728,0.2728 0 0 1 0.27,0.272 V 1.963 A 0.2728,0.2728 0 0 1 16.18,2.236 H 11.81 A 0.2728,0.2728 0 0 1 11.55,1.963 V 0.872 A 0.2728,0.2728 0 0 1 11.81,0.6 m 0,2.181 h 4.37 a 0.2728,0.2728 0 0 1 0.27,0.273 V 4.14 A 0.2728,0.2728 0 0 1 16.18,4.42 H 11.81 A 0.2728,0.2728 0 0 1 11.55,4.14 V 3.054 a 0.2728,0.2728 0 0 1 0.26,-0.273 m 0,2.189 h 4.37 a 0.2728,0.2728 0 0 1 0.27,0.27 V 6.33 A 0.2728,0.2728 0 0 1 16.18,6.6 H 11.81 A 0.2728,0.2728 0 0 1 11.55,6.33 V 5.24 a 0.2728,0.2728 0 0 1 0.26,-0.27 m 1.37,-3.28 h 0.27 V 1.145 H 13.18 V 1.69 m 0,2.19 h 0.27 V 3.327 H 13.18 V 3.88 m 0,2.17 h 0.27 V 5.5 H 13.18 V 6.05 M 12.09,1.145 V 1.69 h 0.55 V 1.145 h -0.55 m 0,2.182 V 3.88 h 0.55 V 3.327 h -0.55 m 0,2.173 v 0.55 h 0.55 V 5.5 Z" style="stroke-width:0.264465" />
</svg>