<svg width="18mm" height="37.2mm" viewBox="0 0 18 37.2" xmlns="http://www.w3.org/2000/svg" >
<path style="fill:#dea;stroke-width:0.3;" d="m 10.1,0.1 6.56,0 c 0.86,0 1.23,0.51 1.24,1.37 V 7.1 h -7.8 z" />
<rect width="17.8" height="37" x="0.1" y="0.1" style="fill:none;stroke:#000;stroke-width:0.2;stroke-miterlimit:4;" ry="1.143" rx="1.143" />
<text style="font-size:6.35px;font-family:sans-serif;text-align:end;text-anchor:end;fill:#070;stroke:none" x="9.35" y="6.07" >
<tspan style="font-size:6.35px;text-align:end;text-anchor:end;fill:#070;stroke-width:0.264592" x="9.35" y="6.07" >28</tspan>
</text>
<text style="font-size:5.30567px;font-family:sans-serif;stroke:none" x="-34.88" y="6.867" transform="rotate(-90)" >
<tspan style="font-size:3.18341px;stroke-width:0.132647" x="-34.88" y="6.867" >Oczyszczalnia</tspan>
<tspan style="font-size:5.6444px;font-family:sans-serif;-inkscape-font-specification:'sans-serif, Normal';stroke-width:0.132647" x="-34.88" y="13.5" >ŚCIEKÓW</tspan>
</text>
<rect width="17.8" height=".2" x="0.1" y="7" />
<rect width="0.2" height="7" x="10" y=".1" />
<path d="m 13.28,0.6015 c 0,0 -2.15,2.4165 -2.15,3.8465 0,1.19 0.97,2.15 2.15,2.15 1.19,0 2.15,-0.959 2.15,-2.15 0,-1.43 -2.15,-3.8465 -2.15,-3.8465 m 0,5.2765 c -0.79,0 -1.44,-0.63 -1.44,-1.43 0,-0.63 0.73,-1.802 1.44,-2.722 0.72,0.916 1.44,2.093 1.44,2.722 0,0.8 -0.64,1.43 -1.44,1.43 M 16.86,1.943 V 4.098 H 16.15 V 1.943 h 0.71 m -0.71,3.575 h 0.71 v -0.7 h -0.71 z" style="stroke-width:0.264488" />
</svg>