<svg width="216mm" height="37.2mm" viewBox="0 0 216 37.2" xmlns="http://www.w3.org/2000/svg" >

<path style="fill:#005b88;stroke-width:0.3" d="M 18,0.1 53.9,0 V 7.1 H 18 Z" />
<path style="stroke-width:2.41709" d="m 98.89,4.597 c -1.32,0 -2.39,1.074 -2.39,2.396 0,1.319 1.07,2.395 2.39,2.395 0.17,0 0.32,0 0.47,-0.05 l 3.34,5.882 c 0.2,0.23 0.4,0.36 0.7,0.36 0.1,0 0.2,0 0.3,-0.1 0.4,-0.2 0.5,-0.64 0.3,-0.98 l -3.4,-5.858 c 0.4,-0.431 0.7,-1.015 0.7,-1.662 0,-1.322 -1.1,-2.396 -2.41,-2.396 z m -13.42,0.07 c -0.85,-0.02 -1.69,0.413 -2.15,1.199 -0.64,1.14 -0.26,2.608 0.89,3.27 1.14,0.662 2.62,0.265 3.28,-0.877 0.1,-0.14 0.13,-0.279 0.19,-0.428 h 6.78 c 0.26,0 0.5,-0.144 0.62,-0.357 0.1,-0.102 0.1,-0.227 0.1,-0.355 0,-0.397 -0.32,-0.716 -0.72,-0.716 H 87.71 C 87.55,5.826 87.16,5.309 86.6,4.985 86.25,4.779 85.85,4.678 85.47,4.666 Z m 13.42,1.359 c 0.54,0 0.97,0.435 0.97,0.968 0,0.534 -0.43,0.966 -0.97,0.966 -0.53,0 -0.96,-0.432 -0.96,-0.966 0,-0.533 0.43,-0.968 0.96,-0.968 z m -13.46,0.06 c 0.16,0 0.31,0.05 0.47,0.128 0.45,0.265 0.62,0.86 0.34,1.319 -0.27,0.465 -0.86,0.625 -1.31,0.36 C 84.46,7.624 84.3,7.033 84.57,6.569 84.75,6.255 85.09,6.08 85.43,6.087 Z m -1.91,4.044 c -0.23,0 -0.45,0.13 -0.58,0.34 v 0 l -3.49,5.73 c -0.57,-0.16 -1.22,-0.11 -1.77,0.2 -1.15,0.64 -1.56,2.08 -0.95,3.24 0.64,1.14 2.09,1.56 3.24,0.93 1.15,-0.63 1.57,-2.08 0.94,-3.23 -0.1,-0.13 -0.16,-0.26 -0.26,-0.38 l 3.5,-5.75 c 0.13,-0.23 0.13,-0.5 0,-0.72 -0.1,-0.1 -0.15,-0.2 -0.25,-0.26 -0.14,-0.1 -0.27,-0.11 -0.41,-0.1 z m 8.6,1.2 c -4.01,0 -7.27,3.26 -7.27,7.26 0,0.37 0.3,0.67 0.67,0.67 0.36,0 0.66,-0.3 0.66,-0.67 0,-3.27 2.66,-5.93 5.94,-5.93 0.37,0 0.66,-0.29 0.66,-0.66 0,-0.37 -0.29,-0.67 -0.66,-0.67 z m 0,2.4 c -2.69,0 -4.87,2.18 -4.87,4.86 0,0.37 0.3,0.67 0.66,0.67 0.37,0 0.68,-0.3 0.68,-0.67 0,-1.94 1.57,-3.53 3.53,-3.53 0.35,0 0.66,-0.3 0.66,-0.66 0,-0.37 -0.31,-0.67 -0.66,-0.67 z m 0,2.52 c -1.29,0 -2.35,1.05 -2.35,2.34 0,1.29 1.06,2.35 2.35,2.35 1.28,0 2.34,-1.06 2.34,-2.35 0,-1.29 -1.06,-2.34 -2.34,-2.34 z m 13.48,0 c -0.4,0 -0.8,0.1 -1.1,0.29 -1.2,0.64 -1.6,2.1 -1,3.26 0.1,0.13 0.2,0.27 0.3,0.38 l -3.5,5.8 c -0.2,0.23 -0.2,0.5 0,0.72 0,0.11 0.1,0.2 0.2,0.26 0.3,0.2 0.8,0.1 1,-0.24 v 0 l 3.5,-5.77 c 0.6,0.16 1.2,0.1 1.8,-0.21 1.1,-0.64 1.5,-2.09 0.9,-3.25 -0.4,-0.8 -1.3,-1.25 -2.1,-1.24 z M 78.85,17.5 c 0.34,0 0.66,0.17 0.84,0.5 0.27,0.46 0.1,1.05 -0.37,1.3 -0.47,0.25 -1.06,0.1 -1.31,-0.37 -0.26,-0.47 -0.1,-1.06 0.39,-1.31 0.13,-0.1 0.29,-0.12 0.45,-0.12 z m 13.27,0 c 0.55,0 1,0.46 1,1.01 0,0.56 -0.45,1.02 -1,1.02 -0.56,0 -1.01,-0.46 -1.01,-1.02 0,-0.55 0.45,-1.01 1.01,-1.01 z m 13.48,0.12 c 0.4,0 0.7,0.19 0.9,0.51 0.2,0.46 0,1.06 -0.4,1.31 -0.5,0.26 -1.1,0.1 -1.3,-0.38 -0.3,-0.47 -0.1,-1.06 0.3,-1.31 0.2,-0.1 0.3,-0.13 0.5,-0.13 z m -9.29,0.23 c -0.36,0 -0.66,0.3 -0.66,0.66 0,1.95 -1.59,3.53 -3.53,3.53 -0.38,0 -0.68,0.3 -0.68,0.67 0,0.37 0.3,0.66 0.68,0.66 2.68,0 4.86,-2.18 4.86,-4.86 0,-0.36 -0.3,-0.66 -0.67,-0.66 z m 2.4,0 c -0.37,0 -0.66,0.29 -0.66,0.66 0,3.27 -2.66,5.93 -5.93,5.93 -0.38,0 -0.68,0.3 -0.68,0.67 0,0.37 0.3,0.67 0.68,0.67 4,0 7.26,-3.26 7.26,-7.27 0,-0.36 -0.3,-0.66 -0.67,-0.66 z M 81,21.61 c -0.13,0 -0.25,0 -0.37,0.1 -0.34,0.2 -0.45,0.63 -0.25,0.97 l 3.37,5.86 c -0.43,0.43 -0.68,1.01 -0.68,1.66 0,1.33 1.08,2.4 2.4,2.4 1.31,0 2.38,-1.07 2.38,-2.4 0,-1.32 -1.07,-2.4 -2.38,-2.4 -0.16,0 -0.32,0 -0.47,0.1 L 81.62,21.96 C 81.49,21.73 81.25,21.61 81,21.61 Z m 17.8,6.21 c -0.39,0 -0.78,0.11 -1.13,0.31 -0.56,0.33 -0.94,0.84 -1.11,1.43 h -6.75 c -0.4,0 -0.72,0.32 -0.72,0.71 0,0.13 0,0.25 0.1,0.36 0.12,0.21 0.36,0.36 0.62,0.36 h 6.78 c 0.1,0.13 0.12,0.29 0.19,0.42 0.67,1.15 2.14,1.53 3.32,0.87 1.1,-0.65 1.5,-2.12 0.8,-3.26 -0.4,-0.8 -1.25,-1.23 -2.1,-1.2 z m -9.71,2.45 c 0,0 0,0 0,0 v 0 c 0,0 0,0 0,0 z m -3.62,-1.05 c 0.53,0 0.97,0.44 0.97,0.97 0,0.53 -0.44,0.97 -0.97,0.97 -0.54,0 -0.97,-0.44 -0.97,-0.97 0,-0.53 0.43,-0.97 0.97,-0.97 z m 13.37,0 c 0.34,0 0.68,0.16 0.86,0.48 0.27,0.46 0.11,1.06 -0.35,1.33 -0.47,0.26 -1.06,0.1 -1.33,-0.36 -0.26,-0.47 -0.1,-1.06 0.36,-1.32 0.14,-0.1 0.3,-0.13 0.46,-0.13 z" />
<path d="m 114.3,15.67 v -2.23 c 0.2,0.1 0.4,0.1 0.7,0.13 0.3,0 0.6,0.1 0.9,0.1 0.2,0 0.6,0 0.9,0 0.3,0 0.6,0 0.9,0 0.7,0 1.2,-0.1 1.5,-0.12 0.3,-0.1 0.5,-0.23 0.5,-0.44 0,-0.19 -0.2,-0.34 -0.3,-0.45 -0.5,-0.34 -1.1,-0.48 -1.7,-0.63 -1.8,-0.34 -3.4,-1.04 -3.4,-3.027 0,-2.35 2.2,-2.903 4.2,-2.903 1,0 2.1,0.113 3.1,0.366 v 2.222 c -0.2,-0.05 -0.4,-0.08 -0.6,-0.125 -0.3,-0.04 -0.5,-0.07 -0.8,-0.1 -0.7,-0.06 -1.3,-0.09 -1.8,-0.09 -0.4,0 -1.1,0 -1.4,0.123 -0.3,0.08 -0.4,0.175 -0.4,0.428 0,0.125 0,0.239 0.1,0.331 0,0.109 0.1,0.192 0.3,0.269 0.4,0.237 1,0.379 1.4,0.486 0.4,0.1 0.8,0.21 1.2,0.32 1.4,0.38 2.3,1.15 2.3,2.63 0,2.45 -2.4,2.97 -4.4,2.97 -1,0 -2.1,-0.1 -3.2,-0.33 z m 11.3,-5.08 v 5.32 h -2.3 V 6.255 h 2.3 l 3,5.325 3,-5.325 h 2.4 v 9.655 h -2.4 v -5.32 l -1.8,3.14 h -2.4 z m 16.2,3.36 h -3.5 l -0.7,1.96 H 135 l 3.8,-9.655 h 2.4 l 3.9,9.655 h -2.6 z M 139,11.76 h 2 l -1,-2.809 z m 9.4,-3.283 v 2.303 h 2.2 c 0.7,0 1.2,-0.43 1.2,-1.151 0,-0.728 -0.5,-1.152 -1.2,-1.152 z m 3.6,3.863 c 0.4,0.6 0.9,1.2 1.3,1.78 0.5,0.59 0.9,1.19 1.3,1.79 h -2.8 c -0.6,-0.76 -1.1,-1.52 -1.7,-2.28 -0.6,-0.74 -1.1,-1.49 -1.7,-2.25 v 4.53 H 146 V 6.255 h 4.6 c 1.8,0 3.3,1.369 3.3,3.183 0,1.272 -0.7,2.402 -1.9,2.902 z m 3.1,-6.085 h 8 v 2.19 h -2.8 v 7.465 h -2.4 V 8.445 h -2.8 z m 16.4,4.695 c 0.7,0.49 1,1.22 1,2.07 0,1.64 -1.4,2.89 -3,2.89 h -5.1 V 6.255 h 4.8 c 1.2,0 2.3,0.676 2.8,1.797 0.2,0.362 0.2,0.724 0.2,1.102 0,0.712 -0.2,1.296 -0.7,1.796 z m -4.8,-2.505 v 1.546 h 2.5 c 0.4,0 0.7,-0.393 0.7,-0.79 0,-0.409 -0.3,-0.756 -0.7,-0.756 z m 0,3.735 v 1.53 h 2.8 c 0.4,0 0.7,-0.34 0.7,-0.75 0,-0.21 -0.1,-0.4 -0.2,-0.56 -0.2,-0.14 -0.3,-0.22 -0.5,-0.22 z m 11.8,1.61 c 1.8,0 2.6,-1.1 2.6,-2.71 0,-1.704 -0.9,-2.712 -2.6,-2.712 -1.7,0 -2.6,1.101 -2.6,2.712 0,1.67 1,2.71 2.6,2.71 z m 0,2.2 c -2.9,0 -4.9,-2.03 -4.9,-4.91 0,-2.981 2.1,-4.908 4.9,-4.908 3,0 5,2.005 5,4.908 0,3 -2.1,4.91 -5,4.91 z m 13.6,-5.04 c 0.7,0.49 1.1,1.22 1.1,2.07 0,1.64 -1.5,2.89 -3.1,2.89 H 185 V 6.255 h 4.8 c 1.2,0 2.3,0.676 2.9,1.797 0.1,0.362 0.2,0.724 0.2,1.102 0,0.712 -0.3,1.296 -0.8,1.796 z m -4.8,-2.505 v 1.546 h 2.5 c 0.4,0 0.7,-0.393 0.7,-0.79 0,-0.409 -0.3,-0.756 -0.7,-0.756 z m 0,3.735 v 1.53 h 2.8 c 0.4,0 0.7,-0.34 0.7,-0.75 0,-0.21 0,-0.4 -0.2,-0.56 -0.2,-0.14 -0.3,-0.22 -0.5,-0.22 z" style="stroke-width:2.68328" />
<g transform="matrix(0.8158,0,0,0.8158,-4.946,16.9)" style="stroke-width:1.22578">
<path style="fill:#fff;stroke-width:2.96233" d="m 36.79,-19.34 c -0.3,0 -0.51,0.23 -0.51,0.51 0,0.28 0.21,0.51 0.51,0.51 0,0 0.1,0 0.1,0 l 0.75,1.25 c 0,0 0.1,0.1 0.1,0.1 0.1,0 0.1,0 0.1,0 0.1,-0.1 0.1,-0.14 0.1,-0.21 l -0.77,-1.24 c 0.1,-0.1 0.17,-0.22 0.17,-0.36 0,-0.28 -0.25,-0.51 -0.49,-0.51 z m -2.87,0 c -0.17,0 -0.37,0.1 -0.45,0.26 -0.15,0.24 -0.1,0.55 0.2,0.7 0.23,0.14 0.55,0.1 0.7,-0.19 0,0 0,-0.1 0,-0.1 h 1.44 c 0.1,0 0.11,0 0.12,-0.1 0,0 0,-0.1 0,-0.1 0,-0.1 -0.1,-0.16 -0.15,-0.16 h -1.42 c 0,-0.12 -0.13,-0.23 -0.23,-0.3 -0.1,0 -0.17,-0.1 -0.26,-0.1 z m 2.87,0.29 c 0.11,0 0.15,0.1 0.15,0.21 0,0.11 0,0.2 -0.15,0.2 -0.13,0 -0.22,-0.1 -0.22,-0.2 0,-0.11 0.1,-0.21 0.22,-0.21 z m -2.87,0 c 0.1,0 0.1,0 0.1,0 0.1,0.1 0.13,0.18 0.1,0.28 -0.1,0.1 -0.17,0.13 -0.28,0.1 -0.1,-0.1 -0.13,-0.18 -0.1,-0.28 0,-0.1 0.13,-0.1 0.2,-0.1 z m -0.41,0.86 c 0,0 -0.1,0 -0.13,0.1 v 0 l -0.73,1.22 c -0.13,0 -0.26,0 -0.37,0 -0.25,0.14 -0.34,0.44 -0.21,0.68 0.14,0.25 0.44,0.34 0.69,0.21 0.24,-0.14 0.33,-0.44 0.2,-0.69 0,0 0,-0.1 -0.1,-0.1 L 33.6,-18 c 0,-0.1 0,-0.1 0,-0.15 0,0 0,-0.1 0,-0.1 0,0 -0.1,0 -0.1,0 z m 1.84,0.25 c -0.86,0 -1.56,0.69 -1.56,1.55 0,0.1 0.1,0.14 0.15,0.14 0.1,0 0.15,-0.1 0.15,-0.14 0,-0.69 0.56,-1.27 1.26,-1.27 0.1,0 0.12,-0.1 0.12,-0.13 0,-0.1 0,-0.15 -0.12,-0.15 z m 0,0.51 c -0.58,0 -1.04,0.47 -1.04,1.04 0,0.1 0.1,0.14 0.14,0.14 0.1,0 0.15,-0.1 0.15,-0.14 0,-0.41 0.32,-0.75 0.75,-0.75 0.1,0 0.12,-0.1 0.12,-0.14 0,-0.1 -0.1,-0.15 -0.12,-0.15 z m 0,0.54 c -0.29,0 -0.52,0.22 -0.52,0.5 0,0.27 0.23,0.5 0.52,0.5 0.27,0 0.48,-0.23 0.48,-0.5 0,-0.28 -0.21,-0.5 -0.48,-0.5 z m 2.87,0 c -0.1,0 -0.17,0 -0.25,0.1 -0.26,0.13 -0.35,0.44 -0.18,0.69 0,0 0,0.1 0,0.1 l -0.68,1.23 c -0.1,0.1 -0.1,0.11 0,0.16 0,0 0,0 0,0.1 0.1,0 0.17,0 0.26,-0.1 v 0 l 0.68,-1.23 c 0.17,0 0.26,0 0.43,0 0.25,-0.14 0.34,-0.45 0.17,-0.69 -0.1,-0.17 -0.26,-0.27 -0.43,-0.27 z m -5.7,0.27 c 0.1,0 0.14,0 0.18,0.1 0.1,0.1 0,0.23 -0.1,0.28 -0.1,0.1 -0.23,0 -0.28,-0.1 -0.1,-0.11 0,-0.24 0.1,-0.29 0,0 0.1,0 0.1,0 z m 2.83,0 c 0.1,0 0.21,0.1 0.21,0.21 0,0.12 -0.11,0.22 -0.21,0.22 -0.13,0 -0.22,-0.1 -0.22,-0.22 0,-0.12 0.1,-0.21 0.22,-0.21 z m 2.87,0 c 0.1,0 0.17,0 0.17,0.11 0.1,0.1 0,0.22 -0.1,0.27 -0.1,0.1 -0.26,0 -0.26,-0.1 -0.1,-0.11 0,-0.24 0.1,-0.29 0,0 0,0 0.1,0 z m -1.98,0.1 c -0.1,0 -0.15,0.1 -0.15,0.14 0,0.42 -0.34,0.75 -0.74,0.75 -0.1,0 -0.16,0.1 -0.16,0.14 0,0.1 0.1,0.14 0.16,0.14 0.57,0 1.01,-0.46 1.01,-1.03 0,-0.1 0,-0.14 -0.12,-0.14 z m 0.51,0 c -0.1,0 -0.15,0.1 -0.15,0.14 0,0.7 -0.55,1.26 -1.25,1.26 -0.1,0 -0.16,0.1 -0.16,0.15 0,0.1 0.1,0.13 0.16,0.13 0.85,0 1.55,-0.69 1.55,-1.54 0,-0.1 -0.1,-0.14 -0.15,-0.14 z m -3.78,0.8 c 0,0 -0.1,0 -0.1,0 -0.1,0.1 -0.1,0.13 -0.1,0.2 l 0.71,1.25 c -0.1,0.1 -0.14,0.21 -0.14,0.35 0,0.29 0.23,0.51 0.51,0.51 0.27,0 0.51,-0.22 0.51,-0.51 0,-0.28 -0.24,-0.51 -0.51,-0.51 0,0 -0.1,0 -0.1,0 l -0.72,-1.26 c 0,-0.1 -0.1,-0.1 -0.14,-0.1 z m 3.8,1.32 c -0.1,0 -0.17,0 -0.25,0.1 -0.12,0.1 -0.2,0.18 -0.24,0.31 h -1.43 c -0.1,0 -0.14,0.1 -0.14,0.14 0,0 0,0.1 0,0.1 0,0.1 0.1,0.1 0.12,0.1 h 1.45 c 0,0 0,0.1 0,0.1 0.15,0.24 0.47,0.32 0.75,0.18 0.25,-0.14 0.34,-0.45 0.17,-0.69 -0.1,-0.17 -0.3,-0.26 -0.47,-0.26 z m -2.06,0.52 c 0,0 0,0 0,0 v 0 c 0,0 0,0 0,0 z m -0.79,-0.22 c 0.13,0 0.21,0.1 0.21,0.2 0,0.12 -0.1,0.21 -0.21,0.21 -0.11,0 -0.19,-0.1 -0.19,-0.21 0,-0.11 0.1,-0.2 0.19,-0.2 z m 2.85,0 c 0.1,0 0.15,0 0.17,0.1 0.1,0.1 0,0.23 -0.1,0.28 -0.1,0.1 -0.22,0 -0.28,-0.1 -0.1,-0.1 0,-0.22 0.1,-0.28 0,0 0.1,0 0.1,0 z" />
<path d="m 41.02,-14.87 v -0.77 c 0.1,0 0.14,0 0.25,0.1 0.1,0 0.2,0 0.3,0 0.1,0 0.21,0 0.32,0 0.1,0 0.2,0 0.31,0 0.24,0 0.41,0 0.52,0 0.1,0 0.17,-0.1 0.17,-0.15 0,-0.1 -0.1,-0.12 -0.1,-0.15 -0.18,-0.12 -0.39,-0.17 -0.59,-0.23 -0.63,-0.12 -1.18,-0.35 -1.18,-1.04 0,-0.81 0.76,-1 1.45,-1 0.35,0 0.72,0 1.07,0.12 v 0.77 c -0.1,0 -0.13,0 -0.21,0 -0.1,0 -0.17,0 -0.27,0 -0.24,0 -0.45,0 -0.62,0 -0.14,0 -0.38,0 -0.48,0.1 -0.1,0 -0.14,0.1 -0.14,0.14 0,0 0,0.1 0,0.11 0,0.1 0,0.1 0.1,0.1 0.14,0.1 0.34,0.13 0.48,0.17 0.14,0 0.28,0.1 0.42,0.11 0.48,0.13 0.79,0.39 0.79,0.9 0,0.85 -0.82,1.03 -1.52,1.03 -0.35,0 -0.72,0 -1.1,-0.11 z m 3.9,-1.75 v 1.83 h -0.8 v -3.33 h 0.8 l 1.04,1.84 1.03,-1.84 h 0.83 v 3.33 h -0.83 v -1.83 l -0.62,1.08 h -0.83 z m 5.59,1.16 H 49.3 l -0.24,0.67 h -0.89 l 1.3,-3.33 h 0.83 l 1.35,3.33 h -0.9 z m -0.97,-0.76 h 0.69 l -0.34,-0.97 z m 3.24,-1.13 v 0.79 h 0.76 c 0.25,0 0.42,-0.15 0.42,-0.4 0,-0.24 -0.17,-0.39 -0.42,-0.39 z m 1.25,1.33 c 0.14,0.21 0.31,0.41 0.45,0.62 0.17,0.19 0.31,0.41 0.44,0.61 h -0.96 c -0.2,-0.26 -0.37,-0.52 -0.59,-0.78 -0.2,-0.26 -0.37,-0.52 -0.59,-0.78 v 1.56 h -0.82 v -3.33 h 1.58 c 0.63,0 1.15,0.47 1.15,1.1 0,0.44 -0.24,0.82 -0.66,1 z m 1.07,-2.1 h 2.77 v 0.75 H 56.9 v 2.58 h -0.83 v -2.58 H 55.1 Z m 5.67,1.62 c 0.24,0.17 0.34,0.42 0.34,0.71 0,0.57 -0.48,1 -1.03,1 h -1.76 v -3.33 h 1.66 c 0.4,0 0.79,0.23 0.96,0.62 0.1,0.13 0.1,0.25 0.1,0.38 0,0.25 -0.1,0.45 -0.23,0.62 z m -1.66,-0.87 v 0.54 h 0.87 c 0.13,0 0.23,-0.13 0.23,-0.27 0,-0.15 -0.1,-0.27 -0.23,-0.27 z m 0,1.29 v 0.53 h 0.97 c 0.13,0 0.24,-0.12 0.24,-0.25 0,-0.1 0,-0.14 -0.1,-0.2 -0.1,-0.1 -0.1,-0.1 -0.17,-0.1 z m 4.07,0.56 c 0.63,0 0.9,-0.38 0.9,-0.93 0,-0.59 -0.31,-0.94 -0.9,-0.94 -0.59,0 -0.89,0.38 -0.89,0.94 0,0.57 0.34,0.93 0.89,0.93 z m 0,0.76 c -1,0 -1.69,-0.7 -1.69,-1.69 0,-1.04 0.73,-1.7 1.69,-1.7 1.04,0 1.73,0.69 1.73,1.7 0,1.03 -0.73,1.69 -1.73,1.69 z m 4.7,-1.74 c 0.23,0.17 0.37,0.42 0.37,0.71 0,0.57 -0.51,1 -1.07,1 h -1.75 v -3.33 h 1.65 c 0.41,0 0.8,0.23 1,0.62 0,0.13 0.1,0.25 0.1,0.38 0,0.25 -0.11,0.45 -0.28,0.62 z m -1.66,-0.87 v 0.54 h 0.86 c 0.14,0 0.24,-0.13 0.24,-0.27 0,-0.15 -0.1,-0.27 -0.24,-0.27 z m 0,1.29 v 0.53 h 0.96 c 0.14,0 0.24,-0.12 0.24,-0.25 0,-0.1 0,-0.14 -0.1,-0.2 -0.1,-0.1 -0.1,-0.1 -0.17,-0.1 z" style="fill:#fff;stroke-width:3.2888" />
</g>
<path d="m 123.3,26.24 -0.8,2.07 h -0.3 l 2.5,-5.93 h 0.4 l 2.5,5.93 h -0.3 l -0.8,-2.07 z m 3,-0.22 -1.4,-3.42 -1.4,3.42 z m 3.3,-3.64 h 0.2 v 3.84 c 0,0.57 0,0.94 0.4,1.43 0.2,0.34 0.7,0.54 1.2,0.54 0.4,0 0.9,-0.2 1.2,-0.54 0.4,-0.49 0.4,-0.86 0.4,-1.43 v -3.84 h 0.2 v 3.84 c 0,0.54 0,1.34 -0.7,1.82 -0.3,0.24 -0.7,0.37 -1.1,0.37 -0.4,0 -0.8,-0.13 -1.1,-0.37 -0.7,-0.48 -0.8,-1.28 -0.7,-1.82 z m 7.1,5.93 v -5.72 h -1.6 v -0.21 h 3.5 v 0.21 H 137 v 5.72 z m 3.6,-2.97 v 0 c 0,-1.77 1.4,-3.06 3.1,-3.06 1.7,0 3,1.29 3,3.07 0,1.77 -1.3,3.06 -3,3.06 -1.7,0 -3.1,-1.29 -3.1,-3.06 z m 0.2,0 v 0 c 0,1.63 1.3,2.84 2.9,2.84 1.5,0 2.8,-1.21 2.8,-2.85 0,-1.64 -1.3,-2.85 -2.8,-2.85 -1.6,0 -2.9,1.21 -2.9,2.85 z m 8.5,2.97 h -0.3 v -5.93 h 0.4 l 2.7,5.53 2.8,-5.53 h 0.3 v 5.93 h -0.2 v -5.69 l -2.8,5.69 h -0.1 L 149,22.62 Z m 9.1,-2.07 -0.9,2.07 h -0.3 l 2.6,-5.93 h 0.3 l 2.5,5.93 h -0.2 l -0.9,-2.07 z m 3,-0.22 -1.5,-3.42 -1.4,3.42 z m 4.2,2.29 v -5.72 h -1.6 v -0.21 h 3.5 v 0.21 h -1.7 v 5.72 z m 5.3,0 v -2.05 l -1.9,-3.88 h 0.2 l 1.9,3.61 1.8,-3.61 h 0.2 l -1.9,3.88 v 2.05 z m 4.4,0 v -5.93 h 0.2 v 2.97 l 2.8,-2.97 h 0.3 l -2.7,2.96 3,2.97 h -0.3 l -3.1,-2.94 v 2.94 z m 6.1,-2.07 -0.9,2.07 h -0.3 l 2.6,-5.93 h 0.3 l 2.6,5.93 h -0.3 l -0.9,-2.07 z m 3,-0.22 -1.5,-3.42 -1.4,3.42 z" style="stroke-width:2.72567" />
<rect width="215.8" height="37" x="0.09998" y="0.1" style="fill:none;stroke:#000;stroke-width:0.199987;stroke-miterlimit:4" ry="1.143" rx="1.143" />
<text style="font-size:6.35px;font-family:sans-serif;text-align:center;text-anchor:middle;fill:#070;stroke:none" x="5.698" y="5.867" >
<tspan style="font-size:6.35px;text-align:center;text-anchor:middle;fill:#070;stroke-width:0.264591" x="9.022" y="5.867" >27</tspan>
</text>
<text style="font-size:10.0197px;font-family:sans-serif;stroke:none" x="5.627" y="17.42" >
<tspan style="font-size:6.01185px" x="5.627" y="17.42" >Obwody</tspan>
<tspan x="5.627" y="29.96" style="font-size:7.7611px;font-family:sans-serif;-inkscape-font-specification:'sans-serif, Normal'" >SALON</tspan>
</text>
<rect width="53.8" height="0.2" x="0.1" y="7" />
<rect width="0.2" height="7" x="17.9" y="0.1" />
<rect width="0.2" height="37.2" x="53.8" y="0" style="stroke-width:1" />
</svg>