<svg width="18mm" height="37.2mm" viewBox="0 0 18 37.2" xmlns="http://www.w3.org/2000/svg" >
<path style="fill:#dea;stroke-width:0.3;" d="m 10.1,0.1 6.56,0 c 0.86,0 1.23,0.51 1.24,1.37 V 7.1 h -7.8 z" />
<rect width="17.8" height="37" x="0.1" y="0.1" style="fill:none;stroke:#000;stroke-width:0.2;stroke-miterlimit:4;" ry="1.143" rx="1.143" />
<text style="font-size:6.35px;font-family:sans-serif;text-align:end;text-anchor:end;fill:#007700;stroke:none" x="9.35" y="6.07" >
<tspan style="font-size:6.35px;text-align:end;text-anchor:end;fill:#007700;stroke-width:0.264592" x="9.35" y="6.07" >15</tspan>
</text>
<text style="font-size:5.30567px;font-family:sans-serif;stroke:none" x="-34.88" y="6.897" transform="rotate(-90)" >
<tspan style="font-size:3.18341px;stroke-width:0.132647" x="-34.88" y="6.897" >Kotłownia</tspan>
<tspan style="font-size:4.2333px;font-family:sans-serif;-inkscape-font-specification:'sans-serif, Normal';stroke-width:0.132647" x="-34.88" y="13.52" >WENTYLACJA</tspan>
</text>
<rect width="17.8" height=".2" x="0.1" y="7" />
<rect width="0.2" height="7" x="10" y=".1" />
<path d="m 13.99,3.298 a 0.3,0.3 0 0 0 -0.3,0.301 0.3,0.3 0 0 0 0.3,0.301 0.3,0.3 0 0 0 0.3,-0.301 0.3,0.3 0 0 0 -0.3,-0.301 M 14.14,0.6 c 1.35,0 1.39,1.07 0.68,1.424 -0.3,0.147 -0.43,0.461 -0.49,0.74 0.15,0.06 0.27,0.153 0.37,0.274 C 15.81,2.438 17,2.675 17,3.75 17,5.1 15.93,5.13 15.58,4.42 15.43,4.12 15.11,3.99 14.83,3.93 14.73,4.08 14.68,4.2 14.56,4.3 15.15,5.41 14.92,6.6 13.84,6.6 12.49,6.6 12.47,5.52 13.17,5.17 13.47,5.02 13.61,4.72 13.66,4.43 13.51,4.32 13.39,4.28 13.29,4.16 12.19,4.75 11,4.53 11,3.449 11,2.099 12.06,2.066 12.41,2.777 12.57,3.074 12.88,3.203 13.16,3.26 13.28,3.116 13.31,2.99 13.44,2.894 12.85,1.787 13.08,0.6 14.14,0.6 Z" style="stroke-width:0.264633" />
</svg>
