<svg width="54mm" height="37.2mm" viewBox="0 0 54 37.2" xmlns="http://www.w3.org/2000/svg" >
<path style="fill:#dea;stroke-width:0.3" d="m 18,0.1 34.95,0.029 c 0.72,6e-4 0.97,0.79 0.97,1.37 V 7.1 L 18,7.1 Z" />
<rect width="53.82" height="37" x="0.1" y="0.1" style="fill:none;stroke:#000;stroke-width:0.2;stroke-miterlimit:4;" ry="1.143" rx="1.143" />
<text style="font-size:6.35px;font-family:sans-serif;text-align:center;text-anchor:middle;fill:#070;stroke:none" x="5.667" y="5.867" >
<tspan style="font-size:6.35px;text-align:center;text-anchor:middle;fill:#070;stroke-width:0.264591" x="8.867" y="5.867" >16</tspan>
</text>
<text style="font-size:10.0197px;font-family:sans-serif;stroke:none" x="5.627" y="17.42" >
<tspan style="font-size:6.01185px" x="5.627" y="17.42" >Pompa</tspan>
<tspan x="5.627" y="29.96" >CIEPŁA</tspan>
</text>
<rect width="53.8" height=".2" x="0.1" y="7" />
<rect width="0.2" height="7" x="17.9" y="0.1" />
<path d="m 38.29,0.5996 h -4.67 c -0.36,0 -0.66,0.303 -0.66,0.6694 v 4.665 c 0,0.367 0.3,0.667 0.66,0.667 h 4.67 c 0.37,0 0.67,-0.3 0.67,-0.667 V 1.269 c 0,-0.3664 -0.3,-0.6694 -0.67,-0.6694 m 0,5.3344 H 33.62 V 1.269 h 4.67 V 5.934 M 35.96,5.6 c 1.11,0 2,-0.896 2,-1.999 0,-1.109 -0.89,-2.005 -2,-2.005 -1.11,0 -2.01,0.896 -2.01,2.005 0,1.103 0.9,1.999 2.01,1.999 M 35.71,4.907 C 35.53,4.869 35.35,4.793 35.21,4.7 l 0.5,-0.506 v 0.713 m 0.5,0 v -0.7 l 0.5,0.497 c -0.15,0.1 -0.32,0.17 -0.5,0.203 M 37.07,4.345 36.56,3.854 h 0.71 c 0,0.176 -0.13,0.34 -0.2,0.491 m 0.2,-0.996 h -0.71 l 0.51,-0.504 c 0.12,0.151 0.16,0.315 0.2,0.504 M 36.21,2.29 c 0.18,0 0.35,0.126 0.5,0.214 l -0.5,0.492 V 2.29 m -0.25,0.971 c 0.19,0 0.34,0.151 0.34,0.34 0,0.177 -0.15,0.328 -0.34,0.328 -0.19,0 -0.33,-0.151 -0.33,-0.328 0,-0.189 0.14,-0.34 0.33,-0.34 M 35.71,2.29 v 0.706 l -0.5,-0.504 c 0.14,-0.126 0.32,-0.164 0.5,-0.202 m -0.86,0.555 0.5,0.504 h -0.7 c 0,-0.189 0.12,-0.353 0.2,-0.504 m 0.5,1 -0.5,0.491 C 34.72,4.207 34.68,4.03 34.65,3.854 Z" style="stroke-width:0.264631" />
</svg>