<svg width="18mm" height="37.2mm" viewBox="0 0 18 37.2" xmlns="http://www.w3.org/2000/svg" >
<path style="fill:#dea;stroke-width:0.3;" d="m 10.1,0.1 6.56,0 c 0.86,0 1.23,0.51 1.24,1.37 V 7.1 h -7.8 z" />
<rect width="17.8" height="37" x="0.1" y="0.1" style="fill:none;stroke:#000;stroke-width:0.2;stroke-miterlimit:4;" ry="1.143" rx="1.143" />
<text style="font-size:6.35px;font-family:sans-serif;text-align:end;text-anchor:end;fill:#007700;stroke:none" x="9.35" y="6.07" >
<tspan style="font-size:6.35px;text-align:end;text-anchor:end;fill:#007700;stroke-width:0.264592" x="9.35" y="6.07" >17</tspan>
</text>
<text style="font-size:5.30567px;font-family:sans-serif;stroke:none" x="-35.94" y="6.795" transform="rotate(-90)" >
<tspan style="font-size:3.18341px;stroke-width:0.132647" x="-35.94" y="6.795" >Kotłownia</tspan>
<tspan style="font-size:4.5861px;font-family:sans-serif;-inkscape-font-specification:'sans-serif, Normal';stroke-width:0.132647" x="-35.94" y="13.42" >ODKURZACZ</tspan>
</text>
<rect width="17.8" height=".2" x="0.1" y="7" />
<rect width="0.2" height="7" x="10" y=".1" />
<path d="M 16.29,5.85 14.49,1.566 C 14.39,1.344 14.24,1.164 14.04,1.026 13.84,0.8905 13.61,0.8215 13.36,0.8215 c -0.22,0 -0.42,0.06 -0.61,0.167 C 12.57,1.1 12.42,1.251 12.31,1.436 12.2,1.622 12.14,1.828 12.14,2.05 V 2.939 H 11.36 V 4.381 C 11.52,4.311 11.7,4.27 11.88,4.27 V 3.476 h 1.32 c 0.15,0 0.28,0.05 0.38,0.156 0.1,0.101 0.15,0.225 0.15,0.366 v 1.86 h -0.55 c 0,0.19 -0.13,0.365 -0.25,0.521 h 1.33 V 3.998 c 0,-0.191 -0.1,-0.366 -0.14,-0.53 C 14.02,3.304 13.89,3.18 13.73,3.087 13.58,2.997 13.4,2.939 13.2,2.939 H 12.67 V 2.05 c 0,-0.19 0.1,-0.352 0.2,-0.489 0.14,-0.138 0.3,-0.21 0.49,-0.21 0.14,0 0.27,0.04 0.39,0.122 0.11,0.08 0.2,0.179 0.25,0.304 l 1.71,4.072 h -0.66 v 0.529 h 1.86 V 5.857 H 16.29 M 11.88,5.319 c 0.15,0 0.26,0.12 0.26,0.265 0,0.146 -0.11,0.265 -0.26,0.265 -0.15,0 -0.26,-0.119 -0.26,-0.265 0,-0.145 0.11,-0.265 0.26,-0.265 m 0,-0.529 c -0.44,0 -0.79,0.355 -0.79,0.794 0,0.44 0.35,0.795 0.79,0.795 0.44,0 0.79,-0.355 0.79,-0.795 0,-0.439 -0.35,-0.794 -0.79,-0.794 z" style="stroke-width:0.264583" />
</svg>