<svg width="18mm" height="37.2mm" viewBox="0 0 18 37.2" xmlns="http://www.w3.org/2000/svg" >
<path style="fill:#dea;stroke-width:0.3;" d="m 10.1,0.1 6.56,0 c 0.86,0 1.23,0.51 1.24,1.37 V 7.1 h -7.8 z" />
<rect width="17.8" height="37" x="0.1" y="0.1" style="fill:none;stroke:#000;stroke-width:0.2;stroke-miterlimit:4;" ry="1.143" rx="1.143" />
<text style="font-size:6.35px;font-family:sans-serif;text-align:end;text-anchor:end;fill:#007700;stroke:none" x="9.35" y="6.07" >
<tspan style="font-size:6.35px;text-align:end;text-anchor:end;fill:#007700;stroke-width:0.264592" x="9.35" y="6.07" >15</tspan>
</text>
<text style="font-size:5.30567px;font-family:sans-serif;stroke:none" x="-34.88" y="6.295" transform="rotate(-90)" >
<tspan style="font-size:3.18341px;stroke-width:0.132647" x="-34.88" y="6.295" >Gniazdko</tspan>
<tspan style="font-size:6.35px;font-family:sans-serif;-inkscape-font-specification:'sans-serif, Normal';stroke-width:0.132647" x="-34.88" y="12.92" >BOJLER</tspan>
</text>
<rect width="17.8" height=".2" x="0.1" y="7" />
<rect width="0.2" height="7" x="10" y=".1" />
<path d="m 12.8,0.5995 c -0.33,0 -0.6,0.266 -0.6,0.5995 v 3.602 c 0,0.34 0.27,0.6 0.6,0.6 h 0.31 v 0.6 H 12.2 v 0.6 h 0.91 c 0.33,0 0.59,-0.27 0.59,-0.6 v -0.6 h 0.6 v 0.6 c 0,0.33 0.27,0.6 0.6,0.6 h 0.9 v -0.6 h -0.9 v -0.6 h 0.3 c 0.33,0 0.6,-0.26 0.6,-0.6 V 1.199 C 15.8,0.8655 15.53,0.5995 15.2,0.5995 H 12.8 M 14,1.49 A 0.6001,0.6001 0 0 1 14.6,2.09 0.6001,0.6001 0 0 1 14,2.689 0.6001,0.6001 0 0 1 13.4,2.09 0.6001,0.6001 0 0 1 14,1.49 m -0.6,2.861 h 1.2 v 0.45 h -1.2 z" style="stroke-width:0.264583" />
</svg>