<svg width="54mm" height="37.2mm" viewBox="0 0 54 37.2" xmlns="http://www.w3.org/2000/svg" >
<path style="fill:#f00;stroke-width:0.3" d="m 18,0.1 34.95,0.029 c 0.72,6e-4 0.97,0.79 0.97,1.37 V 7.1 L 18,7.1 Z" />
<rect width="53.82" height="37" x="0.1" y="0.1" style="fill:none;stroke:#000;stroke-width:0.2;stroke-miterlimit:4;" ry="1.143" rx="1.143" />
<text style="font-size:6.35px;font-family:sans-serif;text-align:center;text-anchor:middle;fill:#070;stroke:none" x="8.561" y="5.867" >
<tspan style="font-size:6.35px;text-align:center;text-anchor:middle;fill:#070;stroke-width:0.264591" x="9.406" y="5.867" >1</tspan>
</text>
<text style="font-size:10.0197px;font-family:sans-serif;fill:#f00;stroke:none" x="1.753" y="17.42" >
<tspan style="font-size:6.01185px;fill:#f00;stroke-width:0.13267" x="1.753" y="17.42" >Pzełącznik</tspan>
<tspan style="font-size:7.4083px;font-family:sans-serif;-inkscape-font-specification:'sans-serif, Normal';fill:#f00;stroke-width:0.13267" x="1.753" y="29.96" >SIEĆ-AGREGAT</tspan>
</text>
<rect width="53.8" height=".2" x=".1" y="7" />
<rect width="0.2" height="7" x="17.9" y="0.1" />
<g transform="translate(2.575,5e-5)">
<path d="m 42.3,0.6047 c -0.34,0 -0.63,0.27 -0.63,0.6303 v 3.48 h 0.63 v 0.31 c 0,0.18 0.15,0.31 0.31,0.31 h 0.33 c 0.16,0 0.31,-0.13 0.31,-0.31 v -0.31 h 1.9 v 0.31 c 0,0.18 0.14,0.31 0.32,0.31 h 0.31 c 0.18,0 0.31,-0.13 0.31,-0.31 v -0.31 h 0.63 v -3.48 c 0,-0.3603 -0.27,-0.6303 -0.63,-0.6303 H 42.3 m 1.9,1.2503 v -0.62 h 1.89 v 0.62 H 44.2 m 0,0.63 h 1.89 v 0.64 H 44.2 v -0.64 m -1.26,-1.25 v 1.25 h 0.63 l -0.96,1.9 v -1.26 h -0.62 l 0.95,-1.89 m 4.42,4.73 v 0.63 h -6.33 v -0.63 z" style="fill:#fff;stroke-width:0.264535" />
<path d="m 20.66,1.635 -0.53,-0.27 0.38,-0.7649 h 2.54 l 0.39,0.7649 -0.55,0.266 -0.2,-0.432 h -1.8 L 20.66,1.635 M 23.76,2.4 H 22.41 L 22.17,1.5 H 21.39 L 21.16,2.4 H 19.8 L 19.41,3.164 19.94,3.432 20.16,3 h 3.23 L 23.62,3.434 24.16,3.168 23.76,2.4 M 23.51,6.6 H 22.89 L 22.79,6.33 21.75,4.77 20.7,6.33 20.6,6.6 H 20.03 L 20.9,3.299 h 0.63 L 21.42,3.705 21.76,4.23 22.12,3.705 22.01,3.299 h 0.62 L 23.49,6.6 M 21.6,4.5 21.33,4.095 20.98,5.439 21.6,4.5 M 22.58,5.435 22.23,4.092 21.96,4.5 Z" style="fill:#fff;stroke-width:0.264583" />
<text style="font-size:5.6444px;font-family:sans-serif;-inkscape-font-specification:'sans-serif, Normal';fill:#fff;stroke-width:0.264617" x="31.38" y="5.618" >
<tspan style="font-size:5.6444px;fill:#fff;stroke-width:0.264617" x="31.38" y="5.618" >0</tspan>
</text>
<path d="M 26.86,4.923 V 3.865 h 2.36 V 3.333 H 26.86 V 2.277 L 25.55,3.6 Z" style="fill:#fff;stroke-width:0.264583" />
<path d="m 39.11,4.925 v -1.06 h -2.36 v -0.53 h 2.36 v -1.06 l 1.32,1.33 z" style="fill:#fff;stroke-width:0.264583" />
</g>
</svg>