<svg width="72mm" height="37.2mm" viewBox="0 0 72 37.2" xmlns="http://www.w3.org/2000/svg" >
<path style="fill:#f00;stroke-width:0.3" d="M 18,0.0995 70.93,0.0294 c 0.72,-10e-4 0.97,0.79 0.97,1.3696 V 7 L 18,7.1 Z" />
<rect width="71.8" height="37" x="0.1" y="0.1" style="fill:none;stroke:#000;stroke-width:0.2;stroke-miterlimit:4;" ry="1.143" rx="1.143" />
<text style="font-size:6.35px;font-family:sans-serif;text-align:center;text-anchor:middle;fill:#070;stroke:none" x="8.561" y="5.832" >
<tspan style="font-size:6.35px;text-align:center;text-anchor:middle;fill:#070;stroke-width:0.264591" x="9.406" y="5.832" >1</tspan>
</text>
<text style="font-size:10.0197px;font-family:sans-serif;fill:#f00;stroke:none" x="1.853" y="17.42" >
<tspan style="font-size:6.01185px;fill:#f00;stroke-width:0.13267" x="1.853" y="17.42" >Pzełącznik</tspan>
<tspan style="fill:#f00;stroke-width:0.13267" x="1.853" y="29.96" >SIEĆ-AGREGAT</tspan>
</text>
<rect width="71.8" height=".2" x=".1" y="7" />
<rect width="0.2" height="7" x="17.9" y="0.1" />
<g transform="translate(3.955,-0.0353)">
<path d="m 51.28,0.6047 c -0.34,0 -0.63,0.27 -0.63,0.6303 v 3.48 h 0.63 v 0.31 c 0,0.18 0.15,0.31 0.31,0.31 h 0.33 c 0.16,0 0.31,-0.13 0.31,-0.31 v -0.31 h 1.9 v 0.31 c 0,0.18 0.14,0.31 0.32,0.31 h 0.31 c 0.18,0 0.31,-0.13 0.31,-0.31 v -0.31 h 0.63 v -3.48 c 0,-0.3603 -0.27,-0.6303 -0.63,-0.6303 h -3.79 m 1.9,1.2503 v -0.62 h 1.89 v 0.62 h -1.89 m 0,0.63 h 1.89 v 0.64 h -1.89 v -0.64 m -1.26,-1.25 v 1.25 h 0.63 l -0.96,1.9 v -1.26 h -0.62 l 0.95,-1.89 m 4.42,4.73 v 0.63 h -6.33 v -0.63 z" style="fill:#fff;stroke-width:0.264535" />
<path d="m 26.9,1.635 -0.53,-0.27 0.38,-0.7651 h 2.54 L 29.67,1.365 29.13,1.631 28.92,1.199 h -1.8 L 26.9,1.635 M 30,2.4 H 28.64 L 28.41,1.5 H 27.63 L 27.39,2.4 H 26.03 L 25.65,3.164 26.18,3.432 26.4,3 h 3.23 L 29.85,3.434 30.39,3.168 30,2.4 M 29.75,6.6 H 29.13 L 29.03,6.33 27.99,4.77 26.95,6.33 26.85,6.6 h -0.56 l 0.86,-3.301 h 0.62 l -0.1,0.406 0.35,0.525 0.35,-0.525 -0.11,-0.406 h 0.62 L 29.75,6.6 M 27.84,4.5 27.57,4.095 27.21,5.439 27.84,4.5 M 28.82,5.435 28.47,4.092 28.2,4.5 Z" style="fill:#fff;stroke-width:0.264583" />
<text style="font-size:5.44197px;font-family:sans-serif;-inkscape-font-specification:'sans-serif, Normal';fill:#fff;stroke-width:0.264607" x="39.04" y="5.546" >
<tspan style="fill:#fff;stroke-width:0.264607" x="39.04" y="5.546" >0</tspan>
</text>
<path d="M 33.79,4.923 V 3.865 h 2.36 V 3.333 H 33.79 V 2.277 L 32.47,3.6 Z" style="fill:#fff;stroke-width:0.264583" />
<path d="m 47.41,4.925 v -1.06 h -2.36 v -0.53 h 2.36 v -1.06 l 1.32,1.33 z" style="fill:#fff;stroke-width:0.264583" />
</g>
</svg>