<svg width="36mm" height="37.2mm" viewBox="0 0 36 37.2" xmlns="http://www.w3.org/2000/svg" >
<path style="fill:#f00;stroke-width:0.3" d="m 18,0.1 16.8,0 c 0.72,0 0.97,0.79 0.97,1.37 l 0.1,5.63 -17.85,0 z" />
<rect width="35.8" height="37" x="0.07" y="0.1" style="fill:none;stroke:#000;stroke-width:0.2;stroke-miterlimit:4;" ry="1.143" rx="1.143" />
<path d="m 21.67,0.95 h 2.65 l -0.93,1.86 h 0.93 L 22.47,6.25 V 4.13 h -0.8 V 0.95 M 22.2,1.48 V 3.6 H 23 v 0.7 l 0.52,-0.96 h -0.99 l 0.93,-1.86 z" style="fill:#fff;stroke-width:0.264591" />
<text style="font-size:6.35px;font-family:sans-serif;text-align:center;text-anchor:middle;fill:#070;stroke:none" x="8.666" y="6.07" >
<tspan style="font-size:6.35px;text-align:center;text-anchor:middle;fill:#070;stroke-width:0.264591" x="9.506" y="6.07" >1</tspan>
</text>
<text style="font-size:6.63119px;font-family:sans-serif;fill:#f00;stroke:none" x="3.83" y="21.69" >
<tspan style="font-size:3.97872px;fill:#f00;stroke-width:0.132646" x="3.83" y="21.69" >Wyłącznik</tspan>
<tspan style="fill:#f00;stroke-width:0.132646" x="3.83" y="29.99" >GŁÓWNY</tspan>
</text>
<rect width="35.8" height=".2" x=".1" y="7" />
<rect width="0.2" height="7" x="17.9" y="0.1" />
</svg>