<svg width="54mm" height="37.2mm" viewBox="0 0 54 37.2" xmlns="http://www.w3.org/2000/svg" >
<path style="fill:#f00;stroke-width:0.3" d="m 18,0.1 34.95,0.029 c 0.72,6e-4 0.97,0.79 0.97,1.37 V 7.1 L 18,7.1 Z" />
<rect width="53.82" height="37" x="0.1" y="0.1" style="fill:none;stroke:#000;stroke-width:0.2;stroke-miterlimit:4;" ry="1.143" rx="1.143" />
<path d="m 34.46,0.6007 h 3 L 36.39,2.706 h 1.05 L 35.35,6.6 V 4.201 H 34.46 V 0.6007 m 0.6,0.6003 v 2.4 h 0.91 v 0.792 l 0.58,-1.087 h -1.12 l 1.05,-2.105 z" style="fill:#fff;stroke-width:0.264569" />
<text style="font-size:6.35px;font-family:sans-serif;text-align:end;text-anchor:end;fill:#070;stroke:none" x="8.661" y="5.867" >
<tspan style="font-size:6.35px;text-align:center;text-anchor:middle;fill:#070;stroke-width:0.264591" x="9.506" y="5.867" >1</tspan>
</text>
<text style="font-size:10.0197px;font-family:sans-serif;fill:#f00;stroke:none" x="5.627" y="17.42" >
<tspan style="font-size:6.01185px;fill:#f00;stroke-width:0.13267" x="5.627" y="17.42" >Wyłącznik</tspan>
<tspan style="fill:#f00;stroke-width:0.13267" x="5.627" y="29.96" >GŁÓWNY</tspan>
</text>
<rect width="53.8" height=".2" x=".1" y="7" />
<rect width="0.2" height="7" x="17.9" y="0.1" />
</svg>