<svg width="72mm" height="37.2mm" viewBox="0 0 72 37.2" xmlns="http://www.w3.org/2000/svg" >
<path style="fill:#f00;stroke-width:0.3" d="m 18,0.1 52.93,0.1294 c 0.72,0 0.97,0.7896 0.97,1.3696 V 7.2 L 18,7.1 Z" />
<rect width="71.8" height="37" x="0.1" y="0.1" style="fill:none;stroke:#000;stroke-width:0.199994;stroke-miterlimit:4" ry="1.143" rx="1.143" />
<text style="font-size:6.35px;font-family:sans-serif;text-align:center;text-anchor:middle;fill:#070;stroke:none" x="5.679" y="5.92" >
<tspan style="font-size:6.35px;text-align:center;text-anchor:middle;fill:#070;stroke-width:0.264591" x="9.003" y="5.92" >20</tspan>
</text>
<rect width="71.8" height=".2" x="0.1" y="7" />
<rect width="0.2" height="7" x="17.9" y="0.1" />
<path d="m 43.45,0.6475 h 3 L 45.41,2.753 h 1.04 L 44.34,6.652 V 4.248 H 43.45 V 0.6475 m 0.6,0.6005 v 2.4 h 0.93 V 4.44 l 0.57,-1.087 h -1.13 l 1.06,-2.105 z" style="fill:#fff;stroke-width:0.264573" />
<text style="font-size:10.0197px;font-family:sans-serif;fill:#f00;stroke:none" x="5.922" y="17.42" >
<tspan style="font-size:6.01185px;fill:#f00;stroke-width:0.13267" x="5.922" y="17.42" >Wyłącznik</tspan>
<tspan style="fill:#f00;stroke-width:0.13267" x="5.922" y="29.96" >GŁÓWNY</tspan>
</text>
<text style="font-weight:bold;font-size:4.20185px;font-family:sans-serif;-inkscape-font-specification:'sans-serif, Bold';fill:#800;stroke-width:0.26461" x="24.76" y="36" >
<tspan style="font-weight:bold;font-size:4.20185px;font-family:sans-serif;-inkscape-font-specification:'sans-serif, Bold';fill:#800;stroke-width:0.26461" x="24.76" y="36" >L1</tspan>
</text>
<text style="font-weight:bold;font-size:4.20185px;font-family:sans-serif;-inkscape-font-specification:'sans-serif, Bold';stroke-width:0.26461" x="42.49" y="36.03" >
<tspan style="font-weight:bold;font-size:4.20185px;font-family:sans-serif;-inkscape-font-specification:'sans-serif, Bold';stroke-width:0.26461" x="42.49" y="36.03" >L2</tspan>
</text>
<text style="font-weight:bold;font-size:4.20185px;font-family:sans-serif;-inkscape-font-specification:'sans-serif, Bold';fill:#777;stroke-width:0.26461" x="60.51" y="36.03" >
<tspan style="font-weight:bold;font-size:4.20185px;font-family:sans-serif;-inkscape-font-specification:'sans-serif, Bold';fill:#777;stroke-width:0.26461" x="60.51" y="36.03" >L3</tspan>
</text>
<rect width="71.8" height="0.2" x="0.1" y="31.5" />
</svg>