<svg width="54mm" height="37.2mm" viewBox="0 0 54 37.2" xmlns="http://www.w3.org/2000/svg" >
<path style="fill:#ddeeff;stroke-width:0.3;" d="m 10.1,0.1 42.85,0.029 c 0.72,0 0.97,0.79 0.97,1.3696 l -0,5.601 H 10.1 Z" />
<rect width="53.82" height="37" x="0.1" y="0.1" style="fill:none;stroke:#000;stroke-width:0.2;stroke-miterlimit:4;" ry="1.143" rx="1.143" />
<text style="font-size:6.35px;font-family:sans-serif;text-align:end;text-anchor:end;fill:#007700;stroke:none" x="9.32" y="6.07" >
<tspan style="font-size:6.35px;text-align:end;text-anchor:end;fill:#007700;stroke-width:0.264591" x="9.32" y="6.07" >21</tspan>
</text>
<rect width="53.8" height=".2" x="0.1" y="7" />
<rect width="0.2" height="7" x="10" y=".1" />
<text style="font-size:10.0197px;font-family:sans-serif;stroke:none" x="5.627" y="17.42" >
<tspan style="font-size:6.01185px" x="5.627" y="17.42" >Ogranicznik</tspan>
<tspan x="5.627" y="29.95" style="font-size:7.7611px;font-family:sans-serif;-inkscape-font-specification:'sans-serif, Normal'" >PRZEPIĘĆ</tspan>
</text>
<g transform="matrix(0.1338,0,0,0.1291,27.27,0.9205)" style="stroke-width:2.0133">
<rect style="fill:none;stroke:#000;stroke-width:2.51662;stroke-miterlimit:4;" height="14.17" width="35.43" y="13.63" x="17.72" />
<line style="stroke:#000;stroke-width:2.51662;stroke-miterlimit:4;" y2="20.72" x2="17.72" y1="20.72" x1="0" />
<line style="stroke:#000;stroke-width:2.51662;stroke-miterlimit:4;" y2="20.72" x2="70.87" y1="20.72" x1="53.15" />
<path style="fill:none;fill-rule:evenodd;stroke:#000;stroke-width:2.51662;stroke-linecap:round;stroke-linejoin:miter;stroke-miterlimit:4;stroke-opacity:1" d="M 52.81,3.077 17.72,38.43 H 3.562" />
</g>
</svg>