<?xml version="1.0" encoding="UTF-8" standalone="no"?>
<!-- Created with Inkscape (http://www.inkscape.org/) -->

<svg
   width="18mm"
   height="37.200001mm"
   viewBox="0 0 18 37.200001"
   version="1.1"
   id="svg14701"
   sodipodi:docname="lightbulb.svg"
   inkscape:version="1.2.2 (b0a8486541, 2022-12-01)"
   xmlns:inkscape="http://www.inkscape.org/namespaces/inkscape"
   xmlns:sodipodi="http://sodipodi.sourceforge.net/DTD/sodipodi-0.dtd"
   xmlns="http://www.w3.org/2000/svg"
   xmlns:svg="http://www.w3.org/2000/svg">
  <sodipodi:namedview
     id="namedview14990"
     pagecolor="#ffffff"
     bordercolor="#666666"
     borderopacity="1.0"
     inkscape:showpageshadow="2"
     inkscape:pageopacity="0.0"
     inkscape:pagecheckerboard="0"
     inkscape:deskcolor="#d1d1d1"
     inkscape:document-units="mm"
     showgrid="false"
     inkscape:zoom="11.12"
     inkscape:cx="18.52"
     inkscape:cy="42.7"
     inkscape:window-width="2560"
     inkscape:window-height="1403"
     inkscape:window-x="0"
     inkscape:window-y="0"
     inkscape:window-maximized="1"
     inkscape:current-layer="svg14701" />
  <defs
     id="defs14698" />
  <path
     id="rect14229-2"
     style="fill:#ffff00;stroke-width:0.3;paint-order:markers stroke fill"
     d="M 9.958,0.2025 16.66,0.1006 c 0.86,0.015 1.23,0.5158 1.24,1.3764 L 17.8,7.453 H 9.948 Z" />
  <rect
     id="rect11371-2-9"
     width="17.8"
     height="37"
     x="0.1006"
     y="0.1006"
     style="fill:none;stroke:#000000;stroke-width:0.201126;stroke-miterlimit:4;stroke-dasharray:none"
     ry="1.143"
     rx="1.143" />
  <path
     style="fill:none;stroke:#000000;stroke-width:0.200767;stroke-linecap:butt;stroke-linejoin:miter;stroke-miterlimit:4;stroke-dasharray:none;stroke-opacity:1"
     d="M 0.1006,7.445 H 17.9"
     id="path31073-6-7" />
  <path
     style="fill:none;stroke:#000000;stroke-width:0.264583px;stroke-linecap:butt;stroke-linejoin:miter;stroke-opacity:1"
     d="M 9.958,0.0455 V 7.508"
     id="path31376-1-3" />
  <path
     d="m 13.63,1.158 a 1.852,1.852 0 0 0 -1.86,1.85 c 0,0.63 0.32,1.18 0.81,1.52 v 0.6 a 0.2646,0.2646 0 0 0 0.26,0.26 h 1.59 a 0.2646,0.2646 0 0 0 0.26,-0.26 v -0.6 c 0.48,-0.34 0.8,-0.89 0.8,-1.52 a 1.852,1.852 0 0 0 -1.85,-1.85 m -0.8,5.03 a 0.2646,0.2646 0 0 0 0.27,0.26 h 1.05 a 0.2646,0.2646 0 0 0 0.27,-0.26 v -0.27 h -1.59 z"
     id="path15181"
     style="stroke-width:0.2646"
     transform="scale(1)" />
  <text
     xml:space="preserve"
     style="font-style:normal;font-weight:normal;font-size:6.34987px;line-height:1.25;font-family:sans-serif;text-align:end;text-anchor:end;fill:#008000;fill-opacity:1;stroke:none;stroke-width:0.264583"
     x="9.348"
     y="6.074"
     id="text19521-7-6"><tspan
       id="tspan19519-9-1"
       style="font-size:6.34987px;text-align:end;text-anchor:end;fill:#008000;stroke-width:0.264583"
       x="9.348"
       y="6.074">6</tspan></text>
  <text
     xml:space="preserve"
     style="font-style:normal;font-weight:normal;font-size:5.30556px;line-height:1.25;font-family:sans-serif;fill:#000000;fill-opacity:1;stroke:none;stroke-width:0.132642"
     x="-34.71"
     y="6.998"
     id="text61444"
     transform="matrix(0,-1,1,0,0,0)"><tspan
       id="tspan61442"
       style="font-size:3.18335px;stroke-width:0.132642"
       x="-34.71"
       y="6.998">Oświetlenie</tspan><tspan
       style="stroke-width:0.132642"
       x="-34.71"
       y="13.63"
       id="tspan64758">PARTER 1</tspan></text>
</svg>
