<svg width="18mm" height="37.2mm" viewBox="0 0 18 37.2" xmlns="http://www.w3.org/2000/svg" >
<path style="fill:#ff0;stroke-width:0.3;" d="m 10.2,0.1 6.46,6e-4 c 0.86,0.015 1.23,0.5158 1.24,1.3764 l -0.1,5.623 -7.63,0 z" />
<rect width="17.8" height="37" x="0.1" y="0.1" style="fill:none;stroke:#000;stroke-width:0.2;stroke-miterlimit:4;" ry="1.143" rx="1.143" />
<path d="m 14.03,0.955 a 1.852,1.852 0 0 0 -1.86,1.85 c 0,0.63 0.32,1.18 0.81,1.52 v 0.6 a 0.2646,0.2646 0 0 0 0.26,0.26 h 1.59 a 0.2646,0.2646 0 0 0 0.26,-0.26 v -0.6 c 0.48,-0.34 0.8,-0.89 0.8,-1.52 a 1.852,1.852 0 0 0 -1.85,-1.85 m -0.8,5.03 a 0.2646,0.2646 0 0 0 0.27,0.26 h 1 a 0.2646,0.2646 0 0 0 0.27,-0.26 v -0.27 h -1.59 z" style="stroke-width:0.2646" />
<text style="font-size:6.34987px;font-family:sans-serif;text-align:end;text-anchor:end;fill:#008000;stroke:none" x="9.348" y="6.074" >
<tspan style="font-size:6.34987px;text-align:end;text-anchor:end;fill:#008000;stroke-width:0.264583" x="9.348" y="6.074" >6</tspan>
</text>
<text style="font-size:5.30556px;font-family:sans-serif;stroke:none" x="-34.71" y="6.998" transform="matrix(0,-1,1,0,0,0)" >
<tspan style="font-size:3.18335px;stroke-width:0.132642" x="-34.71" y="6.998" >Oświetlenie</tspan>
<tspan style="stroke-width:0.132642" x="-34.71" y="13.63" >PARTER 1</tspan>
</text>
<rect width="17.8" height=".2" x=".1" y="7" />
<rect width=".2" height="7" x="10" y=".1" />
</svg>